<svg version="1.1" xmlns="http://www.w3.org/2000/svg" xmlns:xlink="http://www.w3.org/1999/xlink" width="469.0998" height="405.22692" viewBox="0,0,469.0998,405.22692"><g transform="translate(-20.92403,4.08394)"><g data-paper-data="{&quot;isPaintingLayer&quot;:true}" fill="#9966ff" fill-rule="nonzero" stroke="none" stroke-width="0.5" stroke-linecap="butt" stroke-linejoin="miter" stroke-miterlimit="10" stroke-dasharray="" stroke-dashoffset="0" style="mix-blend-mode: normal"><path d="M356.31215,89.66494c-1.39573,-2.07411 0.67839,-3.46984 0.67839,-3.46984l3.49723,-2.33571c8.77931,-3.48307 18.02687,-8.11595 25.46545,-13.93839c1.82291,-1.42686 4.46232,-2.45616 4.49986,-5.27535c0.00611,-0.45902 -0.74498,-0.55208 -1.03679,-0.90646c-1.03337,-1.25497 -1.89354,-2.64587 -2.92377,-3.90341c-3.94103,-4.81054 -8.47772,-9.24394 -12.68041,-13.82869c-4.29715,-4.6878 -9.12791,-9.25409 -13.37876,-14.12162c-4.53161,0.56465 -9.10096,0.94515 -13.63903,1.43031c-34.80168,3.7206 -69.60337,7.44121 -104.40505,11.16181c-17.45708,1.86631 -34.91417,3.73263 -52.37125,5.59894c-0.75818,1.00587 -1.50768,2.01221 -2.24421,3.02051l-1.54295,2.11228c0,0 -1.47464,2.01877 -3.49341,0.54413c-2.01877,-1.47464 -0.54413,-3.49341 -0.54413,-3.49341c0.34837,-0.47692 0.7045,-0.96445 1.06727,-1.46109c-15.09212,1.61348 -30.18425,3.22696 -45.27637,4.84044c-14.91501,1.59454 -29.83001,3.18909 -44.74502,4.78363c-3.31445,0.35434 -6.61279,0.92669 -9.94334,1.06303c-1.15745,0.04738 -2.65087,-1.00477 -3.47028,-0.18593c-0.81941,0.81884 0.23169,2.31299 0.18349,3.47041c-0.06934,1.66522 -0.35667,3.3142 -0.53501,4.97129c-1.24835,11.59969 -2.4967,23.19937 -3.74505,34.79906c-1.78336,16.57098 -3.56672,33.14196 -5.35007,49.71294c-0.53482,4.96958 -1.00825,9.95141 -1.60502,14.91388c-0.16918,1.40679 -0.84787,2.82318 -0.56941,4.21248c0.60595,3.02319 3.07251,5.3471 4.55838,8.04876c4.05036,7.36451 8.37202,14.60775 11.73875,22.31194c2.0015,4.58649 4.00389,9.17398 5.95447,13.78244c0.54526,1.28824 1.36606,2.49807 1.61005,3.87551c1.12886,6.37312 0.05133,14.02104 0.05133,20.50399c0,2.6016 -1.02802,5.37085 -0.10727,7.80407c0.61738,1.63151 2.57155,2.67525 2.83331,4.39991c0.32917,2.16883 -0.30101,4.46524 -1.18296,6.4738c-0.75364,1.71635 -2.36952,2.90536 -3.5682,4.34653c-0.90769,1.09131 -1.81586,2.18232 -2.72004,3.2766c19.4975,13.71248 39.89761,26.34665 59.68542,39.53853c20.70405,13.8027 43.35699,24.51015 65.38317,36.07038c4.42728,2.32362 8.85456,4.64723 13.28184,6.97085c1.47576,0.77454 2.97304,1.50939 4.42728,2.32362c0.78636,0.44028 1.38884,1.45098 2.28997,1.43734c1.33515,-0.02021 2.46868,-1.0187 3.70302,-1.52806c11.00155,-3.8829 22.00311,-7.7658 33.00466,-11.6487c3.1433,-1.1094 6.22978,-2.39528 9.4299,-3.3282c0.88588,-0.25826 2.25206,0.29015 2.72201,-0.50397c0.61501,-1.03927 -0.27441,-2.40394 -0.28658,-3.61149c-0.03359,-3.33316 0.26645,-6.66134 0.39968,-9.99201c0.28994,-7.24842 1.49776,-15.10049 0.90323,-22.32226c-0.40064,-4.86658 -1.40873,-9.78804 -2.09944,-14.62303c-0.23967,-1.68212 -0.47933,-3.36425 -0.719,-5.04637l0.02416,-0.09908l-0.03227,0.00207l-0.17307,-2.7c-0.00439,-0.06058 -0.00663,-0.12175 -0.00663,-0.18345c0,-1.38071 1.11929,-2.5 2.5,-2.5c0.69036,0 1.31536,0.27982 1.76777,0.73223l3.53553,3.53553l-0.32471,0.32471c5.15008,4.19897 9.64007,8.99065 14.46684,13.81743c5.60607,5.60607 11.7872,10.97622 16.96771,16.97514c10.86685,12.58361 20.44906,26.57515 30.58849,39.75641c8.12948,10.56832 16.25895,21.13664 24.38843,31.70496c2.74965,3.57455 5.6237,6.61775 8.50783,10.03396c0.71972,0.8525 0.71225,2.77731 1.82761,2.80402c1.11536,0.02671 1.19921,-1.89702 1.95973,-2.71333c1.13611,-1.21944 2.46714,-2.2415 3.70071,-3.36226c3.70071,-3.36226 7.40142,-6.72451 11.10212,-10.08677c2.34614,-2.13157 5.18875,-3.80815 7.07101,-6.35866c1.88226,-2.5505 2.64632,-5.76105 3.99152,-8.63131c14.85297,-31.6921 29.70595,-63.3842 44.55892,-95.0763c6.36556,-13.58233 12.73112,-27.16466 19.09668,-40.74698c2.12185,-4.52744 4.24371,-9.05489 6.36556,-13.58233c1.21323,-2.58869 3.14073,-4.93561 3.69372,-7.7405c0.60974,-3.09271 -0.05978,-6.3043 -0.05978,-9.45654c0,-8.09237 -0.09441,-16.18957 0.10603,-24.27963c-8.43555,-12.08608 -16.06219,-24.72927 -24.4901,-36.81806c-11.41445,-16.37262 -23.65332,-32.23203 -35.46178,-48.32385c-4.72424,-6.46859 -11.14272,-11.64787 -16.94714,-17.15463c-8.46374,-8.02971 -16.92749,-16.05941 -25.39123,-24.08912c-1.69244,-1.60565 -3.38488,-3.2113 -5.07732,-4.81695c4.186,4.54714 8.67082,8.95958 12.58621,13.73549c1.08266,1.3206 2.09604,2.69825 3.07623,4.09659c0.70388,1.00416 1.96525,1.87928 1.97222,3.10555c0.03417,6.00779 -2.38063,6.77892 -6.31183,9.98061c-7.49349,6.10291 -17.27852,10.93827 -26.2623,14.45974l-3.03241,2.05825c0,0 -2.07411,1.39573 -3.46984,-0.67839zM352.9738,21.53648c0.11829,-1.73341 2.93619,-1.88827 4.5331,-2.57282c3.06371,-1.31332 6.39024,-1.8998 9.58536,-2.8497c14.37805,-4.27455 28.75609,-8.54911 43.13414,-12.82366c0,0 2.39634,-0.71243 3.10877,1.68392c0.71243,2.39634 -1.68392,3.10877 -1.68392,3.10877c-12.78048,3.7996 -25.56097,7.59921 -38.34145,11.39881c-3.19512,0.9499 -6.39024,1.8998 -9.58536,2.8497c-1.33183,0.39595 -2.62037,1.01729 -3.97388,1.30032c1.24799,0.69474 2.00407,1.64255 3.03392,2.8733c1.50577,-0.28966 3.02482,-0.64553 4.43211,-0.16932c1.91118,0.64672 3.05427,2.63791 4.54664,3.99574c4.92696,4.48277 9.67675,9.18051 14.50927,13.76521c8.46374,8.02971 16.92749,16.05941 25.39123,24.08912c6.03769,5.72807 12.59316,11.11579 17.53694,17.82387c20.8999,28.48108 41.75193,56.82512 60.70872,86.65926c0.1589,8.57264 0.10603,17.14638 0.10603,25.72037c0,0.69112 0.01797,10.15983 -0.05978,10.54346c-0.30882,1.5236 -1.27386,2.83628 -1.92486,4.24799c-2.09362,4.54009 -4.24389,9.05527 -6.36556,13.58233c-7.07284,15.09148 -14.14569,30.18295 -21.21853,45.27443c-14.85297,31.6921 -29.70595,63.3842 -44.55892,95.0763c-0.2551,0.5443 -4.30418,9.21867 -4.4959,9.47846c-0.19172,0.25979 -7.28691,6.68614 -7.73182,7.09036c-3.70071,3.36226 -7.40142,6.72451 -11.10212,10.08677c-1.27386,1.15736 -7.89541,7.4033 -9.14239,7.37344c-2.25278,-0.05394 -3.56099,-2.76797 -5.24345,-4.26705c-3.25551,-2.90067 -3.4867,-3.44151 -5.88686,-6.55782c-9.15286,-11.8838 -18.29133,-23.77873 -27.43698,-35.66808c-12.90545,-16.77709 -25.08216,-34.19812 -40.05754,-49.17351c-4.71405,-4.71405 -9.42809,-9.42809 -14.14214,-14.14214c-1.98261,-1.98261 -4.01073,-3.58056 -5.55256,-5.54527c0.02343,0.16354 0.04686,0.32708 0.07028,0.49062c0.71168,4.98178 1.74817,10.05979 2.1432,15.07545c0.58236,7.39417 -0.6041,15.36098 -0.90073,22.77679c-0.13323,3.33067 -0.14084,6.66874 -0.39968,9.99201c-0.16611,2.13265 0.50224,4.60197 -0.68626,6.38052c-1.02917,1.5401 -3.36097,1.56276 -5.08106,2.25005c-3.09539,1.23681 -6.2866,2.2188 -9.4299,3.3282c-11.00155,3.8829 -22.00311,7.7658 -33.00466,11.6487c-1.90896,0.60005 -3.72623,1.83963 -5.72688,1.80014c-0.63153,-0.01246 -8.3261,-4.1344 -8.6811,-4.32072c-4.42728,-2.32362 -8.85456,-4.64723 -13.28184,-6.97085c-22.18239,-11.64221 -44.9816,-22.43643 -65.83306,-36.33741c-19.92187,-13.28124 -40.45857,-26.00165 -60.08037,-39.81576c-0.08749,0.10899 -0.17489,0.21806 -0.2622,0.3272l-2.88253,3.60316c0,0 -1.56174,1.95217 -3.51391,0.39043c-1.95217,-1.56174 -0.39043,-3.51391 -0.39043,-3.51391l2.88253,-3.60316c0.02777,-0.0347 0.0557,-0.06944 0.0838,-0.10422c-2.86373,-2.05361 -5.70541,-4.13332 -8.52017,-6.24439c0,0 -2,-1.5 -0.5,-3.5c1.5,-2 3.5,-0.5 3.5,-0.5c2.93204,2.19903 5.89346,4.36386 8.87872,6.50049c2.13771,-2.27713 4.35659,-4.64726 5.67766,-7.03452c0.55226,-0.99797 1.0748,-2.2293 0.7811,-3.33143c-0.40927,-1.53578 -2.19516,-2.41818 -2.71369,-3.92059c-0.46266,-1.34052 -0.09083,-2.83497 -0.10727,-4.25299c-0.05794,-4.99813 0,-10.00149 0,-15c0,-3.16538 0.58025,-6.37513 0.05133,-9.49601c-0.45608,-2.69113 -2.20295,-4.99486 -3.28088,-7.5025c-1.31457,-3.05817 -2.63756,-6.11273 -3.96895,-9.16361c-3.29654,-7.56509 -7.56171,-14.67383 -11.53721,-21.90224c-0.42444,-0.77173 -4.98237,-8.98975 -5.07977,-9.47568c-0.3768,-1.87992 0.31593,-3.82171 0.50061,-5.73011c0.48149,-4.97544 1.07015,-9.94386 1.60502,-14.91388c1.78336,-16.57098 3.56672,-33.14196 5.35007,-49.71294c1.24835,-11.59969 2.4967,-23.19937 3.74505,-34.79906c0.17208,-1.59896 1.00664,-10.66215 1.78852,-11.44347c1.5544,-1.55331 4.30169,-0.91116 6.47306,-1.24896c3.29371,-0.51241 6.62889,-0.70869 9.94334,-1.06303c14.91501,-1.59454 29.83001,-3.18909 44.74502,-4.78363c16.59739,-1.77441 33.19477,-3.54881 49.79216,-5.32322c3.8107,-5.21681 7.88349,-10.79245 11.2378,-15.38446c1.66389,-2.27785 2.91075,-4.53464 4.61576,-6.33627c-2.63888,0.47798 -5.27793,0.95499 -7.91717,1.43095c-1.92444,0.2978 -3.85221,1.21197 -5.77332,0.89339c-1.92111,-0.31858 -3.46108,-1.78634 -5.17589,-2.70914c-0.71895,-0.38689 -9.00238,-4.98114 -9.31321,-5.29222c-1.25912,-1.2601 -1.75279,-3.10215 -2.59015,-4.67443c-2.25323,-4.23081 -5.42302,-11.70799 -0.11236,-15.60267c1.41784,-1.0398 3.42397,-0.80619 5.1513,-1.13452c2.73224,-0.51935 5.57909,-0.83767 8.33181,-0.44096c4.94871,0.71319 9.89244,1.46382 14.83843,2.1957c0.56342,0.08337 10.05582,1.47468 10.3436,1.57423c0.28778,0.09955 8.611,4.87084 9.10552,5.15342c0,0 2.17061,1.24035 0.93026,3.41096c-1.24035,2.17061 -3.41096,0.93026 -3.41096,0.93026c-2.76028,-1.57731 -5.25486,-3.73007 -8.25935,-4.76935c-1.42943,-0.49445 -2.9976,-0.40684 -4.49483,-0.62147c-4.94917,-0.70947 -9.89251,-1.46383 -14.83843,-2.1957c-5.17096,-0.76517 -6.63759,-0.9876 -11.72406,-0.30511c-0.99481,0.13348 -2.10631,-0.22694 -3.00278,0.2245c-0.49462,0.24907 -0.49636,1.01559 -0.55363,1.56641c-0.27447,2.63977 0.88217,5.32566 2.115,7.67594c0.60724,1.15766 0.81481,2.59217 1.74213,3.51358c2.19647,2.18249 5.4874,2.87411 8.16994,4.42064c1.20199,0.69297 2.19693,1.92031 3.56568,2.14729c1.36875,0.22698 2.71196,-0.58758 4.06794,-0.88138c3.21606,-0.57998 6.43241,-1.15841 9.64905,-1.73512l4.60192,-1.44467c0.25244,-0.08574 0.523,-0.13224 0.80443,-0.13224c1.38071,0 2.5,1.11929 2.5,2.5c0,0.56133 -0.185,1.07946 -0.49736,1.49673l-2.93315,4.01546l-0.34587,-0.25265c-3.91255,7.02174 -8.91007,13.56566 -13.87045,20.01909c15.88511,-1.69826 31.77021,-3.39651 47.65532,-5.09477c34.80168,-3.7206 69.60337,-7.44121 104.40505,-11.16181c3.44699,-0.36851 6.89616,-0.78773 10.34779,-1.1526c-1.48492,-1.77023 -3.7895,-3.41737 -3.6368,-5.65503z"/><path d="M299.30479,148.28706c-0.49189,0.20583 -9.3602,3.92911 -9.63677,3.99187c-0.14885,0.03378 -3.00039,0.18519 -5.6853,0.32197c-0.43873,2.1357 -0.89865,4.26676 -1.47552,6.36815c-0.58379,2.12659 -0.19867,5.02069 -1.98767,6.31015c-1.94565,1.40238 -4.83307,0.75465 -7.18872,0.30396c-1.82916,-0.34996 -3.29381,-1.73905 -4.93294,-2.6231c-4.39964,-2.37291 -8.78123,-4.78708 -13.15498,-7.20739c-0.87895,-0.48638 -1.70435,-1.09261 -2.57956,-1.58607c-14.44129,0.72206 -28.88257,1.44413 -43.32386,2.16619c-0.65986,0.03299 -10.32761,0.54066 -10.6258,0.4492c-1.91797,-0.58822 -4.52484,-1.47792 -4.93761,-3.44114c-0.31722,-1.50879 5.36677,-7.86862 6.33762,-9.02439c5.35993,-6.38087 10.71987,-12.76175 16.0798,-19.14262c7.38886,-8.79626 15.08994,-16.94093 23.2118,-25.06278c1.78684,-1.78684 3.53839,-3.6099 5.3349,-5.3868c-2.5299,-1.20995 -5.05979,-2.4199 -7.58969,-3.62985c-2.28585,-1.09323 -4.29517,-3.1116 -6.81634,-3.36449c-4.28538,-0.42985 -9.93333,1.14041 -14.2314,1.59283c-8.28755,0.87237 -16.57509,1.74475 -24.86264,2.61712c-4.44371,0.46776 -10.18598,0.18267 -14.45403,1.47649c-4.26805,1.29383 -8.88546,4.71938 -12.84092,6.79777c-8.85235,4.65145 -17.70469,9.30289 -26.55704,13.95434c-2.95078,1.55048 -5.87136,3.15985 -8.85235,4.65145c-0.82809,0.41435 -1.95936,0.42198 -2.52709,1.15348c-1.86725,2.4059 -2.05312,5.73839 -3.24938,8.53909c-0.52449,1.22796 -1.7205,2.30219 -1.67933,3.63684c0.04116,1.33465 1.29993,2.33372 1.90027,3.52643c2.01941,4.01206 2.13081,4.56879 3.84843,8.85991c3.14289,8.05783 10.85643,14.82726 15.87188,21.85677c5.224,7.32182 9.56689,15.18398 13.4471,23.26819c15.92796,2.60048 31.85592,5.20097 47.78388,7.80145c7.80709,1.27463 16.06534,3.54343 23.95883,3.92638c4.78714,0.23225 9.92014,-0.55079 14.70847,-0.80962c8.32119,-0.44979 16.64237,-0.89959 24.96356,-1.34938c4.83386,-0.26129 9.96835,-0.1016 14.75846,-0.788c8.05786,-1.15464 16.19153,-3.81223 24.12105,-5.67431c8.11265,-1.90508 16.2253,-3.81015 24.33796,-5.71523c3.51864,-0.82627 7.54786,-2.60337 11.12963,-1.71172c0.83024,-4.66768 -1.03709,-9.67298 -2.17626,-14.22828c-1.49359,-5.97254 -2.62415,-11.60873 -5.33861,-17.12775c-0.64644,-1.31434 -0.94475,-2.85104 -1.89804,-3.96307c-0.95329,-1.11204 -2.42518,-1.64335 -3.62647,-2.48138c-3.45433,-2.40976 -6.87743,-4.86655 -10.30825,-7.31057c-6.09486,2.55033 -13.18986,5.51915 -19.25706,8.0579zM251.05391,88.87988c5.38805,-1.67512 8.59344,4.19445 10.88755,8.36023c1.54203,0.75602 3.06737,1.53663 4.56434,2.3564c7.05214,3.86192 13.72289,8.72736 20.50768,13.04495c11.09105,7.05794 21.79508,14.53412 32.51619,22.14067c4.07744,2.89291 8.17671,5.75816 12.23367,8.6797c1.51666,1.09219 3.3129,1.88611 4.52932,3.30508c1.21641,1.41897 1.72909,3.31413 2.57409,4.9812c2.95227,5.82434 4.1383,11.83374 5.71718,18.15114c0.74046,2.96271 3.16249,10.13176 2.78399,13.1199c-0.28746,2.2694 -1.68993,4.25151 -2.53489,6.37727c-6.04128,0.65848 -11.86424,2.2775 -17.77772,3.66615c-9.73518,2.28609 -19.47037,4.57219 -29.20555,6.85828c-4.85641,1.14042 -9.88415,2.76283 -14.81968,3.47007c-4.93553,0.70723 -10.21657,0.56201 -15.19781,0.83126c-8.32119,0.44979 -16.64237,0.89959 -24.96356,1.34938c-4.96779,0.26853 -10.28231,1.05345 -15.2478,0.80964c-8.08055,-0.39676 -16.50519,-2.67999 -24.49503,-3.98445c-14.80881,-2.41777 -29.61763,-4.83553 -44.42644,-7.2533c0.59923,1.32523 1.18876,2.65443 1.77038,3.98623l2.33779,1.01758c0,0 2.23607,1.11803 1.11803,3.3541c-1.11803,2.23607 -3.3541,1.11803 -3.3541,1.11803l-3.66822,-1.98542c-1.4136,-2.78358 -2.60738,-5.67325 -3.8492,-8.53494c-0.69238,-0.32696 -1.59537,-1.06119 -1.33939,-2.62905c0.01477,-0.09047 0.03232,-0.17709 0.05242,-0.26c-0.41695,-0.9034 -0.84806,-1.79931 -1.30206,-2.68335c-3.3151,-6.45534 -7.60138,-13.31789 -11.82855,-19.22149c-5.3361,-7.45231 -12.9771,-14.40021 -16.45025,-22.91251c-1.15697,-2.89445 -2.44759,-5.73408 -3.72517,-8.57735c-0.82016,-1.82528 -2.31708,-3.51169 -2.37877,-5.51181c-0.06169,-2.00012 1.32674,-3.77623 2.03457,-5.64793c0.35818,-0.94713 3.80832,-9.57824 4.17843,-10.03044c0.95131,-1.16232 2.59661,-1.5112 3.9147,-2.23135c2.92521,-1.5982 5.90156,-3.10096 8.85235,-4.65145c8.85235,-4.65145 17.70469,-9.30289 26.55704,-13.95434c4.24024,-2.22803 9.14532,-5.77097 13.71612,-7.15657c4.57079,-1.3856 10.61749,-1.16261 15.38113,-1.66405c8.28755,-0.87237 16.57509,-1.74475 24.86264,-2.61712c4.71162,-0.49596 10.91889,-2.11512 15.60376,-1.54771c1.31112,0.1588 2.41663,1.06668 3.61401,1.62394c4.53197,2.10918 9.02245,4.31509 13.53201,6.47183c0.01055,0.00505 0.02111,0.01009 0.03166,0.01514c0.7755,-0.89085 1.60311,-1.69466 2.69312,-2.03354zM280.93751,133.79404c0.45264,0.87511 4.77899,9.14653 4.8528,9.70825c0.19036,1.4488 -0.31598,2.87811 -0.74543,4.30705c1.18539,-0.03812 2.36154,-0.14434 3.51674,-0.40647c3.11069,-0.70584 5.87059,-2.49702 8.81314,-3.72829c5.46054,-2.2849 10.92107,-4.5698 16.38161,-6.8547c-9.69273,-6.8537 -19.40011,-13.57919 -29.42726,-19.9601c-5.89636,-3.75223 -11.70531,-7.93436 -17.76139,-11.48086c5.06827,9.29984 9.52962,19.05745 14.3698,28.41513zM279.87931,147.81301c0.36783,-1.2224 1.11803,-2.41355 0.95277,-3.66576c-0.181,-1.3715 -1.38294,-2.39683 -2.03854,-3.61501c-0.78985,-1.46762 -1.53141,-2.96073 -2.29711,-4.44109c-5.91622,-11.43803 -11.25505,-23.49069 -17.86138,-34.54033c-0.09988,-0.16705 -0.19872,-0.33497 -0.2968,-0.50354c-2.8913,-1.38491 -5.83044,-2.69699 -8.73842,-4.03458c-2.15737,2.27154 -4.44358,4.41848 -6.659,6.63389c-8.02119,8.02119 -15.62191,16.05642 -22.91881,24.74321c-4.28795,5.1047 -8.57589,10.2094 -12.86384,15.3141c-2.66914,3.17755 -4.82283,6.66065 -8.48287,8.62112c0.20413,-0.10543 0.79572,-0.39977 1.06523,-0.43645c1.44198,-0.1962 2.90273,-0.21447 4.35549,-0.29986c4.99051,-0.29334 9.98837,-0.49942 14.98129,-0.74906c1.54294,-0.07715 3.08589,-0.15429 4.62883,-0.23144c-0.68488,-0.27514 -1.45351,-0.89272 -1.45351,-2.27893c0,-2.5 2.5,-2.5 2.5,-2.5c8.89868,0 19.21689,0.28059 27.87858,3.33268c3.79665,-0.18983 7.5933,-0.37966 11.38995,-0.5695c4.99376,-0.24969 9.98752,-0.49938 14.98129,-0.74906c0.2917,-0.01458 0.58404,-0.02427 0.87685,-0.03039zM278.742,152.86266c-4.82371,0.24119 -9.64743,0.48237 -14.47114,0.72356c-0.77641,0.03882 -1.55283,0.07764 -2.32924,0.11646c2.95984,1.61194 5.91615,3.23171 8.85873,4.87238c1.28508,0.71651 2.47837,1.6172 3.83705,2.18183c0.88239,0.36669 2.11851,1.24154 2.80748,0.57942c0.83074,-0.79836 0.00832,-2.31267 0.18137,-3.45178c0.25032,-1.64776 0.72301,-3.25398 1.08452,-4.88097c0.01043,-0.04696 0.02085,-0.09393 0.03124,-0.1409z"/><path d="M116.14152,46.22718c0,2.5 -2.5,2.5 -2.5,2.5l-1.99179,-0.04855c-1.58558,-0.31712 -7.64084,-1.51855 -8.02536,-1.66524c-2.63781,-1.00625 -4.58804,-3.2914 -6.86469,-4.96095c-2.68802,-1.97121 -5.37603,-3.94242 -8.06405,-5.91364c-2.40522,-1.76383 -4.36392,-4.23475 -7.07509,-5.47803c-0.62272,-0.28557 -1.77655,-0.4424 -2.04668,0.18717c-0.4434,1.03335 0.39753,2.21458 0.53738,3.33031c0.20219,1.61314 0.32604,3.23514 0.48831,4.85279c0.16667,1.6616 0.21307,3.33377 0.17605,5.00733l0.32147,-0.03215l0.49417,4.94172c0.01041,0.09264 0.01575,0.18681 0.01575,0.28222c0,1.38071 -1.11929,2.5 -2.5,2.5c-0.69036,0 -1.31536,-0.27982 -1.76777,-0.73223l0,0l-2.47047,-2.47047c-3.50928,-3.52206 -5.98999,-6.97288 -8.83639,-11.03564c-2.86151,-4.08433 -5.71986,-8.16452 -8.65316,-12.19772c-1.9606,-2.69577 -4.34612,-5.1288 -5.88172,-8.08736c-0.4772,-0.9194 -0.20625,-2.12566 -0.72624,-3.02155c-0.36346,-0.6262 0.47849,1.48157 0.22635,2.16029c-0.59088,1.59054 -1.76285,2.89969 -2.64462,4.34933c-1.73227,2.84787 -3.46547,5.69517 -5.1982,8.54276c-3.46547,5.69517 -6.9297,11.3911 -10.3964,17.08551c-3.17488,5.21507 -6.81215,10.23711 -6.70693,16.4206c0,0 0,2.5 -2.5,2.5c-2.5,0 -2.5,-2.5 -2.5,-2.5c0.02229,-1.69296 -0.34013,-3.43543 0.06688,-5.07889c1.14643,-4.62914 4.9099,-9.89813 7.36867,-13.94082c4.33032,-7.11989 8.66367,-14.23793 12.9955,-21.35689c1.7171,-2.82189 3.24273,-5.76971 5.15268,-8.46481c1.15925,-1.6358 1.74728,-4.78399 3.75052,-4.7022c2.40727,0.09828 3.55495,3.265 5.15548,5.06581c5.44862,6.13045 9.88239,13.64307 14.58619,20.35696c1.92546,2.74827 3.63266,5.17896 5.66595,7.55225c-0.61154,-2.46464 -0.67922,-5.12794 -0.67567,-7.74412c0.00303,-2.23004 -0.93391,-4.98108 0.5227,-6.66968c1.57673,-1.82786 4.56122,-2.28172 6.95911,-2.00377c0.59812,0.06933 8.18113,5.70986 9.05301,6.34924c2.68802,1.97121 5.37603,3.94242 8.06405,5.91364c1.98641,1.4567 3.60857,3.57737 5.92415,4.41754c2.22993,0.80909 4.66355,0.87255 6.98966,1.33777l1.01121,-0.04855c0,0 2.5,0 2.5,2.5z"/><path d="M150.28375,7.76887c-3.76201,-0.418 -7.52401,-0.836 -11.28602,-1.254c-3.14746,-0.34972 -6.28283,-1.38564 -9.43669,-1.09927c-1.49407,0.13566 -2.86116,0.90364 -4.29567,1.34279c-3.04375,0.93178 -6.22014,1.48883 -9.15012,2.73295c-2.98577,1.26781 -5.55863,3.37031 -8.4997,4.73862c-1.03578,0.48189 -2.84357,0.04233 -3.24131,1.11324c-0.39774,1.07091 1.25869,1.918 1.72879,2.95917c1.25318,2.77554 1.03285,6.30889 3.00839,8.6265c0.8947,1.04962 2.46725,1.23444 3.68119,1.88908c3.57793,1.92947 7.12418,3.95071 10.62311,6.0202c4.57859,0.45728 11.67643,2.83626 15.9385,0.25339c2.13649,-1.29474 3.39584,-4.17753 4.23735,-6.28975c2.34491,-5.88582 4.2611,-12.31053 4.9113,-18.58745zM155.14359,8.01291c0.392,1.29612 -0.64655,2.39441 -0.64655,2.39441l-1.02217,0.3356c-0.58278,5.35756 -2.03296,9.87609 -3.66761,14.99475c-2.31943,7.26296 -4.80582,14.17138 -13.37982,15.46809c-4.24482,0.64197 -10.32902,-1.1006 -14.54208,-1.60757c-3.86953,-2.09325 -7.7346,-4.21235 -11.54007,-6.42013c-1.69169,-0.98145 -3.77028,-1.51721 -5.03901,-3.00562c-0.27255,-0.31975 -3.63664,-9.3085 -3.89584,-10.144c-0.65711,-2.11813 -2.49546,-4.34712 -1.72333,-6.42607c0.77214,-2.07896 3.61981,-2.56753 5.50026,-3.74319c5.99653,-3.74904 11.90623,-5.90238 18.63983,-7.88948c1.75832,-0.51889 3.45594,-1.36783 5.28172,-1.53361c0.32749,-0.02974 9.83343,1.04186 10.44099,1.10936c4.96942,0.55216 9.93884,1.10432 14.90826,1.65647c0,0 2.48471,0.27608 2.20863,2.76079c-0.1408,1.26718 -0.85604,1.81631 -1.52319,2.0502z"/><path d="M329.65278,1.8804c-4.24162,3.83382 -8.81346,7.32338 -13.14553,11.11464c-0.55769,0.48807 -7.65417,6.72587 -8.02229,6.92354c-3.87972,2.08322 -10.23809,2.54636 -14.52012,3.58029c-6.22199,1.50235 -13.10094,4.13078 -18.99782,-0.17297c-5.71013,-4.16745 -10.47672,-10.53911 -14.67684,-16.13926c0,0 -1.5,-2 0.5,-3.5c2,-1.5 3.5,0.5 3.5,0.5c3.90702,5.20936 8.23557,10.92456 13.41525,14.95583c4.41216,3.43392 10.48656,0.60661 15.08585,-0.50392c3.24022,-0.78237 6.47409,-1.59148 9.72065,-2.34712c1.22148,-0.2843 2.57132,-0.21445 3.67356,-0.81271c2.75493,-1.49528 4.67005,-4.18264 7.02924,-6.24655c2.52973,-2.2131 4.80396,-4.71574 7.4082,-6.84065c1.95402,-1.59437 4.18943,-2.84231 6.04279,-4.55265l4.19053,1.84177c0,0 0,1.53556 -1.20346,2.19977z"/></g></g></svg>