<svg version="1.1" xmlns="http://www.w3.org/2000/svg" xmlns:xlink="http://www.w3.org/1999/xlink" width="267.06071" height="263.26939" viewBox="0,0,267.06071,263.26939"><g transform="translate(-106.46965,-48.36531)"><g data-paper-data="{&quot;isPaintingLayer&quot;:true}" fill="#9966ff" fill-rule="nonzero" stroke="none" stroke-width="0.5" stroke-linecap="butt" stroke-linejoin="miter" stroke-miterlimit="10" stroke-dasharray="" stroke-dashoffset="0" style="mix-blend-mode: normal"><path d="M163.98523,113.36531c-2.5,0 -2.5,-2.5 -2.5,-2.5v-2c0.0199,-1.48564 0.35807,-3.0014 0.05971,-4.4569c-0.59131,-2.88451 -2.63276,-5.27107 -3.80031,-7.97419c-0.51312,-1.18798 -0.46401,-2.72695 -1.39936,-3.62121c-0.70886,-0.67772 -1.93399,-0.32681 -2.90099,-0.49021c-4.48177,3.42194 -9.94147,5.62458 -13.52569,10.12748c-1.28652,1.61626 -3.23237,6.00704 -5.93336,5.91503c-5.35001,-0.18225 -5.42995,-8.34494 -6.3097,-11.54329c-0.17297,-0.62883 -0.26331,-1.51306 -0.86994,-1.75253c-0.87925,-0.34708 -1.87512,0.28709 -2.82036,0.29582c-1.31736,0.01216 -2.68071,-0.60249 -3.94535,-0.23335c-0.67422,0.19679 -0.89384,1.10055 -1.19667,1.73426c-0.66151,1.38429 -1.11439,2.85896 -1.67983,4.28519c-1.75876,4.43613 -3.80937,8.56654 -5.94207,12.83194c0,0 -1.11804,2.23607 -3.35411,1.11803c-2.23607,-1.11804 -1.11804,-3.35411 -1.11804,-3.35411c2.07304,-4.14608 4.03784,-8.15379 5.77183,-12.45282c1.00805,-2.49923 2.35547,-7.42314 5.40959,-8.69579c1.86433,-0.77687 4.03496,-0.24458 6.05465,-0.23335c5.1555,0.02867 5.96397,-0.7227 8.3097,4.54329c0.72357,1.62436 0.67671,3.49256 1.08833,5.22249c0.16408,0.68958 0.45934,1.34546 0.64116,2.02938c0.52067,-1.96295 3.03724,-3.90816 4.19304,-5.06293c4.06149,-4.05786 9.34753,-6.84017 14.30872,-9.68973c2.3016,0.49031 4.9847,0.11045 6.90481,1.47095c1.66805,1.1819 1.93028,3.60501 2.8417,5.43493c0.1174,0.23571 4.08742,8.69512 4.15283,9.00852c0.37752,1.80883 0.03981,3.6954 0.05971,5.5431v2c0,0 0,2.5 -2.5,2.5z"/><path d="M202.62086,105.9115c3.76424,0.78065 7.82501,1.05478 11.40766,-0.3559c1.03693,-0.40829 2.33598,-0.48808 3.06807,-1.32831c1.85844,-2.13294 0.58089,-5.49061 0.23717,-7.66614c-0.46838,-2.96451 -1.57436,-5.82631 -2.86541,-8.53571c-0.5167,-1.08434 -0.23516,-2.81454 -1.30613,-3.35843c-1.07097,-0.54389 -2.30231,0.70208 -3.48229,0.92664c-4.8819,0.92907 -9.93687,1.36165 -14.86112,2.03642c-3.30247,0.45254 -6.58253,1.12046 -9.90742,1.35761c-0.43535,0.03105 -1.06143,-0.60639 -1.28837,-0.23358c-0.56562,0.92919 -0.35308,2.14677 -0.52963,3.22015c0.06657,1.53458 0.17494,3.0679 0.1997,4.60372c0.02155,1.33582 -0.63833,2.80281 -0.06081,4.00753c0.57752,1.20472 2.13217,1.61177 3.16237,2.4624c3.4203,2.8241 5.88182,2.69973 10.29254,2.49001l2.66447,-0.10829c0.3675,-0.07446 0.70904,-0.06308 0.94021,-0.03821l0.59183,-0.02406c0,0 0.97988,-0.03983 1.73716,0.54413zM199.88213,110.4122l-2.99188,0.1216c-5.4846,0.19064 -9.51144,0.09671 -13.76764,-3.70518c-1.49182,-1.33258 -3.53433,-2.27793 -4.39903,-4.08171c-0.33629,-0.7015 -0.56189,-10.34545 -0.59373,-11.37532c0.73919,-2.1317 0.77485,-4.66043 2.21759,-6.39509c0.54546,-0.65584 8.76744,-1.61153 8.83885,-1.62131c6.58639,-0.90254 13.19896,-2.06998 19.81483,-2.71523c2.13638,-0.20836 4.51126,-1.40293 6.42512,-0.43098c1.91386,0.97195 2.3586,3.58941 3.44243,5.44221c3.2318,5.52478 6.68145,16.04102 2.00519,21.85213c-1.17217,1.45664 -3.22767,1.90277 -4.93193,2.6717c-4.93402,2.22614 -10.94904,1.45063 -16.05981,0.23719z"/><path d="M279.48296,69.75889c0.10641,2.49774 -2.39132,2.60415 -2.39132,2.60415l-2.93911,0.08958c-8.33826,3.40779 -15.21966,8.96942 -22.53239,14.04761l0.13285,0.13285l-3,3c-0.45241,0.45241 -1.07741,0.73224 -1.76777,0.73224c-0.72879,0 -1.38475,-0.31185 -1.84171,-0.80939c-1.54077,8.28445 -3.24835,16.53866 -4.69633,24.74385c0,0 -0.43446,2.46196 -2.89642,2.0275c-2.46196,-0.43447 -2.0275,-2.89643 -2.0275,-2.89643c3.04557,-17.25827 7.29122,-34.75691 8.59675,-52.27871c-0.15065,-1.72421 -0.19297,-3.43089 0.29127,-5.05235c0.02011,-0.50191 0.03749,-1.00382 0.05202,-1.50573l0.02195,-3.74155c0.00689,-1.37482 1.12353,-2.48719 2.49997,-2.48719c1.38071,0 2.5,1.11929 2.5,2.5v5c0.65188,3.26897 0,6.66666 0,10c0,5.34462 0,10.68925 0,16.03386c0.95903,-0.73068 2.07993,-1.29159 3.05362,-2.00669c6.77446,-4.97539 12.69627,-9.23647 20.56385,-12.32839l3.77612,-0.19651c0,0 2.49774,-0.10641 2.60415,2.39132z"/><path d="M318.48522,108.87015c-0.00484,2.49999 -2.50484,2.49515 -2.50484,2.49515l-2.27622,-0.00441c-2.87679,-0.01098 -7.65787,0.10441 -10.47375,-0.46459c-6.44215,-1.30175 -12.28707,-4.48927 -17.39248,-8.64198c-1.61607,0.06772 -3.23322,0.11042 -4.85271,0.11099c0,0 -2.5,0 -2.5,-2.5c0,-1.86902 1.39729,-2.34074 2.10262,-2.45981c-2.10239,-2.1856 -4.03597,-4.50602 -5.78671,-6.8705c0.46463,-1.37953 3.21868,-10.11731 4.37105,-11.391c1.17312,-1.29662 3.11111,-1.5979 4.6858,-2.35802c1.46378,-0.70658 9.37148,-4.40251 10.48918,-4.39434c0.87229,0.00637 6.9358,5.57879 7.04454,5.67474c2.49946,2.20541 5.04367,4.36112 7.49838,6.61622c2.87279,2.63918 6.89877,4.56897 4.22638,9.48954c-0.41543,0.76491 -7.99674,4.48636 -8.56709,4.77297c-1.64157,0.82492 -3.16275,1.9716 -4.93592,2.45228c-1.77318,0.48068 -3.66523,0.25928 -5.49867,0.37638c-0.0641,0.0041 -0.1282,0.0082 -0.19229,0.0123c3.16067,1.94354 6.564,3.44424 10.30438,4.21052c2.24979,0.46091 7.28603,0.3575 9.4946,0.36432l2.2686,0.0044c0,0 2.5,0.00485 2.49515,2.50484zM287.60387,97.14901c2.07107,-0.11545 4.14149,-0.2561 6.2173,-0.36661c1.49422,-0.07955 3.03985,0.18066 4.48407,-0.21084c3.05277,-0.82756 5.54411,-3.06217 8.43291,-4.35023c0.67502,-0.30097 1.50311,-0.24956 2.11584,-0.66286c1.25065,-0.8436 -2.11656,-2.15677 -3.27201,-3.12668c-1.27654,-1.07156 -2.49946,-2.2054 -3.74919,-3.3081c-2.49946,-2.2054 -5.14566,-4.25491 -7.49838,-6.61622c-0.32182,-0.323 -0.26304,-1.25284 -0.71113,-1.1685c-1.19808,0.2255 -2.0485,1.32927 -3.13021,1.89153c-1.47882,0.76868 -3.01211,1.42898 -4.5398,2.09529c-1.03809,0.45277 -2.4062,0.41116 -3.15501,1.26082c-1.71956,1.95116 -1.86956,4.86457 -3.05676,7.17854c2.51357,2.50906 5.10641,5.05667 7.86236,7.38387z"/><path d="M160.48523,155.86531c0,2.25566 -2.03521,2.47612 -2.43303,2.49767c-0.60573,0.67955 -1.1908,1.39006 -2.00084,1.76361c-1.16674,0.53805 -2.5467,0.34266 -3.82004,0.51399c-6.01046,0.8519 -12.81509,1.61662 -18.40634,-1.56082c-6.98485,-3.96941 -15.97706,-12.70961 -11.05419,-21.37471c0.97306,-1.71276 2.14426,-3.3478 3.56183,-4.7156c1.98828,-1.91847 6.02172,-2.79263 8.36213,-3.52759c0.44543,-0.13988 9.67231,-3.03115 9.91332,-3.06793c0.23399,-0.03571 8.40246,-0.02862 9.37716,-0.02862c0,0 2.5,0 2.5,2.5c0,2.5 -2.5,2.5 -2.5,2.5c-2.8743,0 -5.78144,-0.46224 -8.62284,-0.02862c-3.17091,0.48391 -6.11325,1.94532 -9.17627,2.89756c-0.73626,0.22889 -5.34452,1.32245 -6.54827,2.50691c-7.04028,6.92746 -0.14296,14.082 6.50764,17.90969c4.65005,2.6763 10.53762,1.73873 15.49315,1.02497c1.30315,-0.04103 2.72765,-0.59067 3.57882,-1.57828l2.76776,-0.73224c0,0 2.5,0 2.5,2.5zM158.60253,157.77657l0.15046,-0.1435c-0.05079,0.04688 -0.10091,0.09477 -0.15046,0.1435z"/><path d="M181.22329,146.56784c6.38476,1.34729 12.49426,3.45972 18.71775,5.43669c1.58845,0.50459 3.1946,0.95651 4.76534,1.51378c0.67066,0.23793 1.26563,1.06337 1.9501,0.86872c1.26438,-0.35958 2.09628,-1.58848 3.18274,-2.32845c1.37752,-0.9382 2.74431,-1.90281 4.20589,-2.70378c1.00546,-0.55101 2.83092,-0.24209 3.16885,-1.33769c0.33793,-1.09561 -1.34396,-1.86884 -1.86477,-2.89026c-0.7129,-1.39816 -1.06588,-2.96622 -1.82247,-4.34122c-1.92996,-3.50738 -2.72878,-3.4209 -6.06804,-5.76131c-3.79766,-2.66169 -7.78539,-6.38688 -11.92954,-8.45595c-2.05558,-1.0263 -4.38583,-1.38048 -6.53106,-2.20309c-1.3219,0.4843 -2.62049,1.03771 -3.96569,1.45288c-1.05914,0.32688 -2.50417,-0.06387 -3.23506,0.76945c-0.8433,0.96149 -0.44031,2.52147 -0.74152,3.7644c-0.78507,3.23957 -1.6893,6.45137 -2.67644,9.63518c-0.26162,0.84381 -1.03558,1.60691 -0.92549,2.48346c0.07048,0.56116 3.06023,3.39024 3.29912,3.62689zM182.38552,151.95183c-1.63715,1.21215 -3.16805,-0.31876 -3.16805,-0.31876l-0.81087,-0.81086c-0.1992,-0.14384 -0.39449,-0.32596 -0.55483,-0.55484l-0.6343,-0.6343c-1.64396,-1.65703 -4.2973,-3.98931 -4.70088,-6.37311c-0.26308,-1.55388 0.65895,-3.08307 1.0452,-4.611c0.81692,-3.23168 1.7004,-6.44795 2.67644,-9.63518c0.60333,-1.97017 0.54934,-4.34574 1.93492,-5.87078c0.7353,-0.80931 9.93348,-3.50962 10.79925,-3.77767c1.77741,0.50919 7.56117,2.11595 8.79022,2.72959c4.35394,2.1738 8.60539,6.02084 12.57949,8.84454c4.14908,2.94802 4.9509,2.87686 7.5285,7.37011c0.68664,1.19696 4.3812,10.33844 4.12125,11.18121c-0.31581,1.02391 -8.08547,5.93803 -9.44884,6.77367c-1.72459,1.05704 -3.25186,2.65216 -5.22904,3.07913c-0.65002,0.14037 -8.74464,-2.5286 -8.88669,-2.57372c-5.34562,-1.6981 -10.60682,-3.5183 -16.04176,-4.81804z"/><path d="M276.75299,155.63307c-1.76777,1.76776 -3.53553,0 -3.53553,0l-3.16559,-3.18279c-2.71438,-4.13432 -3.91719,-8.3454 -4.55171,-13.31218c-0.09812,-0.76799 0.43141,-1.5854 0.17537,-2.31608c-0.19494,-0.55631 -0.92075,-0.73636 -1.37614,-1.11065c-1.94776,-1.60084 -4.14462,-2.94989 -5.80989,-4.84286c-0.04974,-0.05653 -0.09834,-0.13511 -0.1449,-0.2281c0.26952,1.90118 -0.11038,3.93794 -0.4274,5.84c-0.80453,4.82715 -1.40035,9.3631 -2.66092,13.841c0.00106,0.00628 0.00211,0.01256 0.00317,0.01884l-0.00967,0.00421c-0.01201,0.04259 -0.02409,0.08518 -0.03622,0.12776l0.0575,-0.00371l0.02563,0.3968h0.18855v3c0,1.38071 -1.11929,2.5 -2.5,2.5c-1.33295,0 -2.42224,-1.04318 -2.49601,-2.35769l-0.20154,-3.12044c-0.67163,-3.99468 -0.27763,-9.15469 -3.73237,-11.97118c-2.13968,-1.74438 -3.51758,-0.43215 -4.9282,0.83458c-0.7875,0.70717 -1.83256,1.11441 -2.54865,1.8938c-3.48937,3.79779 -3.34667,7.1065 -2.61835,11.86738c0,0 0.35356,2.47487 -2.12132,2.82843c-2.47487,0.35356 -2.82843,-2.12132 -2.82843,-2.12132c-0.24312,-1.80761 -0.83674,-3.60211 -0.72937,-5.42284c0.34608,-5.86865 3.35902,-9.31413 7.56237,-12.81599c0.9265,-0.77188 1.55298,-2.00925 2.68517,-2.42443c2.03478,-0.74616 6.6552,-0.11453 8.38663,1.25901c1.29905,1.03054 2.25191,2.1577 2.96642,3.3611c0.35951,-2.53708 0.77834,-5.06192 1.42566,-7.44928c0.56972,-2.10118 0.23976,-5.17594 2.18418,-6.1551c1.77092,-0.89179 3.78244,1.28223 5.48956,2.29078c1.82162,1.07619 7.84941,5.78146 8.81397,8.04648c0.48167,1.13107 -0.00285,2.46754 0.17537,3.68392c0.55985,3.82103 1.28645,7.51744 3.44828,10.68782l2.83441,2.81721c0,0 1.76776,1.76776 0,3.53553z"/><path d="M281.5205,111.40888c2.45643,-0.46473 2.92115,1.99169 2.92115,1.99169c2.16874,11.46332 4.83127,25.53668 7,37c0,0 0.46473,2.45642 -1.99169,2.92115c-2.45642,0.46473 -2.92115,-1.99169 -2.92115,-1.99169c-2.16873,-11.46332 -4.33748,-22.92664 -6.50621,-34.38996l-0.49379,-2.61004c0,0 -0.46473,-2.45642 1.99169,-2.92115z"/><path d="M278.48523,107.86531c0,-1.38071 1.11929,-2.5 2.5,-2.5c1.38071,0 2.5,1.11929 2.5,2.5c0,1.38071 -1.11929,2.5 -2.5,2.5c-1.38071,0 -2.5,-1.11929 -2.5,-2.5z"/><path d="M334.95537,152.1694c-2.30409,0.97015 -3.27423,-1.33394 -3.27423,-1.33394l-0.23886,-0.5673c-1.94018,-4.60793 -3.90327,-9.20715 -5.82085,-13.82453c-0.86139,-2.07416 -1.10959,-4.29364 -3.09797,-5.55022c-1.91037,-1.20727 -3.83234,-1.88705 -5.93868,-2.56038c-0.41976,-0.13419 -0.92057,-0.60795 -1.27569,-0.34701c-0.41747,0.30675 -0.13318,1.03792 -0.32145,1.52055c-0.60091,1.54044 -1.35743,3.01555 -2.03622,4.52329c-2.04053,4.53249 -4.02482,8.90669 -5.59448,13.62602c0,0 -0.79057,2.37171 -3.16228,1.58114c-2.37171,-0.79057 -1.58114,-3.16228 -1.58114,-3.16228c1.62936,-4.87789 3.66873,-9.41165 5.77871,-14.09761c0.2669,-0.59275 3.21097,-7.62362 4.26914,-8.23252c2.33236,-1.34212 6.09307,-0.12236 8.28057,0.811c2.61137,1.11422 5.52076,2.35463 7.11791,4.91473c3.45425,5.5369 5.45481,12.83501 7.99061,18.85753l0.23886,0.56729c0,0 0.97015,2.30409 -1.33394,3.27424z"/><path d="M344.9051,168.25206c-1.38675,-2.08013 0.69337,-3.46688 0.69337,-3.46688l3.66229,-2.3126c1.25592,0.02767 2.55725,0.41884 3.76775,0.08303c1.51094,-0.41915 2.07341,-2.35615 3.18894,-3.45807c1.34949,-1.33301 2.48958,-2.96416 3.52463,-4.70972c-3.03125,-0.44455 -6.47819,-1.69656 -7.52463,-2.75475c-1.01406,-1.02545 -2.06506,-5.75952 -2.44492,-7.31072c-0.4336,-1.7707 -1.15412,-3.49791 -1.28336,-5.31634c-0.11081,-1.5591 0.37562,-3.10344 0.57479,-4.65373c0.66836,-5.20248 -0.00404,-13.72217 6.55163,-15.95951c2.68316,-0.91572 6.88557,5.24306 7.76383,6.3043c3.18777,3.85194 6.35712,7.71935 9.53561,11.57895c0,0 1.58927,1.92982 -0.34055,3.51909c-0.10104,0.08321 -0.20116,0.15678 -0.30016,0.22148l-0.86376,3.45504l-0.04677,-0.01169c-0.01841,0.11615 -0.03936,0.23208 -0.06303,0.34778c-0.02048,0.10008 -5.03461,8.68048 -5.19482,8.95503c-2.61297,4.47786 -4.5572,8.28686 -8.35297,11.8703c-0.91862,0.86723 -1.62729,2.10076 -2.81106,2.54193c-1.32218,0.49276 -2.8215,0.05536 -4.23225,0.08303l-2.33771,1.6874c0,0 -2.08012,1.38675 -3.46687,-0.69338zM359.51979,127.87562c-0.98183,-1.19851 -2.04917,-2.33294 -2.93548,-3.60371c-0.18342,-0.26297 -0.00717,-1.16512 -0.22946,-0.93407c-1.62207,1.68597 -1.43525,4.77336 -1.67478,6.718c-0.63726,5.17369 -1.35101,7.99619 -0.05681,13.05385c0.4226,1.65152 -0.09169,3.79864 1.12973,4.98786c1.14916,1.11887 3.10928,0.79838 4.63269,1.30005c0.41116,0.13539 0.98258,0.70923 1.24608,0.36578c0.74428,-0.97011 0.68911,-2.35047 1.14657,-3.48441c0.65574,-1.62544 1.45868,-3.18755 2.18801,-4.78132l0.20808,-0.16748l-0.06603,-0.0485l2.56971,-3.49844c-2.72153,-3.30078 -5.44728,-6.59826 -8.15831,-9.9076z"/><path d="M149.81462,231.62496c1.24035,-2.17061 3.41096,-0.93026 3.41096,-0.93026l2.65878,1.51931c3.06376,1.75413 7.13048,4.27382 10.60353,5.20236c2.41437,0.64549 4.99912,-0.12018 7.49734,-0.05106c1.30776,0.03619 2.65117,0.57714 3.91703,0.24674c0.56147,-0.14655 0.53821,-1.03368 0.88385,-1.49979c0.99273,-1.33876 2.06245,-2.61904 3.12348,-3.90434c0.88593,-1.07319 2.15556,-1.8966 2.71658,-3.17012c0.37062,-0.84133 -0.07066,-1.83734 -0.106,-2.75601c-2.12584,-5.94127 -4.23109,-11.89534 -6.25357,-17.87268c-0.60542,-1.78928 -1.58452,-3.50207 -1.77607,-5.38126c-0.31563,-3.09644 1.17637,-6.11304 1.80884,-9.16059c0.21148,-1.019 2.05529,-10.14183 2.38542,-10.64837c1.07625,-1.65139 3.12429,-2.40469 4.71003,-3.57551c0.71778,-0.52997 8.35818,-5.99259 8.82749,-6.15879c1.49705,-0.53014 3.17488,-0.10295 4.76294,-0.11926c5.056,-0.05194 8.79669,0.78393 13.69019,1.93972c1.78988,0.42275 3.69594,0.51798 5.36367,1.29326c1.66773,0.77528 2.96409,2.17801 4.44613,3.26702c0,0 2,1.5 0.5,3.5c-1.5,2 -3.5,0.5 -3.5,0.5c-5.72662,-4.40387 -13.36641,-5.40744 -20.5,-5.5c-1.07966,-0.01401 -2.22404,-0.49297 -3.23706,-0.11926c-2.88896,1.06576 -4.90808,3.72388 -7.44718,5.46598c-1.12491,0.77181 -2.68243,1.09394 -3.42731,2.23687c-0.74487,1.14292 -0.41072,2.69791 -0.66263,4.03868c-0.30776,1.63801 -0.67734,3.26379 -1.01602,4.89568c-0.54224,2.6128 -2.02239,5.16881 -1.7151,7.81953c0.3583,3.09076 2.12956,5.84743 3.15174,8.78619c1.61731,4.64975 3.23542,9.29837 4.81862,13.95986c-0.03533,1.748 0.49775,3.60319 -0.106,5.24399c-0.67099,1.82354 -2.3364,3.10561 -3.53037,4.63856c-1.02413,1.31489 -2.04661,2.63229 -3.12348,3.90434c-0.83932,0.99145 -1.39983,2.44337 -2.62225,2.88283c-1.90967,0.68654 -4.05415,0.20157 -6.08297,0.24674c-2.83357,0.06308 -5.75503,0.64437 -8.50266,-0.05106c-4.02542,-1.01884 -8.51019,-3.72352 -12.0789,-5.75903l-2.65878,-1.51931c0,0 -2.17061,-1.24035 -0.93026,-3.41096z"/><path d="M225.8691,210.11313c4.87558,4.39367 10.84249,8.10706 17.12004,9.4028c1.27394,0.26295 2.51171,0.97364 3.80722,0.85652c1.43633,-0.12985 2.68131,-1.06377 4.03348,-1.56534c2.71055,-1.00545 5.58244,-1.41379 7.40519,-4.00041c0.83961,-1.19146 0.97789,-2.74759 1.53626,-4.09398c0.51043,-1.2308 1.71847,-2.30116 1.66808,-3.63265c-0.05039,-1.33149 -1.33062,-2.31016 -1.93787,-3.49618c-0.529,-1.03318 -0.71915,-2.27109 -1.46879,-3.15729c-2.03457,-2.40517 -4.98139,-3.85915 -7.4179,-5.85608c-0.55756,-0.45696 -0.95103,-1.18704 -1.63456,-1.41612c-2.95676,-0.99091 -6.17675,-0.86457 -9.25887,-1.33875c-2.07906,-0.32551 -4.12287,-0.8716 -6.1366,-1.48264c-0.67181,-0.20385 -1.61441,-1.06719 -2.04317,-0.51127c-0.70971,0.92019 -0.05667,2.33088 -0.2447,3.47766c-0.43463,2.65087 -1.52158,5.18003 -1.82774,7.84879c-0.17769,1.54886 0.4388,3.24039 -0.17424,4.67382c-0.72204,1.68829 -2.12114,2.95491 -3.42583,4.29112zM221.19116,207.44444c0.26576,-0.4041 0.54628,-0.79698 0.86071,-1.16411c0.76688,-0.89541 2.15806,-1.28865 2.62366,-2.37174c0.43847,-1.02 -0.27498,-2.22051 -0.17424,-3.32618c0.26084,-2.863 1.14633,-5.63953 1.92367,-8.4073c0.59296,-2.11127 0.33413,-4.84466 2.0039,-6.26625c2.76493,-2.35398 8.96652,0.49972 12.0528,0.96495c0.88298,0.13584 9.98208,1.51041 10.50856,1.7024c1.08119,0.39427 1.84225,1.3801 2.74806,2.08998c0.52632,0.41247 7.96714,6.35974 8.19947,6.63783c0.63551,0.76065 4.49162,9.41721 4.49804,9.58697c0.07579,2.00259 -1.2991,3.79258 -2.01623,5.6639c-0.67139,1.75195 -1.02226,3.70168 -2.14806,5.20257c-2.82215,3.76245 -5.64771,4.28694 -9.73295,5.74862c-1.78115,0.63729 -3.4798,1.68876 -5.36446,1.85209c-1.74378,0.15112 -3.44833,-0.60411 -5.16621,-0.93946c-7.18221,-1.40207 -13.93759,-5.62628 -19.47619,-10.59796c-0.52787,0.40276 -1.92105,1.20551 -3.31422,-0.18767c-1.76777,-1.76777 0,-3.53553 0,-3.53553l0.21682,-0.19517c-0.02665,-0.54876 0.15515,-1.1768 0.78318,-1.80483c0.32834,-0.32834 0.65669,-0.53471 0.9737,-0.6531z"/><path d="M275.48616,210.83108c5.57865,2.9666 11.25108,6.71681 17.10818,9.02095c1.42453,0.5604 2.96984,0.74679 4.43966,1.17454c0.40533,0.11796 0.82063,0.68289 1.17962,0.46079c0.93396,-0.57785 1.30746,-1.78702 2.13359,-2.51069c1.07514,-0.94179 2.73627,-1.25099 3.52299,-2.44429c0.7101,-1.0771 0.49414,-2.53717 0.60836,-3.82221c0.39867,-4.48558 -1.6633,-8.35858 -3.02732,-12.54112c-0.67807,-2.07918 -2.23454,-3.77937 -3.61811,-5.47304c-0.67126,-0.82172 -0.9069,-2.16658 -1.89254,-2.55941c-1.22681,-0.48895 -2.63539,0.18611 -3.95536,0.22872c-2.48903,0.08034 -4.97191,0.43739 -7.41261,0.93203c-3.0505,0.58637 -5.50186,0.56166 -7.90747,2.78748c-1.979,1.8311 -1.20022,4.50689 -1.17991,6.78049c0.02371,2.65515 0.00545,5.3105 0.00094,7.96578zM273.33127,215.34827c-0.10967,0.01117 -0.22492,0.01704 -0.34604,0.01704c-2.5,0 -2.5,-2.5 -2.5,-2.5v-1c0,-5.7418 -1.90543,-14.74322 2.57712,-19.24746c1.43262,-1.43955 3.34353,-2.37209 5.2285,-3.12814c1.67469,-0.67171 3.53412,-0.73018 5.30119,-1.09527c3.56624,-0.70465 10.91326,-2.2903 14.43784,-0.80041c1.61778,0.68386 2.43407,2.53403 3.59954,3.84802c1.8756,2.1146 3.65605,4.46952 4.56525,7.14586c2.07308,6.10236 5.79801,14.24119 1.90559,20.61033c-0.99378,1.62612 -3.02092,2.32621 -4.47701,3.55571c-1.32643,1.12001 -2.26274,2.82443 -3.86641,3.48931c-1.42458,0.59064 -8.46641,-1.53334 -8.98399,-1.73482c-5.97176,-2.32458 -11.76,-6.12529 -17.44157,-9.16017z"/><path d="M369.2944,216.99511c-2.12981,1.30917 -3.43898,-0.82063 -3.43898,-0.82063l-0.23916,-0.38908c-2.61801,-4.25906 -5.26944,-8.50002 -7.85503,-12.77883c-0.75979,-1.25735 -1.23516,-2.72628 -2.24679,-3.79155c-2.76874,-2.91555 -6.99356,-1.84971 -10.52921,-1.84971c-4.37654,0 -9.74157,-0.84276 -14.04329,-0.1903c-1.51436,0.22969 -1.17212,2.84248 -1.53977,4.32938c-1.53865,6.22278 -4.99611,12.98482 -4.91693,19.36092c0,0 0,2.5 -2.5,2.5c-2.5,0 -2.5,-2.5 -2.5,-2.5c0.06534,-6.88282 3.26147,-13.97767 5.08307,-20.63908c0.80215,-2.93339 0.86914,-6.3915 4.46023,-7.67062c1.87141,-0.66658 3.97043,-0.1558 5.95671,-0.1903c3.33283,-0.05789 6.66667,0 10,0c5.49819,0 9.58373,-0.93423 14.04572,3.29525c1.35325,1.28273 2.00278,3.1458 2.98989,4.72767c2.64673,4.24142 5.23695,8.51965 7.85503,12.77883l0.23916,0.38908c0,0 1.30917,2.12981 -0.82063,3.43898z"/><path d="M324.77579,266.4936c2.37171,0.79057 1.58114,3.16228 1.58114,3.16228l-1,3c-1.98395,5.61487 -6.2612,8.40569 -10.77712,12.13486c-9.877,8.15626 -21.57823,17.46384 -34.42151,19.82622c-9.84591,1.74873 -19.69182,3.49745 -29.53773,5.24618c-0.83695,0.14865 -10.10202,1.82564 -10.57442,1.77022c-0.47239,-0.05543 -9.09766,-3.83149 -9.87747,-4.16983c-4.58686,-1.99015 -9.17373,-3.98029 -13.76059,-5.97044c-0.42551,-0.18462 -9.29573,-4.02387 -9.50298,-4.15331c-2.81714,-1.75948 -4.72885,-4.75956 -7.57109,-6.4782c-1.31027,-0.79229 -2.85151,-1.11671 -4.27727,-1.67506c0,0 -2.32119,-0.92848 -1.39272,-3.24967c0.92848,-2.32119 3.24967,-1.39272 3.24967,-1.39272c1.66917,0.67961 3.4653,1.10631 5.0075,2.03884c2.86257,1.73094 4.79527,4.74392 7.63256,6.51598c2.72236,1.70029 5.89997,2.52972 8.84447,3.80728c4.58686,1.99015 9.17373,3.98029 13.76059,5.97044c2.83761,1.23118 5.39786,3.43031 8.46998,3.79076c1.41704,0.16626 2.79262,-0.58731 4.19445,-0.85287c3.27508,-0.62044 6.56394,-1.16582 9.84591,-1.74873c8.20493,-1.45727 16.40985,-2.91454 24.61478,-4.37181c5.14523,-0.87561 8.3677,-2.915 12.92515,-5.41435c7.05503,-3.86905 13.006,-8.24047 19.18154,-13.33978c3.54223,-2.92491 7.85009,-5.36219 9.22288,-9.86514l1,-3c0,0 0.79057,-2.37171 3.16228,-1.58114z"/><path d="M220.48523,255.86531c0,-1.38071 1.11929,-2.5 2.5,-2.5c1.38071,0 2.5,1.11929 2.5,2.5c0,1.38071 -1.11929,2.5 -2.5,2.5c-1.38071,0 -2.5,-1.11929 -2.5,-2.5z"/><path d="M268.48523,253.86531c0,-1.38071 1.11929,-2.5 2.5,-2.5c1.38071,0 2.5,1.11929 2.5,2.5c0,1.38071 -1.11929,2.5 -2.5,2.5c-1.38071,0 -2.5,-1.11929 -2.5,-2.5z"/></g></g></svg>