<svg version="1.1" xmlns="http://www.w3.org/2000/svg" xmlns:xlink="http://www.w3.org/1999/xlink" width="371" height="242" viewBox="0,0,371,242"><g transform="translate(-56.04165,-133.67856)"><g data-paper-data="{&quot;isPaintingLayer&quot;:true}" fill-rule="nonzero" stroke-linejoin="miter" stroke-miterlimit="10" stroke-dasharray="" stroke-dashoffset="0" style="mix-blend-mode: normal"><path d="M57.04166,374.67856v-240h369v240z" fill="#59e8ff" stroke="#000000" stroke-width="2" stroke-linecap="butt"/><path d="M218.04166,344.84082l27,-29l18,30" fill="none" stroke="#04bf00" stroke-width="2" stroke-linecap="round"/><path d="M245.04166,317.84082l3,-43" fill="none" stroke="#04bf00" stroke-width="2" stroke-linecap="round"/><path d="M279.04166,284.84082l-33,16l-34,-22" fill="none" stroke="#04bf00" stroke-width="2" stroke-linecap="round"/><path d="M261.04166,264.34082c0,8.56041 -6.04416,15.5 -13.5,15.5c-7.45584,0 -13.5,-6.93959 -13.5,-15.5c0,-8.56041 6.04416,-15.5 13.5,-15.5c7.45584,0 13.5,6.93959 13.5,15.5z" fill="#27b300" stroke="#04bf00" stroke-width="2" stroke-linecap="butt"/><path d="M104.54166,181.84081c0,-1.38071 1.11929,-2.5 2.5,-2.5c1.38071,0 2.5,1.11929 2.5,2.5c0,1.38071 -1.11929,2.5 -2.5,2.5c-1.38071,0 -2.5,-1.11929 -2.5,-2.5z" fill="#ff993a" stroke="none" stroke-width="0.5" stroke-linecap="butt"/><path d="M102.04166,344.84081l20,-30l18,27" fill="none" stroke="#ff993a" stroke-width="2" stroke-linecap="round"/><path d="M121.04166,318.84081v-49" fill="none" stroke="#ff993a" stroke-width="2" stroke-linecap="round"/><path d="M144.04166,282.84081l-23,15l-27,-19" fill="none" stroke="#ff993a" stroke-width="2" stroke-linecap="round"/><path d="M134.04166,253.34081c0,9.1127 -6.49187,16.5 -14.5,16.5c-8.00813,0 -14.5,-7.3873 -14.5,-16.5c0,-9.1127 6.49187,-16.5 14.5,-16.5c8.00813,0 14.5,7.3873 14.5,16.5z" fill="none" stroke="#ff993a" stroke-width="2" stroke-linecap="butt"/><path d="M206.04166,355.84081v-131h79v131z" fill="#59e8ff" stroke="none" stroke-width="0" stroke-linecap="butt"/><path d="M87.04166,184.84081v-27h28v27z" fill="#59e8ff" stroke="none" stroke-width="0" stroke-linecap="butt"/><path d="M286.04166,341.84081l-13,-32l-23,30" fill="none" stroke="#ff0000" stroke-width="2" stroke-linecap="round"/><path d="M272.04166,309.84081l2,-44" fill="none" stroke="#ff0000" stroke-width="2" stroke-linecap="round"/><path d="M295.04166,284.84081l-24,12l-25,-16" fill="none" stroke="#ff0000" stroke-width="2" stroke-linecap="round"/><path d="M285.04166,251.34081c0,8.56041 -7.16344,15.5 -16,15.5c-8.83656,0 -16,-6.93959 -16,-15.5c0,-8.56041 7.16344,-15.5 16,-15.5c8.83656,0 16,6.93959 16,15.5z" fill="none" stroke="#ff0000" stroke-width="2" stroke-linecap="butt"/><text transform="translate(72.04166,174.84081) scale(0.5,0.5)" font-size="40" xml:space="preserve" fill="#ff000e" fill-rule="nonzero" stroke="none" stroke-width="1" stroke-linecap="butt" stroke-linejoin="miter" stroke-miterlimit="10" stroke-dasharray="" stroke-dashoffset="0" font-family="Sans Serif" font-weight="normal" text-anchor="start" style="mix-blend-mode: normal"><tspan x="0" dy="0">I da real jerry</tspan></text></g></g></svg>