<svg version="1.1" xmlns="http://www.w3.org/2000/svg" xmlns:xlink="http://www.w3.org/1999/xlink" width="278.26597" height="218.41804" viewBox="0,0,278.26597,218.41804"><g transform="translate(-156.66667,-18.63902)"><g data-paper-data="{&quot;isPaintingLayer&quot;:true}" fill="#9966ff" fill-rule="nonzero" stroke="none" stroke-linecap="butt" stroke-linejoin="miter" stroke-miterlimit="10" stroke-dasharray="" stroke-dashoffset="0" style="mix-blend-mode: normal"><path d="M156.66667,237.05706v-114.11411h166.66667v114.11411z" stroke-width="0"/><path d="M375.90128,134.81576c0,2.5 -2.5,2.5 -2.5,2.5c-16.68906,0 -34.18079,0 -51.04122,0c-1.55944,3.33279 -3.40294,9.01174 -8.19446,7.41406c-2.12291,-0.70786 -2.80318,-3.49274 -4.09287,-5.32155c-0.06204,-0.08797 -4.65335,-7.45212 -4.92966,-7.89514c-6.48359,-13.5878 -13.129,-27.10123 -19.05993,-40.94006l-0.56531,-1.31906c0,0 -0.9848,-2.29786 1.31306,-3.28266c2.29786,-0.9848 3.28266,1.31306 3.28266,1.31306l0.56531,1.31906c5.8679,13.69177 12.45579,27.05219 18.84849,40.50591c0.34675,0.55355 4.74777,7.57679 4.78536,7.6489c0.52104,0.99942 0.5201,2.26495 1.20712,3.15843c0.20877,0.27152 0.40622,-0.55574 0.55811,-0.86271c0.28031,-0.56649 0.5092,-1.15686 0.75766,-1.73824c-0.16387,0 -0.32767,0 -0.49139,0c0,0 -2.5,0 -2.5,-2.5c0,-2.5 2.5,-2.5 2.5,-2.5c1.06801,0 2.13603,0 3.20404,0c1.57092,-2.25368 4.77602,-6.83771 4.80539,-6.87974c6.3687,-9.1133 12.80028,-17.96572 20.68927,-25.8575c1.18668,-1.1871 7.29677,-7.4679 8.43838,-7.77102c1.56004,-0.41422 3.01433,1.15543 4.52149,1.73315c0,0 2.23607,1.11803 1.11803,3.3541c-1.11803,2.23607 -3.3541,1.11803 -3.3541,1.11803c-0.49484,-0.42328 -0.886,-1.5264 -1.48451,-1.26985c-1.09362,0.46877 -1.37458,1.94908 -2.16822,2.83558c-2.81048,3.13932 -5.86994,5.9341 -8.65232,9.11485c-6.46449,7.39007 -12.67711,15.3298 -18.07692,23.62239c15.67018,0 31.34035,0 47.01053,0h1.00601c0,0 2.5,0 2.5,2.5z" stroke-width="0.5"/><text transform="translate(297.40311,60.69015) rotate(12.60519) scale(0.98803,0.98803)" font-size="40" xml:space="preserve" fill="#9966ff" fill-rule="nonzero" stroke="none" stroke-width="1" stroke-linecap="butt" stroke-linejoin="miter" stroke-miterlimit="10" stroke-dasharray="" stroke-dashoffset="0" font-family="Sans Serif" font-weight="normal" text-anchor="start" style="mix-blend-mode: normal"><tspan x="0" dy="0">square</tspan></text></g></g></svg>