<svg version="1.1" xmlns="http://www.w3.org/2000/svg" xmlns:xlink="http://www.w3.org/1999/xlink" width="511.34435" height="350.70896" viewBox="0,0,511.34435,350.70896"><g transform="translate(4.31146,21.92783)"><g data-paper-data="{&quot;isPaintingLayer&quot;:true}" fill="#9966ff" fill-rule="nonzero" stroke="none" stroke-width="0.5" stroke-linecap="butt" stroke-linejoin="miter" stroke-miterlimit="10" stroke-dasharray="" stroke-dashoffset="0" style="mix-blend-mode: normal"><path d="M283.53435,-19.23337c13.30394,-0.8918 26.73867,-2.42739 40.06809,-2.6809c7.63621,-0.14524 15.49099,0.91464 23.11728,1.36738c13.3099,0.79015 26.6198,1.58029 39.9297,2.37044c29.94728,1.77783 59.89455,3.55566 89.84183,5.33349c0,0 2.49561,0.14815 2.34745,2.64376c-0.03798,0.63983 -0.23027,1.10589 -0.49525,1.44521c1.79018,-0.10361 3.58034,-0.20722 5.37052,-0.31083c4.07708,-0.23597 9.76299,0.45269 13.46051,-1.74363c0.74624,-0.44327 0.95859,-1.48292 1.63554,-2.02617c1.0478,-0.84085 2.30776,-1.37621 3.46165,-2.06432l2.40744,-0.27769c0,0 2.49561,0.14815 2.34745,2.64376c-0.14815,2.49561 -2.64376,2.34745 -2.64376,2.34745l0.41095,-0.39621c-4.28497,2.43797 -4.97642,4.73222 -10.47693,5.88927c-0.19148,0.04028 -9.91834,0.5963 -10.31393,0.61918c-8.31942,0.48151 -16.63882,0.96301 -24.95824,1.44452c-5.72125,0.33113 -12.06997,-0.21574 -17.39968,1.96706c-13.93988,5.53892 -27.87977,11.07783 -41.81965,16.61676c-4.52679,1.79869 -9.24738,4.24457 -13.93988,5.53892c-1.03317,0.28498 -2.70224,-0.63149 -3.19953,0.31792c-0.42533,0.81201 1.54495,1.04266 2.10798,1.76601c1.02372,1.31522 1.72921,2.84972 2.59381,4.27459c5.18762,8.54918 10.37525,17.09837 15.56288,25.64755c18.15669,29.92214 36.31338,59.84428 54.47007,89.76643c5.86872,9.77556 7.55133,22.48012 10.48282,33.4768c6.01031,22.54597 12.02061,45.09193 18.03092,67.6379c2.14654,8.05213 4.29308,16.10427 6.43961,24.15639c0.35763,1.34153 2.80707,10.15942 2.56036,11.00598c-0.2467,0.84656 -7.04982,6.96805 -8.07216,7.90742c-0.66571,0.61169 -7.55139,6.98674 -8.01614,7.19906c-1.75089,0.79991 -3.81232,0.53773 -5.72218,0.77838c-3.30719,0.4167 -6.62343,0.75802 -9.93514,1.13703c-8.24309,0.94338 -16.7639,2.63127 -25.05382,2.85787c-0.14291,0.00391 -9.92164,-0.57962 -10.19889,-0.59607c-34.93849,-2.07414 -69.87698,-4.14827 -104.81546,-6.22241c-13.20812,-0.7841 -26.5463,-2.19829 -39.77435,-2.36606c-3.2367,-0.04105 -4.66237,0.79879 -8.30677,0.51119c-4.38864,-0.34633 -9.37252,-2.54685 -13.60717,-3.71385c-0.2997,-0.0826 -9.72195,-2.6753 -9.87194,-2.73285c-9.25593,-3.55122 -18.18192,-9.08092 -27.05374,-13.5184c-4.47182,-2.23671 -8.94364,-4.4734 -13.41546,-6.71011c-1.49061,-0.74557 -3.00419,-1.44687 -4.47182,-2.23671c-1.14105,-0.61408 -2.05394,-1.97455 -3.34974,-1.97262c-1.2958,0.00193 -2.20462,1.36511 -3.34385,1.98259c-1.46527,0.7942 -2.97675,1.50002 -4.46513,2.25003c-5.95059,2.99856 -11.86205,6.0988 -17.86052,9.00009c-1.77903,0.86047 -3.42008,2.19911 -5.37199,2.50793c-0.56724,0.08974 -8.80399,-2.46107 -8.80635,-2.46178c-4.67193,-1.40451 -10.33068,-2.35616 -14.72384,-4.45731c-5.8697,-2.80735 -11.46075,-7.80833 -16.83773,-11.48856c-8.25765,-5.73098 -13.61028,-15.46957 -19.54991,-23.53662c-3.95272,-5.36848 -7.90543,-10.73694 -11.85815,-16.10542c-0.29451,-0.40001 -6.01984,-8.1593 -6.1399,-8.39314c-2.2173,-4.31872 -3.28418,-10.01005 -4.78645,-14.63641c-3.08845,-9.51112 -6.1769,-19.02225 -9.26535,-28.53337c-1.54219,-4.7493 -3.54843,-9.60848 -4.68877,-14.46762c-1.14034,-4.85913 -1.50521,-10.10351 -2.23679,-15.04304c-1.70928,-11.54078 -3.41855,-23.08155 -5.12784,-34.62233c-0.73255,-4.94604 -1.4651,-9.89209 -2.19764,-14.83814c-0.46959,-3.17063 -0.42785,-6.45548 -1.37937,-9.51621c-1.36923,-4.40437 -4.42733,-8.96413 -6.4599,-13.11055c-4.4016,-8.97919 -8.8032,-17.95839 -13.20481,-26.93758c-2.74947,-5.60887 -6.25281,-11.13221 -7.41394,-17.29806c-1.01858,-5.4089 -2.95019,-15.90207 3.0088,-19.41091c0.56755,-0.33419 9.39086,-1.22259 10.08295,-1.29748c8.28496,-0.89664 16.56991,-1.79329 24.85486,-2.68993c16.57854,-1.79422 33.15412,-3.87428 49.76057,-5.38484c7.28887,-0.66301 14.59788,-1.18451 21.91287,-1.65133c-0.04116,2.03027 0.3706,3.65033 1.04239,4.94272c-7.51744,0.47618 -15.02895,1.00768 -22.51898,1.68959c-16.57244,1.50881 -33.11416,3.58432 -49.65888,5.37489c-8.28496,0.89664 -16.56991,1.79329 -24.85486,2.68993c-2.71197,0.2935 -5.62402,-0.33994 -8.15543,0.67637c-1.79387,0.72021 -1.19208,5.51613 -1.20773,5.84064c-0.13362,2.77096 0.13674,5.57055 0.64746,8.29732c1.06025,5.66078 4.461,10.86228 6.98948,16.02034c4.4016,8.97919 8.8032,17.95839 13.20481,26.93758c2.14704,4.37991 5.29943,9.17742 6.7449,13.82703c0.07516,0.24178 1.48055,9.79357 1.55082,10.26798c0.73255,4.94604 1.4651,9.89209 2.19764,14.83814c1.70928,11.54078 3.41855,23.08155 5.12784,34.62233c0.71115,4.8016 1.04988,9.90928 2.15849,14.63323c1.10861,4.72395 3.07746,9.44907 4.57658,14.06575c3.08845,9.51112 6.1769,19.02225 9.26535,28.53337c1.41875,4.36917 2.38349,9.81565 4.4789,13.89696c1.46169,2.84699 3.82076,5.13517 5.71824,7.71227c3.95272,5.36848 7.90543,10.73694 11.85815,16.10542c5.51644,7.4923 10.60924,17.16537 18.34763,22.37506c5.16004,3.53176 10.54135,8.41147 16.17099,11.10402c4.1619,1.99055 9.58263,2.84986 14.00599,4.17964c1.5961,0.47983 3.20438,0.92089 4.7883,1.43949c0.72776,0.23828 1.39193,0.98267 2.14226,0.82966c2.96427,-0.60448 5.32174,-2.88076 8.0234,-4.24215c4.46513,-2.25003 8.93026,-4.50005 13.39539,-6.75007c1.1055,-0.55707 9.29811,-4.76635 10.05155,-4.76748c2.04248,-0.00305 3.74587,1.631 5.59389,2.50078c6.02535,2.83587 11.93116,5.96769 17.88728,8.94681c8.72414,4.36362 17.50788,9.83055 26.60809,13.32202c3.03645,1.16499 6.2739,1.71669 9.40929,2.58075c3.94474,1.08711 8.7009,3.25806 12.78751,3.56011c0.50724,0.0375 6.65127,-0.55017 7.78363,-0.53712c13.33047,0.15364 26.77517,1.58468 40.08505,2.37483c34.93849,2.07414 69.87698,4.14827 104.81546,6.22241c11.65224,0.69174 22.80335,-0.91235 34.38788,-2.23815c3.31171,-0.37901 6.61868,-0.80209 9.93514,-1.13703c1.40227,-0.14162 2.93102,0.22701 4.21297,-0.35867c1.28195,-0.58567 2.00407,-1.98263 3.02912,-2.94995c2.4243,-2.28777 4.81767,-4.6143 7.3635,-6.766c0.94792,-0.80117 2.62584,-1.05001 2.97309,-2.24159c0.34725,-1.19158 -0.93429,-2.30286 -1.30341,-3.48786c-0.49566,-1.59126 -0.85862,-3.22085 -1.28793,-4.83127c-2.14654,-8.05213 -4.29308,-16.10427 -6.43961,-24.15639c-6.01031,-22.54597 -12.02061,-45.09193 -18.03092,-67.6379c-1.71723,-6.44171 -3.43446,-12.88341 -5.15169,-19.32512c-1.30033,-4.87782 -2.12653,-8.5352 -4.77445,-12.84579c-18.15669,-29.92214 -36.31338,-59.84428 -54.47007,-89.76643c-5.18762,-8.54918 -10.37525,-17.09837 -15.56288,-25.64755c-0.83376,-1.37403 -5.66736,-8.90067 -5.1677,-10.22428c0.82001,-2.1723 4.00546,-2.35956 6.09373,-3.37469c2.99789,-1.4573 6.1955,-2.46174 9.29326,-3.69261c15.48876,-6.15436 30.97752,-12.30871 46.46628,-18.46307c5.99322,-2.3238 12.57456,-1.94268 18.95708,-2.31209c3.60144,-0.20844 7.20289,-0.41688 10.80434,-0.62532c-27.73565,-1.64654 -55.4713,-3.29307 -83.20696,-4.93961c-13.3099,-0.79015 -26.6198,-1.58029 -39.9297,-2.37044c-7.5173,-0.44627 -15.27596,-1.51118 -22.80188,-1.35863c-13.22547,0.26807 -26.55194,1.78485 -39.75278,2.66974c-27.54026,1.84611 -55.08053,3.69223 -82.62079,5.53833c-0.00965,-2.34479 -0.81505,-4.30658 -1.10485,-4.93716c27.7971,-1.86333 55.59418,-3.72666 83.39128,-5.58998z"/><path d="M361.32483,47.82699c-0.01969,-0.4657 -0.04748,-0.92917 -0.08472,-1.38954c-0.83084,-0.63193 -1.18577,-1.96681 -1.18577,-1.96681l-0.4097,-2.07086c-0.60572,-1.04639 -1.21144,-2.09278 -1.81716,-3.13917c0,0 -1.60616,-2.77467 0.317,-5.3398c1.92316,-2.56515 3.52932,0.20952 3.52932,0.20952c0.60572,1.04639 1.21144,2.09278 1.81716,3.13917l0.58371,1.94339c1.38262,0.40309 1.74872,2.70747 1.74872,2.70747c1.78842,11.73641 0.41376,29.16175 -3.45615,40.32771c-1.54582,4.46021 -3.98084,8.12526 -5.89803,12.26366c-2.80693,6.05897 -4.91187,13.45131 -7.29011,19.90092c-5.53601,15.01321 -11.10065,29.78749 -15.80512,45.38766c-1.93733,6.42427 -4.95982,13.67858 -6.19644,20.42988c-2.21893,12.11424 -0.3558,25.7476 -2.77994,37.81219c-1.40773,7.00612 -4.95575,14.65258 -7.19984,21.22335c-2.34002,6.85168 -4.65964,13.7194 -7.02042,20.55605c-0.86467,2.50404 -1.45412,5.26729 -2.61471,7.49696c-0.20585,0.39548 -7.6285,10.11034 -8.09667,10.72492c-5.44763,7.15134 -10.67432,14.31205 -16.65074,20.41839c-13.53928,2.2337 -27.03746,4.05342 -40.55243,6.86863c-4.98946,1.03932 -9.98065,2.195 -14.97618,3.11958c-1.96618,0.3639 -4.00896,1.65305 -5.90359,0.97672c-0.57403,-0.20491 -7.99143,-8.17838 -8.8136,-9.05229c-5.32968,-5.66511 -10.65935,-11.3302 -15.98904,-16.99531c-0.22702,-0.24131 -7.74349,-8.2019 -7.94607,-8.53246c-1.21009,-1.97437 -1.90964,-4.55524 -2.86446,-6.83286c-4.30005,-10.45799 -8.60009,-20.916 -12.90015,-31.374c-2.43204,-5.91489 -6.46418,-12.94303 -7.96654,-19.54526c-0.59048,-2.59492 -0.45044,-5.49547 -0.66197,-8.24667c-0.57311,-7.4543 -1.09148,-14.92358 -1.63717,-22.38462c-1.63717,-22.38462 -3.27434,-44.76924 -4.91152,-67.15386c-1.58521,-21.67409 -4.23988,-43.72335 -4.79166,-65.58331c-0.38001,-15.05514 0.32913,-30.44735 0.4949,-45.55556c0.02433,-2.21743 0.00502,-4.40074 -0.03819,-6.56743c1.75574,-0.07948 3.51028,-0.33469 5.29085,-0.90893c-0.06351,4.93636 -0.27163,9.92287 -0.32486,14.77386c-0.13654,12.44461 -0.72459,25.1276 -0.4167,37.52873c0.53867,21.69726 3.1938,43.59965 4.76722,65.11247c1.63717,22.38462 3.27434,44.76924 4.91152,67.15386c0.54568,7.46092 1.12203,14.91651 1.63717,22.38462c0.15335,2.22316 -0.04678,4.58344 0.42948,6.67641c1.38641,6.09266 5.27225,12.65237 7.51364,18.10355c4.30005,10.45799 8.60009,20.916 12.90015,31.374c2.65122,6.60235 5.36949,8.8978 9.53685,13.32744c5.32968,5.66511 10.65935,11.3302 15.98904,16.99531c1.33242,1.41628 2.68355,2.79458 3.99726,4.24883c1.07859,1.19397 1.86008,3.22366 3.17818,3.69418c1.31809,0.47053 2.71677,-0.78089 4.08053,-1.103c4.97936,-1.17608 9.98785,-2.08051 14.97618,-3.11958c13.1446,-2.73806 26.26969,-4.99129 39.46548,-6.45677c5.28002,-5.78504 10.07039,-12.47011 14.99619,-18.93641c2.45451,-3.22215 5.3864,-5.75297 7.39474,-9.61129c0.95209,-1.82909 1.36937,-4.14345 2.06557,-6.20709c2.31704,-6.868 4.68042,-13.70444 7.02042,-20.55605c2.09499,-6.13421 5.52551,-13.34176 6.841,-19.88875c2.40057,-11.94732 0.53527,-25.56643 2.74415,-37.62578c1.30958,-7.14967 4.42506,-14.79135 6.47811,-21.59934c4.76409,-15.79786 10.39253,-30.7628 15.99831,-45.96522c2.46935,-6.69669 4.6738,-14.2904 7.5762,-20.59212c1.76969,-3.84239 4.08812,-7.17416 5.51897,-11.30894c2.42964,-7.02101 2.70342,-14.37956 3.11779,-21.89447l-0.00004,0c-0.7354,-0.33965 -1.205,-1.1509 -1.205,-1.1509l-0.36985,-0.88407c-0.81102,-0.74818 -1.62203,-1.49634 -2.43304,-2.24452c-11.42676,-10.54138 -24.54685,-21.95537 -38.79813,-20.989c-2.81277,0.19073 -5.50257,2.18049 -8.25805,3.24067c-4.87832,1.87697 -9.63135,3.69271 -14.40364,6.20917c-0.60554,0.31931 -9.75866,5.16636 -10.10347,5.24154c-1.70352,0.37148 -3.40333,-0.28228 -5.10358,-0.44279c-0.33559,-0.03168 -10.06487,-1.02453 -10.22749,-1.06925c-0.17869,-0.04916 -9.38269,-4.26377 -9.71573,-4.41598c-25.57574,-11.68971 -49.67754,-28.94418 -74.64082,-42.79904c1.66633,-1.97034 2.63601,-4.19652 3.16099,-6.4054c24.43387,13.71103 48.08438,30.50479 73.15154,41.96204c3.06213,1.39959 6.01778,3.35103 9.18123,4.22112c3.16346,0.87009 6.45547,0.60849 9.67894,0.96624c1.36171,0.15112 2.71565,0.79801 4.08149,0.4964c3.15686,-0.69711 6.06102,-3.27671 9.09941,-4.87642c4.91518,-2.58784 9.81147,-4.47256 14.83445,-6.40519c3.05096,-1.17388 6.04661,-3.22735 9.16104,-3.46146c15.31583,-1.15128 29.37703,10.685 41.67062,22.02605c0.50764,0.46831 1.01529,0.93662 1.52293,1.40493z"/><path d="M197.88991,84.08739c-1.6599,-1.86942 0.20952,-3.52932 0.20952,-3.52932l0.91902,-0.80616c4.10006,-4.24594 9.00002,-8.33044 12.58889,-13.00327c6.69448,-8.71642 8.35015,-21.57799 17.38695,-28.31015c1.56895,-1.16883 2.94311,-2.71656 4.76719,-3.42404c2.75619,-1.06899 5.9104,0.1876 8.86099,0.37047c3.36444,0.20853 6.74442,0.84879 9.9133,1.9982c6.25437,2.30808 12.50876,4.61616 18.76313,6.92424c0.72383,0.26712 9.42884,3.46153 9.85633,3.69714c2.34928,1.2949 3.8604,3.72585 5.77097,5.60883c2.3741,2.33982 4.7482,4.67964 7.12231,7.01946c9.62769,9.48866 18.83936,18.80476 27.32771,29.33339c0,0 1.5691,1.94626 -0.37716,3.51536c-1.94626,1.5691 -3.51536,-0.37716 -3.51536,-0.37716c-8.3694,-10.3811 -17.45089,-19.55351 -26.94492,-28.91045c-2.3741,-2.33982 -4.7482,-4.67964 -7.12231,-7.01946c-1.66046,-1.63648 -2.87723,-3.86634 -4.94181,-4.94925c-2.79646,-1.4668 -5.94429,-2.13383 -8.9068,-3.22709c-6.25437,-2.30808 -12.50876,-4.61616 -18.76313,-6.92424c-4.62856,-1.74269 -8.56568,-1.59566 -13.46975,-1.99408c-0.71042,-0.05771 -1.46735,-0.56861 -2.11968,-0.2814c-3.76471,1.6575 -6.4187,5.35754 -8.19467,8.77142c-2.31092,4.44222 -4.71649,8.83483 -7.09419,13.24142c-1.42082,2.63322 -2.46867,5.50929 -4.28294,7.88858c-3.70885,4.86393 -8.77357,9.11922 -13.02824,13.52525l-1.19599,1.0718c0,0 -1.86942,1.6599 -3.52932,-0.20952z"/><path d="M270.23035,145.32567c-2.5,-0.00265 -2.49736,-2.50263 -2.49736,-2.50263c0.00175,-1.66667 0.00808,-7.65116 0.00985,-9.31781c0.02045,-1.84125 -0.30102,-3.7184 0.06133,-5.52375c0.0624,-0.3109 3.90069,-8.80384 3.99156,-8.99603c0.85344,-1.8049 1.209,-3.98588 2.64337,-5.37461c1.26162,-1.22147 3.25604,-1.31764 4.90171,-1.93037c3.12383,-1.16309 6.29237,-2.20239 9.43855,-3.3036c1.36946,-0.47932 10.03319,-3.63357 10.92808,-3.35427c5.82641,1.81852 6.18537,10.78621 7.20833,15.43752c0.40435,1.83853 1.14179,3.64184 1.17397,5.52404c0.02129,1.24466 -0.6631,2.39992 -1.01804,3.59309c-0.95044,3.19496 -1.96305,6.37109 -2.94458,9.55665c-0.21428,0.69548 -2.95568,9.65014 -3.15335,10.04356c-1.85718,3.69629 -6.47755,7.40984 -9.19939,10.46417c-1.74499,1.13737 -6.84136,4.46848 -8.67562,5.62853c-1.60576,1.01555 -3.03333,2.42544 -4.84203,3.00715c-0.89226,0.28697 -10.70675,0.05864 -10.96377,-0.05755c-1.83731,-0.83058 -2.7864,-2.91595 -4.13632,-4.41371c-3.38579,-3.75662 -4.91968,-6.7719 -7.11207,-11.28444c-0.83576,-1.7202 -2.03098,-3.31939 -2.46071,-5.18297c-0.65729,-2.85035 0.6706,-5.8123 1.07439,-8.70947c1.32643,-9.51709 6.78347,-16.38787 12.15276,-24.12041c0,0 1.4259,-2.05349 3.47939,-0.62759c2.05349,1.4259 0.62759,3.47939 0.62759,3.47939c-4.86071,7.00011 -10.16149,13.32812 -11.30549,21.94344c-0.21939,1.65216 -0.42483,3.30645 -0.67483,4.95425c-0.11523,0.75955 -0.61541,1.52288 -0.42059,2.266c0.78312,2.98715 2.86255,5.47334 4.23332,8.24051c1.05347,2.12663 2.66876,3.93379 4.18123,5.76265c0.84165,1.01773 1.21755,2.59226 2.42096,3.13627c1.20341,0.54401 2.6335,-0.22311 3.95378,-0.2545c1.17366,-0.02791 2.40644,0.44509 3.52115,0.07675c1.36165,-0.44995 2.36299,-1.62583 3.55941,-2.41649c1.74605,-1.15388 6.29855,-4.0512 8.12726,-5.21875c2.33962,-2.67572 6.55487,-5.93592 8.09877,-9.11935c1.37797,-2.84127 1.80598,-6.05194 2.73582,-9.06973c0.98153,-3.18554 1.92667,-6.38253 2.94458,-9.55665c0.24852,-0.77496 0.83122,-1.49356 0.79982,-2.30679c-0.05599,-1.45028 -0.71607,-2.81313 -1.05199,-4.22508c-0.72642,-3.05322 -0.93469,-6.25252 -2.02813,-9.19433c-0.35024,-0.9423 -0.64568,-2.34585 -1.63291,-2.53555c-1.18003,-0.22676 -2.11766,1.14603 -3.22975,1.60113c-1.54251,0.63123 -3.14619,1.1012 -4.71928,1.65179c-3.14619,1.1012 -6.2664,2.2796 -9.43855,3.3036c-1.04628,0.33775 -2.39691,0.11876 -3.17425,0.89629c-0.94718,0.94743 -0.94118,2.50948 -1.46383,3.74301c-1.1436,2.69911 -3.09611,5.11907 -3.66246,7.99524c-0.28829,1.46406 0.03384,2.98416 0.05076,4.47624c-0.00175,1.66667 -0.00352,3.33333 -0.00527,4.99999l-0.00457,4.31782c0,0 -0.00265,2.5 -2.50263,2.49736z"/><path d="M281.90898,141.3994c-0.08182,1.37828 -1.26548,2.42928 -2.64376,2.34745c-1.37828,-0.08182 -2.42928,-1.26548 -2.34745,-2.64376c0.08182,-1.37828 1.26548,-2.42928 2.64376,-2.34745c1.37828,0.08182 2.42928,1.26548 2.34745,2.64376z"/><path d="M49.11322,227.89344c-0.41826,7.0456 -6.46894,12.41813 -13.51454,11.99986c-3.2936,-0.19553 -6.22153,-1.62185 -8.36327,-3.80528c-1.23327,7.42465 -2.31606,14.87811 -3.86214,22.24287c-0.69584,3.3145 -4.32933,6.61698 -2.96668,9.71749c4.36857,9.94034 26.02612,20.66022 33.16151,24.92364c4.75132,3.42847 8.39921,10.05932 14.25399,10.28538c6.5854,0.25426 11.59952,-6.27612 17.5746,-9.05646c7.72446,-3.59434 15.62279,-6.80521 23.49818,-10.05564c20.57877,-8.49349 26.02829,-24.44551 35.27739,-44.46295c6.89742,-14.92783 12.5056,-29.94581 20.27373,-43.62474c-8.6878,-8.50968 -17.3756,-17.01931 -26.06344,-25.52899c-11.41565,-11.18155 -20.12416,-25.8437 -33.96424,-33.83105c-6.46156,-3.72905 -14.461,-3.67762 -21.66406,-5.62019c-8.22591,-2.21836 -16.68551,-3.76113 -24.62096,-6.86204c-5.16071,-2.01663 -9.67749,-11.33144 -14.36075,-8.37057c-4.68326,2.96087 1.79431,11.03603 1.4027,16.56287c-0.60207,8.49849 -2.90692,16.78978 -4.36037,25.18462c-3.35018,19.34996 -6.7004,38.69992 -10.05058,58.04983c1.90933,-0.93105 4.07748,-1.39815 6.34913,-1.26329c7.0456,0.41826 12.41813,6.46894 11.99986,13.51454zM207.73676,166.80731c8.4852,9.55624 -1.07103,18.04139 -1.07103,18.04139l-5.40581,4.79994c-1.22162,1.04357 -2.39554,2.12357 -3.5253,3.23732c10.5235,10.30772 21.04705,20.61545 31.57055,30.92317c0,0 9.12968,8.94251 0.18723,18.0722c-8.94251,9.12968 -18.0722,0.18723 -18.0722,0.18723c-9.62501,-9.42762 -19.25001,-18.85523 -28.87498,-28.28286c-14.97691,27.8331 -20.38684,63.172 -44.45451,85.11268c-11.47911,10.46461 -28.21085,13.04538 -42.63838,18.80069c-9.73098,3.88182 -18.95919,11.5987 -29.42169,11.05476c-9.73105,-0.50589 -17.13684,-9.28047 -25.70525,-13.9207c-17.5163,-10.73632 -35.96578,-18.57689 -44.50142,-39.7868c-1.25867,-3.12763 6.67042,-45.9445 6.72513,-46.26043c4.36037,-25.18462 8.72079,-50.36929 13.08117,-75.5539c1.57642,-9.10492 8.53092,-55.2274 14.48392,-58.99102c5.84591,-3.69593 50.6785,9.68569 59.50212,12.21551c9.21022,2.64064 19.27935,3.3147 27.57787,8.10385c1.81487,1.04737 36.34927,35.0406 39.0734,37.70887c7.78165,7.6221 15.56332,15.24416 23.34497,22.86626c1.4846,-1.57179 3.04091,-3.10599 4.67709,-4.59924l5.40581,-4.79994c0,0 9.55624,-8.4852 18.04139,1.07103z"/></g></g></svg>