<svg version="1.1" xmlns="http://www.w3.org/2000/svg" xmlns:xlink="http://www.w3.org/1999/xlink" width="522.41772" height="302.35502" viewBox="0,0,522.41772,302.35502"><g transform="translate(7.53213,-4.63663)"><g data-paper-data="{&quot;isPaintingLayer&quot;:true}" fill="#9966ff" fill-rule="nonzero" stroke="none" stroke-width="0.5" stroke-linecap="butt" stroke-linejoin="miter" stroke-miterlimit="10" stroke-dasharray="" stroke-dashoffset="0" style="mix-blend-mode: normal"><path d="M445.20709,155.57052c1.76777,-1.76777 3.53553,0 3.53553,0l3.36186,3.45644c1.98574,5.8154 5.42078,9.7926 9.07911,14.7421c3.96261,5.36117 7.92521,10.72235 11.88782,16.08352c0.79722,1.07859 6.44384,8.54232 6.42843,9.36906c-0.04115,2.20702 -1.48942,5.11314 -3.6591,5.51947c-2.28719,0.42833 -4.00429,-2.38157 -5.90141,-3.72903c-6.72342,-4.77539 -12.88557,-10.70157 -19.23222,-15.97253c-15.38578,-12.77802 -30.77156,-25.55604 -46.15734,-38.33406c-5.12661,-4.25769 -10.32125,-8.4468 -15.38578,-12.77802c-1.48807,-1.27261 -3.43077,-2.18086 -4.41695,-3.87241c-0.74067,-1.27042 -0.78233,-2.80696 -0.92326,-4.30244c-4.3563,-2.24415 -8.71259,-4.4883 -13.06889,-6.73246c0,0 -2.22244,-1.14489 -1.07754,-3.36733c1.14489,-2.22244 3.36733,-1.07754 3.36733,-1.07754c3.25628,1.67748 6.51256,3.35496 9.76885,5.03244c-0.55101,-3.30416 -1.0694,-6.61515 -1.61975,-9.91726c-1.36999,-8.21995 -2.73998,-16.4399 -4.10997,-24.65985c-0.0641,-0.38461 -1.66535,-9.95716 -1.67556,-10.1645c-0.0096,-0.19477 0.73052,-9.73493 0.73946,-9.85115c0.63535,-8.25958 1.7547,-16.30268 3.0412,-24.48437c1.02753,-6.53476 1.65833,-13.30459 3.10665,-19.75725c0.49962,-2.22596 -0.05608,-5.29174 1.81325,-6.59947c1.0836,-0.75806 9.98779,1.18105 11.72742,1.52275c8.17709,1.60615 16.35417,3.2123 24.53126,4.81846c4.76775,0.93649 10.56543,1.30891 15.10951,3.00143c4.54408,1.69252 9.17272,5.20358 13.39139,7.61424c5.72549,3.27171 12.59186,6.1575 17.77902,10.21919c2.11517,1.65623 3.26515,4.26707 4.87703,6.41624c4,5.33333 8,10.66667 12,16c3.99511,5.32681 8.14316,10.57259 12,16c1.19119,1.67626 3.08613,3.08146 3.46813,5.10206c0.34382,1.81868 -0.95149,3.57828 -1.49247,5.34835c-0.4809,1.5735 -0.97457,3.14588 -1.48631,4.71328c0.87399,0.40943 1.28507,1.31381 1.28507,1.31381l1.30046,2.86102c2.04884,4.50745 4.81751,9.22877 6.31675,13.94247c0.06026,0.18947 1.77692,9.62188 1.80682,9.78553c1.19804,6.55814 2.39609,13.11627 3.59413,19.67441c1.1976,6.55574 2.48869,13.10259 3.59413,19.67441c0.32411,1.92684 1.23432,3.86613 0.90304,5.79174c-0.33129,1.92562 -1.83726,3.44922 -2.78666,5.15696c-3.23812,5.82455 -6.64287,11.56352 -9.96249,17.34211c-9.21388,16.03898 -18.3284,32.14031 -27.6865,48.09556c-14.06201,11.01115 -28.40425,21.67875 -42.61686,32.49497c-3.97884,3.02801 -7.95767,6.05603 -11.93651,9.08404c-0.37835,0.28794 -8.05796,6.14371 -8.27842,6.26345c-0.22045,0.11974 -9.31305,3.37415 -9.76055,3.53479c-4.70597,1.68932 -9.41195,3.37865 -14.11792,5.06797c-7.84329,2.81554 -15.68658,5.63108 -23.52987,8.44662c-0.86214,0.30949 -9.62569,3.491 -10.15864,3.52374c-1.66108,0.10206 -3.23534,-0.7824 -4.84588,-1.20166c-3.22582,-0.83976 -6.43176,-1.75412 -9.64764,-2.63117c-6.42663,-1.75272 -13.38333,-2.99704 -19.60453,-5.36887c-3.92399,-1.49602 -7.7887,-4.51897 -11.40639,-6.62944c-5.75842,-3.35932 -11.51684,-6.71865 -17.27526,-10.07797c-8.53058,-4.97654 -18.24597,-9.36567 -26.14995,-15.27398c-6.59689,-4.93124 -12.4134,-11.67507 -18.41239,-17.32799c-12.12979,-11.43004 -24.25959,-22.86009 -36.38938,-34.29013c-25.47367,-24.00413 -50.89874,-48.05956 -76.32996,-72.10865c-25.43012,-24.04805 -50.86025,-48.0961 -76.29037,-72.14416c-21.45777,-20.29159 -42.88505,-40.61548 -64.32445,-60.92648c0,0 -1.81488,-1.71936 -0.09552,-3.53424c1.71936,-1.81488 3.53424,-0.09552 3.53424,-0.09552c21.4383,20.30997 42.86449,40.63282 64.32116,60.92337c25.43012,24.04805 50.86025,48.0961 76.29037,72.14416c25.42908,24.04707 50.85201,48.10047 76.32354,72.10259c12.12979,11.43004 24.25959,22.86009 36.38938,34.29013c5.85837,5.52041 11.5366,12.14788 17.97699,16.96214c2.59406,1.93909 5.60309,3.24999 8.40057,4.88197c5.75842,3.35932 11.51684,6.71865 17.27526,10.07797c5.75842,3.35932 11.51684,6.71865 17.27526,10.07797c3.40656,1.9873 7.12177,4.95257 10.82099,6.33748c6.03767,2.26037 12.76154,3.45824 18.98602,5.15583c3.21588,0.87706 6.44401,1.71036 9.64764,2.63117c1.11794,0.32133 2.17404,1.11123 3.33436,1.02932c3.07532,-0.21711 5.76358,-2.19193 8.66525,-3.23355c7.84329,-2.81554 15.68658,-5.63108 23.52987,-8.44662c4.70597,-1.68932 9.41195,-3.37865 14.11792,-5.06797c3.01784,-1.08333 6.24576,-1.69208 9.06335,-3.22251c2.81758,-1.53043 5.08538,-3.9068 7.63693,-5.8486c3.97884,-3.02801 7.95767,-6.05603 11.93651,-9.08404c13.94646,-10.61367 27.74284,-21.47021 41.88866,-31.81626c8.87517,-15.85046 18.05821,-31.53413 27.10719,-47.28605c2.49062,-4.33553 4.98124,-8.67106 7.47187,-13.00658c0.83021,-1.44518 1.63643,-2.9044 2.49062,-4.33553c0.7078,-1.18585 1.96043,-2.15306 2.19458,-3.51409c0.23415,-1.36103 -0.62322,-2.69125 -0.89403,-4.04546c-0.32682,-1.63431 -0.59902,-3.27907 -0.89853,-4.9186c-0.89853,-4.9186 -1.79706,-9.8372 -2.6956,-14.7558c-1.19804,-6.55814 -2.39609,-13.11627 -3.59413,-19.67441c-0.55934,-3.06188 -0.71431,-6.22342 -1.65946,-9.189c-1.44018,-4.51885 -4.13338,-9.04781 -6.09734,-13.36852l-0.10689,-0.23515c-1.02635,2.80307 -2.13419,5.57359 -3.3549,8.28867c-4.11641,9.1557 -7.62474,18.98016 -13.23166,27.31949c-2.52803,3.76002 -6.18257,8.28407 -10.92656,9.5999c-0.48452,0.13439 -9.8669,-0.26561 -10.75795,-0.30034c-8.32701,-0.32449 -16.65403,-0.64898 -24.98104,-0.97348c-0.65747,-0.02562 -10.18656,-0.37909 -10.5313,-0.46981c-4.53232,-1.19271 -9.66023,-4.9097 -13.84328,-7.0646c-4.57333,-2.35596 -9.14665,-4.71191 -13.71998,-7.06787c1.21775,0.98442 2.4064,2.0045 3.61104,3.00497c3.84644,3.19451 7.69289,6.38901 11.53933,9.58352c15.38578,12.77802 30.77156,25.55604 46.15734,38.33406c2.5643,2.12967 5.12859,4.25934 7.69289,6.38901c2.55124,2.11883 5.61735,4.18609 8.31748,6.52278c-1.29382,-1.75466 -2.53761,-3.54811 -3.8334,-5.30124c-6.22218,-8.41824 -14.98158,-17.14876 -18.22735,-27.14805l-2.64414,-2.54956c0,0 -1.76777,-1.76777 0,-3.53553zM388.41441,122.49305c5.24813,2.70358 10.49625,5.40716 15.74438,8.11074c4.44448,2.28958 8.9046,4.55192 13.33462,6.86935c1.31695,0.68892 2.49888,1.71629 3.93621,2.09453c3.04905,0.80238 6.30306,0.1862 9.45353,0.30897c8.32701,0.32449 16.65403,0.64898 24.98104,0.97348c3.07742,0.11992 6.25916,1.30159 9.22688,0.47844c3.48415,-0.96639 6.31541,-4.84794 8.1027,-7.5553c6.12029,-9.27091 10.77698,-20.68011 14.83595,-31.04325c1.80581,-4.61048 2.99191,-9.46727 4.73017,-14.1042c0.37828,-1.00908 1.51873,-1.90719 1.2964,-2.96166c-0.26464,-1.25513 -1.72937,-1.89726 -2.53187,-2.89794c-1.04271,-1.3002 -2,-2.66667 -3,-4c-3,-4 -6,-8 -9,-12c-4,-5.33333 -8,-10.66667 -12,-16c-1.40922,-1.87896 -2.31013,-4.25457 -4.18604,-5.66785c-5.01779,-3.78033 -11.48591,-6.50363 -16.9507,-9.62637c-3.98047,-2.27456 -8.36546,-5.67187 -12.65591,-7.26992c-4.29044,-1.59805 -9.82944,-1.8971 -14.32799,-2.78072c-8.17709,-1.60615 -16.35417,-3.2123 -24.53126,-4.81846c-1.63542,-0.32123 -3.30781,-0.4917 -4.90625,-0.96369c-1.05159,-0.31052 -2.09288,-1.99686 -2.99133,-1.36833c-0.89845,0.62853 0.32873,2.18483 0.25992,3.27915c-0.41146,6.54412 -2.08753,13.276 -3.10665,19.75725c-1.26618,8.05247 -2.36997,15.96262 -2.99524,24.09119c-0.23713,3.08274 -0.88389,6.1588 -0.72961,9.2468c0.16131,3.22876 1.08095,6.37458 1.61242,9.56338c1.36999,8.21995 2.73998,16.4399 4.10997,24.65985c0.75652,4.5391 1.5881,9.07529 2.28867,13.62456z"/><path d="M282.62938,91.84525c0.92848,2.32119 -1.39272,3.24967 -1.39272,3.24967l-2.86512,1.14605c-9.14138,3.59994 -19.70026,3.13002 -29.46234,3.88095c-4.49938,0.34611 -10.07183,-0.04654 -14.43933,1.05539c-2.51164,0.6337 -5.00375,2.36457 -7.44855,3.96564c8.45338,6.59776 16.90676,13.19552 25.36014,19.79328c4.0481,3.32999 11.01416,3.43633 16.09372,4.49949c11.41922,2.39007 22.83845,4.78014 34.25767,7.17021c3.26264,0.68288 6.54163,1.29178 9.78791,2.04863c1.30313,0.30382 2.57095,1.28925 3.88202,1.02176c1.31107,-0.2675 2.0915,-1.67084 3.17145,-2.46088c1.34515,-0.98405 2.73434,-1.90644 4.1015,-2.85966c6.83584,-4.7661 13.67168,-9.5322 20.50752,-14.29831c1.36717,-0.95322 2.63473,-2.06824 4.1015,-2.85966c0.9376,-0.5059 2.95981,0.06988 3.03809,-0.99262c0.07829,-1.0625 -2.00647,-0.78934 -2.85979,-1.4272c-5.20909,-3.89379 -9.816,-9.25446 -14.55225,-13.71977c-9.7015,-9.14651 -19.403,-18.29302 -29.1045,-27.43954c-2.42537,-2.28663 -4.86783,-4.55528 -7.27612,-6.85988c-1.06279,-1.01703 -1.88504,-2.34856 -3.16254,-3.07785c-1.2775,-0.7293 -2.84214,-0.7604 -4.25825,-1.15853c-3.20893,-0.90216 -6.40426,-1.852 -9.60639,-2.778c-33.62236,-9.72301 -67.24472,-19.44602 -100.86708,-29.16903c-14.40958,-4.167 -28.81917,-8.33401 -43.22875,-12.50101c-4.75812,-1.37597 -9.75246,-2.484 -14.40958,-4.167c-1.01296,-0.36607 -1.92964,-1.83985 -2.91251,-1.39932c-1.06324,0.47656 -0.73614,2.2185 -1.24915,3.26464c-0.73383,1.49642 -1.6538,2.89414 -2.48069,4.34122c-4.96139,8.68243 -9.92278,17.36486 -14.88417,26.04729c-0.8269,1.44707 -1.6116,2.91908 -2.48069,4.34122c-0.41914,0.68586 -1.39249,1.17339 -1.38055,1.9771c0.01974,1.32836 1.01447,2.45672 1.46501,3.7065c1.69339,4.69741 3.16434,9.49302 4.74342,14.23025c0.82876,2.48627 0.86699,5.36557 2.41032,7.48371c0.85852,1.17828 2.19447,1.92003 3.27751,2.89595c3.71383,3.34652 7.37214,6.75779 11.05731,10.13587c4.91436,4.50483 9.82872,9.00966 14.74308,13.51449c2.0729,1.90016 3.773,4.29508 6.19112,5.73043c3.94187,2.33981 9.26308,3.66138 13.52506,5.36618c2.89728,1.15891 5.8454,2.19824 8.69104,3.47874c0.87779,0.39499 1.60937,1.16021 2.55325,1.34898c3.44855,0.68968 5.16003,-0.43939 8.36749,-1.53067c4.7334,-1.61045 9.47815,-3.18861 14.21704,-4.78286c9.79933,-3.29666 20.2464,-5.95151 29.90355,-9.80374c-1.30805,-1.02091 -2.61609,-2.04183 -3.92414,-3.06274c-7.8211,-6.10427 -16.80998,-11.78478 -23.91621,-18.69909c-3.00292,-2.92181 -5.30937,-7.38865 -7.73693,-10.78724c0,0 -1.4531,-2.03433 0.58124,-3.48743c2.03433,-1.4531 3.48743,0.58124 3.48743,0.58124c2.26916,3.17682 4.45609,7.52636 7.27809,10.23378c6.99092,6.70708 15.73792,12.25048 23.38274,18.21716c1.99488,1.55698 3.98977,3.11396 5.98465,4.67095c3.3241,-1.90287 6.62549,-4.6123 10.16151,-5.53785c4.679,-1.22473 10.63837,-0.87366 15.47231,-1.2455c9.14584,-0.70353 19.46639,-0.06737 27.98887,-3.53806l2.86512,-1.14605c0,0 2.32119,-0.92848 3.24967,1.39272zM222.28589,107.78964c-10.47906,4.49607 -22.03872,7.3727 -32.84011,11.00648c-4.73891,1.59425 -9.47313,3.20357 -14.21704,4.78286c-4.59976,1.53129 -6.01386,2.57016 -11.11054,1.6579c-1.2562,-0.22485 -2.28339,-1.14299 -3.45276,-1.65402c-2.79588,-1.22184 -5.66674,-2.26437 -8.49971,-3.39756c-4.53553,-1.81421 -10.14838,-3.26688 -14.32924,-5.77554c-2.66813,-1.60097 -4.61489,-4.17509 -6.90862,-6.27767c-4.91436,-4.50483 -9.82872,-9.00966 -14.74308,-13.51449c-3.68531,-3.3782 -7.39753,-6.73006 -11.05731,-10.13587c-1.37325,-1.27795 -3.01127,-2.32943 -4.09403,-3.86129c-1.754,-2.48151 -1.99763,-5.74014 -2.95859,-8.62301c-1.57977,-4.73931 -3.25761,-9.46077 -4.74342,-14.23025c-0.59727,-1.91724 -1.7627,-3.77328 -1.69726,-5.78033c0.02086,-0.63981 4.37001,-8.08637 4.49569,-8.30632c4.96139,-8.68243 9.92278,-17.36486 14.88417,-26.04729c0.79952,-1.39916 5.17356,-9.32745 6.19293,-9.75901c1.9341,-0.81882 4.13664,0.7428 6.17964,1.22998c3.24242,0.77319 6.40426,1.852 9.60639,2.778c16.01065,4.63 32.02129,9.26001 48.03194,13.89001c33.62236,9.72301 67.24472,19.44602 100.86708,29.16903c4.46268,1.29053 10.93974,2.10552 14.95453,4.39748c1.61762,0.92347 2.74987,2.51326 4.11358,3.78203c3.6603,3.40547 7.27648,6.86022 10.91419,10.28983c9.7015,9.14651 19.403,18.29302 29.1045,27.43954c3.59051,3.38511 7.59647,6.63919 10.91419,10.28983c1.56959,1.72709 4.58783,3.10523 4.41633,5.43268c-0.10824,1.46903 -7.73983,6.52199 -9.26642,7.58636c-6.83584,4.7661 -13.67168,9.5322 -20.50752,14.29831c-0.91659,0.63906 -8.48608,5.9861 -9.13306,6.11811c-1.95783,0.39946 -3.94282,-0.65403 -5.90589,-1.02687c-3.27479,-0.62197 -6.52527,-1.36575 -9.78791,-2.04863c-11.41922,-2.39007 -22.83845,-4.78014 -34.25767,-7.17021c-6.17624,-1.2927 -13.04744,-1.61607 -18.14576,-5.45187c-9.00641,-7.02939 -18.01281,-14.05878 -27.01922,-21.08817z"/><path d="M199.73011,65.7467c0,-1.38071 1.11929,-2.5 2.5,-2.5c1.38071,0 2.5,1.11929 2.5,2.5c0,1.38071 -1.11929,2.5 -2.5,2.5c-1.38071,0 -2.5,-1.11929 -2.5,-2.5z"/><path d="M438.46885,70.2512c0,-1.38071 1.11929,-2.5 2.5,-2.5c1.38071,0 2.5,1.11929 2.5,2.5c0,1.38071 -1.11929,2.5 -2.5,2.5c-1.38071,0 -2.5,-1.11929 -2.5,-2.5z"/></g></g></svg>