<svg version="1.1" xmlns="http://www.w3.org/2000/svg" xmlns:xlink="http://www.w3.org/1999/xlink" width="1099.59459" height="527.52252" viewBox="0,0,1099.59459,527.52252"><g transform="translate(234.20382,79.39595)"><g data-paper-data="{&quot;isPaintingLayer&quot;:true}" fill="#9966ff" fill-rule="nonzero" stroke="none" stroke-width="0.5" stroke-linecap="butt" stroke-linejoin="miter" stroke-miterlimit="10" stroke-dasharray="" stroke-dashoffset="0" style="mix-blend-mode: normal"><path d="M576.6709,39.71817c25.90288,1.21616 51.80576,2.43232 77.70865,3.64848c34.96149,1.64147 69.92297,3.28294 104.88446,4.92441c29.96699,1.40697 59.93398,2.81395 89.90097,4.22092l4.81999,0.2263c1.33286,0.05412 2.3968,1.15176 2.3968,2.49791c0,1.03738 -0.63184,1.92718 -1.53168,2.30556l-4.51261,2.0174c-2.79962,1.80921 -6.08616,2.72087 -9.12924,4.08131c-6.08616,2.72087 -12.17231,5.44174 -18.25847,8.16261c-19.78001,8.84283 -39.56002,17.68566 -59.34003,26.52849c-31.95233,14.28457 -63.90465,28.56914 -95.85698,42.85371c-31.95233,14.28457 -63.90465,28.56914 -95.85698,42.85371c-24.98749,11.17088 -49.97499,22.34176 -74.96248,33.51264c0.09696,0.26661 0.14985,0.55438 0.14985,0.85451c0,0.98403 -0.56853,1.83528 -1.39504,2.24318c-11.83379,6.14322 -28.05836,14.56581 -39.89215,20.70903c-4.43767,2.30371 -8.87534,4.60742 -13.31301,6.91113c-1.47922,0.7679 -2.84059,1.82714 -4.43767,2.30371l-4.39445,2.28127c-0.35504,0.19359 -0.76221,0.3036 -1.19507,0.3036c-1.38071,0 -2.5,-1.11929 -2.5,-2.5c0,-0.90048 0.47609,-1.68977 1.19028,-2.12988c5.61959,-3.58673 15.41858,-9.84097 21.03817,-13.4277c2.66019,-1.69788 5.32037,-3.39575 7.98056,-5.09363c-6.25549,0.62757 -12.51099,1.25515 -18.76648,1.88272c-10.8357,1.08708 -21.6714,2.17415 -32.5071,3.26123c-4.18391,0.69383 -8.36783,1.38766 -12.55174,2.08149c-34.52845,5.72594 -69.05689,11.45189 -103.58534,17.17783c-4.4058,0.73063 -8.8116,1.46125 -13.2174,2.19188c2.37002,1.16705 4.23543,2.96513 6.28509,4.82536c34.69575,2.09126 69.3915,4.18253 104.08724,6.27379c14.97283,0.90248 29.94565,1.80496 44.91848,2.70743c3.32729,0.20055 6.6836,0.11952 9.98188,0.60165c2.33897,0.3419 5.66397,-0.5443 6.94297,1.44362c0.84743,1.31715 -2.67479,9.80498 -3.35887,11.58358c-0.42815,1.11318 -3.67701,9.74256 -4.19473,10.24226c-1.429,1.37927 -3.70048,1.44505 -5.56957,2.11655c-4.65697,1.67309 -9.37579,3.19818 -14.08413,4.73906c5.04006,0.89239 10.04339,1.93108 14.87836,3.45278l0.0864,-0.46719l4.87329,0.90122c0.16707,0.02765 0.32854,0.07187 0.48268,0.13091c3.96265,-1.00545 7.92531,-2.0109 11.88796,-3.01635c1.78084,-0.69857 3.5679,-1.34342 5.42587,-1.37671c0.17773,-0.04509 0.35545,-0.09019 0.53318,-0.13528l4.79186,-1.21585c0.21306,-0.05907 0.43755,-0.09063 0.66941,-0.09063c1.38071,0 2.5,1.11929 2.5,2.5c0,1.16512 -0.79704,2.14409 -1.87562,2.4214l-4.7601,1.33969c-2.97302,1.50741 -6.41735,1.80611 -9.62603,2.70916c-5.73598,1.61434 -11.47196,3.22868 -17.20794,4.84302c2.70581,-0.61369 5.41162,-1.22738 8.11742,-1.84107c6.50154,-1.47458 13.00309,-2.94915 19.50463,-4.42373c3.25077,-0.73729 6.42022,-2.12107 9.75232,-2.21187l4.82317,-1.09392c0.19401,-0.0483 0.39699,-0.07394 0.60595,-0.07394c1.38071,0 2.5,1.11929 2.5,2.5c0,1.19411 -0.83718,2.19268 -1.95663,2.44078c-0.53678,0.13121 -4.5892,1.12181 -5.12598,1.25302c-1.93756,1.07162 -4.21205,1.30613 -6.47006,1.58157c-31.3055,7.65246 -62.611,15.30491 -93.9165,22.95737c-1.0078,0.24635 -2.01561,0.4927 -3.02341,0.73906c0.9409,0.81085 1.88024,1.62343 2.81765,2.43813c2.4783,2.15387 7.85515,5.74043 5.20403,10.4375c-1.14215,2.02359 -4.43921,1.39196 -6.70504,1.90716c-3.25037,0.73905 -6.59291,0.98894 -9.88936,1.4834c-16.48227,2.47234 -32.96455,4.94468 -49.44682,7.41702c-34.61277,5.19192 -69.22554,10.38383 -103.83832,15.57575c-2.36157,0.35423 -4.72313,0.70847 -7.0847,1.0627c-14.7249,4.93114 -29.44979,9.86228 -44.17469,14.79341c-6.32161,2.11701 -12.64322,4.23402 -18.96482,6.35102c-3.1608,1.0585 -6.17572,2.75492 -9.48241,3.17551l-4.68588,1.56923c-0.26512,0.09574 -0.55107,0.14793 -0.84921,0.14793c-1.38071,0 -2.5,-1.11929 -2.5,-2.5c0,-1.1165 0.7319,-2.06206 1.7421,-2.38305c0.0462,-0.01588 4.76604,-1.63833 4.81224,-1.65421c2.11113,-1.52973 4.81826,-1.92417 7.4061,-2.54585c2.21353,-0.7609 4.42707,-1.5218 6.6406,-2.28271c9.33983,-3.21057 19.098,-5.9051 28.21557,-9.69328c0.24871,-0.10333 0.49711,-0.20793 0.74521,-0.31373c-0.45918,0.06888 -0.91837,0.13776 -1.37755,0.20663l-2.48975,0.37346c-0.13488,0.02252 -0.27341,0.03423 -0.41467,0.03423c-1.38071,0 -2.5,-1.11929 -2.5,-2.5c0,-1.18683 0.82701,-2.1805 1.93619,-2.43616l4.79539,-1.21674c3.02102,-1.40874 6.4619,-1.63959 9.69286,-2.45938c1.66999,-0.42373 3.33998,-0.84746 5.00997,-1.27119c0.35126,-0.53102 0.89979,-0.92012 1.54114,-1.06285l4.80558,-1.17928c1.48472,-0.69236 3.07392,-1.08795 4.69058,-1.40554c13.34466,-6.67583 26.68933,-13.35166 40.03399,-20.02749c8.78422,-4.39441 17.56843,-8.78882 26.35265,-13.18323c-26.03335,4.05437 -52.06671,8.10875 -78.10006,12.16312c-33.06914,5.15011 -66.13829,10.30022 -99.20743,15.45034c-15.29559,8.31141 -30.59117,16.62282 -45.88676,24.93423c-19.0376,10.34477 -38.0752,20.68954 -57.1128,31.03431c-5.85772,3.18301 -11.71545,6.36601 -17.57317,9.54902c-2.92886,1.5915 -5.60813,3.77024 -8.78658,4.77451l-4.3524,2.36503c-0.3642,0.20722 -0.78554,0.32557 -1.23452,0.32557c-1.38071,0 -2.5,-1.11929 -2.5,-2.5c0,-0.91103 0.4873,-1.70824 1.21547,-2.1452c11.31837,-7.04785 26.84419,-16.71564 38.16256,-23.7635c20.91647,-13.0245 41.83293,-26.049 62.7494,-39.07351c-11.14964,1.73642 -22.29928,3.47284 -33.44892,5.20926c-6.58726,1.02588 -13.17452,2.05177 -19.76178,3.07765c-3.29363,0.51294 -6.54773,1.57281 -9.88089,1.53883l-3.86529,0.60197c-15.16665,5.78029 -30.33329,11.56059 -45.49994,17.34088c-32.70526,12.46459 -65.41052,24.92918 -98.11578,37.39377c-10.57177,4.0291 -21.14354,8.0582 -31.71531,12.0873c-1.47548,0.78238 -2.97033,1.4848 -4.57286,1.7428c-0.36309,0.13838 -0.72618,0.27676 -1.08928,0.41514l-4.20741,1.60352c-0.29127,0.11886 -0.60998,0.18436 -0.94399,0.18436c-1.38071,0 -2.5,-1.11929 -2.5,-2.5c0,-1.05915 0.65864,-1.96446 1.58869,-2.3287l4.55932,-1.90711c2.7689,-1.85589 6.1503,-2.5726 9.22545,-3.85889c6.1503,-2.5726 12.3006,-5.14519 18.4509,-7.71779c19.98848,-8.36094 39.97695,-16.72188 59.96543,-25.08281c30.3233,-12.68387 60.6466,-25.36774 90.9699,-38.05161c-3.66857,0.64101 -7.33714,1.28203 -11.00572,1.92304c-5.46829,2.2135 -10.93659,4.427 -16.40488,6.6405l-4.58234,1.85487c-0.30369,0.13117 -0.63855,0.20385 -0.99039,0.20385c-1.38071,0 -2.5,-1.11929 -2.5,-2.5c0,-0.4511 0.11948,-0.8743 0.32851,-1.23967l0.44718,-0.81808c-16.58378,2.8977 -33.16756,5.79541 -49.75134,8.69311c-11.39813,1.99161 -22.79626,3.98322 -34.19439,5.97483c-1.447,0.4359 -2.89851,0.78322 -4.36869,0.76335c-0.27998,0.04892 -0.55996,0.09784 -0.83993,0.14676l-4.87778,0.8523c-0.15469,0.02994 -0.31447,0.04563 -0.47791,0.04563c-1.38071,0 -2.5,-1.11929 -2.5,-2.5c0,-1.21945 0.8731,-2.23498 2.02828,-2.45556l4.84431,-1.02732c3.06641,-1.30699 6.52163,-1.38302 9.78245,-2.07453c6.52163,-1.38302 13.04327,-2.76604 19.5649,-4.14906c21.19531,-4.49482 42.39062,-8.98963 63.58592,-13.48445c0.80553,-0.17083 1.61106,-0.34165 2.41659,-0.51248c3.38907,-6.85408 7.45354,-13.44414 11.10555,-20.12525c10.39215,-19.01178 20.78431,-38.02355 31.17646,-57.03533c3.46107,-6.33181 6.92215,-12.66363 10.38322,-18.99544c-0.42662,-1.30313 -0.75421,-2.36697 -0.86714,-2.7958c-0.48045,-1.82448 -1.97365,-3.82042 -1.18535,-5.53452c0.50171,-1.09093 8.31843,-5.3578 9.79619,-6.1952c0.09474,-0.05369 0.18949,-0.10738 0.28423,-0.16106c0.3978,-0.72776 0.79561,-1.45551 1.19341,-2.18327c-10.23955,-0.61718 -20.4791,-1.23436 -30.71865,-1.85155c-27.30629,9.06015 -54.61257,18.1203 -81.91886,27.18045c-33.21919,11.02204 -66.43838,22.04407 -99.65758,33.06611c-9.4912,3.14915 -18.9824,6.29831 -28.47359,9.44746l-3.06971,1.01852c-0.26329,0.09424 -0.54699,0.14558 -0.84268,0.14558c-1.38071,0 -2.5,-1.11929 -2.5,-2.5c0,-1.05639 0.65521,-1.95974 1.58142,-2.32584l4.55349,-1.9212c2.7715,-1.85201 6.14233,-2.59156 9.2135,-3.88734c6.14233,-2.59156 12.28467,-5.18312 18.427,-7.77468c19.96258,-8.42257 39.92517,-16.84514 59.88775,-25.26771c23.90679,-10.0867 47.81357,-20.1734 71.72036,-30.2601c-21.87347,-1.31841 -43.74694,-2.63682 -65.62042,-3.95523c-24.95471,-1.50413 -49.90942,-3.00826 -74.86413,-4.51239l-3.01219,-0.18156c-1.319,-0.069 -2.36727,-1.16035 -2.36727,-2.49654c0,-1.18651 0.82656,-2.17996 1.93529,-2.43595l4.79488,-1.21859c3.04784,-1.34974 6.46127,-1.64209 9.6919,-2.46314c6.46127,-1.64209 12.92254,-3.28418 19.3838,-4.92627c20.99912,-5.33679 41.99824,-10.67359 62.99736,-16.01038c33.92166,-8.62097 67.84331,-17.24195 101.76497,-25.86292c33.92166,-8.62097 67.84331,-17.24195 101.76497,-25.86292c11.76189,-2.98921 23.52379,-5.97842 35.28568,-8.96763c-6.39833,-0.6328 -12.79667,-1.2656 -19.195,-1.89841c-8.22753,-0.81371 -16.50294,-1.97351 -24.75575,-2.45142c-9.40591,-0.54469 -19.01157,0.00304 -28.43538,0.00304c-6.66667,0 -13.33333,0 -20,0c-1.66667,0 -3.34729,0.21524 -5,0c-1.04055,-0.13552 -2.25802,-1.80731 -2.97189,-1.03822c-0.66023,0.71129 1.23007,1.50144 1.8451,2.25216c0,0 0.79057,2.37171 -1.58114,3.16228c-2.37171,0.79057 -3.16228,-1.58114 -3.16228,-1.58114c-0.38597,-2.25228 -2.53255,-4.93145 -1.1579,-6.75685c1.42458,-1.89171 4.66875,-0.83457 7.02811,-1.03822c4.89862,-0.42283 10.08111,0 15,0c12.82217,0 25.88335,-0.73196 38.68173,0.00304c8.33493,0.47866 16.69247,1.64785 25.0015,2.46962c10.97817,1.08575 21.95634,2.17151 32.9345,3.25726c7.48611,-1.90255 14.97222,-3.80509 22.45833,-5.70764c3.46924,-1.996 6.93848,-3.992 10.40772,-5.988c1.44463,-0.83116 2.77032,-1.9164 4.33389,-2.49347c0.96679,-0.35682 3.11621,0.78643 3.082,-0.24354c-0.03421,-1.02997 -2.10303,0.25337 -3.09137,-0.03851c-4.50214,-1.32961 -9.24689,-4.53185 -13.46935,-6.60125c-17.95914,-8.80167 -35.91828,-17.60334 -53.87741,-26.40501c-5.78183,-2.83364 -11.66874,-6.497 -17.71399,-8.69733c-9.12043,-3.31962 -19.4369,-4.79243 -28.86772,-7.12482c-17.79713,-4.40151 -35.59426,-8.80303 -53.39139,-13.20454c-1.61792,-0.40014 -3.23584,-0.80028 -4.85376,-1.20041l-4.7069,-1.16409c-1.11627,-0.25046 -1.9503,-1.24752 -1.9503,-2.43937c0,-1.20127 0.84727,-2.20466 1.97681,-2.44517l4.81767,-1.13357c3.09078,-1.24827 6.48945,-1.52693 9.73417,-2.29039c6.47536,-1.52361 12.92126,-3.11603 19.36118,-4.78306c20.97531,-5.42964 41.95061,-10.85927 62.92592,-16.28891c33.88319,-8.77095 67.76638,-17.5419 101.64956,-26.31285c7.90251,-2.04563 15.80503,-4.09127 23.70754,-6.1369c2.52509,-0.93314 5.20558,-1.92127 5.23774,-1.92275c0.08831,-0.00407 0.17656,-0.007 0.26475,-0.00886l-0.00613,-0.04251l4.90591,-0.7079c0.1302,-0.02093 0.26377,-0.03181 0.39987,-0.03181c1.38071,0 2.5,1.11929 2.5,2.5c0,1.18281 -0.82142,2.17377 -1.92494,2.43354c-1.29207,0.33446 -7.37316,1.9086 -8.66522,2.24307c-1.64903,0.64833 -3.44838,1.14097 -5.36993,1.85185c-4.68938,1.73484 -9.37877,3.46968 -14.06815,5.20452c-21.88379,8.09593 -43.76759,16.19185 -65.65138,24.28778c-13.74864,5.08632 -27.49728,10.17264 -41.24592,15.25896c15.79221,-4.14055 31.58441,-8.28111 47.37662,-12.42166c12.8974,-3.38156 25.79479,-6.76313 38.69219,-10.14469l4.78161,-1.25369c0.21886,-0.06261 0.44999,-0.09613 0.68895,-0.09613c1.38071,0 2.5,1.11929 2.5,2.5c0,0.55042 -0.17788,1.0593 -0.47929,1.47228l-2.87943,4.05154l-0.38096,-0.27075c-3.27143,5.78289 -7.24729,11.00418 -11.20507,16.57302c-6.00953,8.45579 -12.01906,16.91157 -18.02858,25.36736l1.04385,-0.33314l0.14657,0.45925c9.03005,-4.16783 18.94861,-6.55346 28.43321,-9.58046c20.34171,-6.49203 40.57776,-13.08284 60.68012,-20.28369c2.37494,-0.85073 4.74988,-1.70145 7.12482,-2.55218c-0.02323,-0.13694 -0.03533,-0.27766 -0.03533,-0.42122c0,-1.13089 0.75089,-2.0864 1.7813,-2.39515c12.67952,-4.12403 30.0593,-9.77683 42.73882,-13.90086c4.75482,-1.54651 9.50964,-3.09302 14.26446,-4.63953c1.58494,-0.5155 3.10012,-1.34716 4.75482,-1.54651l4.69931,-1.52846c0.25936,-0.0911 0.53827,-0.14064 0.82876,-0.14064c1.38071,0 2.5,1.11929 2.5,2.5c0,1.10529 -0.71728,2.04305 -1.71174,2.37319c-0.25332,0.09074 -5.15894,1.84798 -5.41226,1.93872c-0.43404,0.21564 -0.90023,0.36846 -1.38019,0.4944c-4.31297,1.54494 -8.62594,3.08989 -12.9389,4.63483c16.62776,-3.37242 33.25552,-6.74485 49.88329,-10.11727c34.3016,-6.95701 68.60321,-13.91402 102.90481,-20.87103c34.3016,-6.95701 68.60321,-13.91402 102.90481,-20.87103c34.3016,-6.95701 68.60321,-13.91402 102.90481,-20.87103c34.3016,-6.95701 68.60321,-13.91402 102.90481,-20.87103c31.03478,-6.29444 62.06957,-12.58888 93.10435,-18.88332l3.07704,-0.62408c0.17631,-0.03942 0.35964,-0.06021 0.54784,-0.06021c1.38071,0 2.5,1.11929 2.5,2.5c0,0.45905 -0.12372,0.8892 -0.33965,1.25893l-2.4171,4.32534l-0.32951,-0.18414c-3.95179,9.14278 -9.44853,17.68168 -14.30513,26.37244c-10.56946,18.91378 -21.13893,37.82755 -31.70839,56.74133c-1.62607,2.90981 -3.17314,5.8652 -4.87821,8.72943c-1.05834,1.77784 -1.53971,4.16181 -3.29181,5.26224c-1.7521,1.10043 -4.1086,0.49882 -6.16965,0.68015c-6.63147,0.58346 -13.31826,0.80533 -19.96354,1.20715c-21.62716,1.30775 -43.25433,2.6155 -64.88149,3.92325c-34.93619,2.11252 -69.87238,4.22503 -104.80857,6.33755c-11.7108,0.70813 -23.45521,1.95724 -35.18774,1.96043zM143.30842,98.15839c-0.71301,0.81065 -2.74481,1.00815 -2.49962,2.05953c0.24519,1.05139 2.15476,0.32973 3.1528,0.74134c3.08155,1.2709 5.86741,3.16512 8.80111,4.74768c13.81054,7.44997 27.62109,14.89993 41.43163,22.3499c11.9867,-3.04634 23.9734,-6.09269 35.9601,-9.13903c5.42397,-2.28847 10.84794,-4.57694 16.27191,-6.86541c2.64783,-1.11717 5.29566,-2.23433 7.94349,-3.3515c-7.90527,-1.88327 -15.81053,-3.76654 -23.7158,-5.64981c-24.31942,-5.79361 -48.63884,-11.58722 -72.95825,-17.38083l-4.04341,-0.96326c-0.20504,-0.04423 -0.40073,-0.11361 -0.58367,-0.20475c-3.11476,4.62244 -6.14699,9.54801 -9.7603,13.65615zM272.98014,113.19288c-3.03566,0.77149 -6.07131,1.54299 -9.10697,2.31448c-11.66632,6.09659 -23.33263,12.19318 -34.99895,18.28977c-4.07005,2.12693 -8.1401,4.25386 -12.21015,6.38079c0.84639,0.45658 1.69278,0.91315 2.53917,1.36973c10.17948,-3.61724 20.35897,-7.23448 30.53845,-10.85171c10.6618,-3.78863 21.32361,-7.57726 31.98541,-11.36588c0.0509,-0.38579 0.1041,-0.77108 0.15915,-1.15578c0.16211,-1.13295 1.51082,-2.40776 0.83396,-3.33065c-0.67686,-0.92288 -2.29801,-0.01952 -3.42732,-0.20531c-2.13065,-0.35053 -4.22225,-0.89523 -6.31275,-1.44543zM281.21044,124.81993c-9.93153,3.52913 -19.86305,7.05825 -29.79458,10.58738c-8.7608,3.11311 -17.52159,6.22623 -26.28239,9.33934c5.03922,2.71836 10.07845,5.43672 15.11767,8.15508l3.26899,0.34256c1.27196,0.11703 2.26804,1.18688 2.26804,2.48938c0,0.07443 -0.00325,0.14809 -0.00962,0.22087c0.34403,0.24641 0.68056,0.51398 1.02343,0.76366c21.48167,-6.40088 42.96333,-12.80177 64.445,-19.20265c33.54261,-9.99468 67.08521,-19.98935 100.62782,-29.98403c33.54261,-9.99468 67.08521,-19.98935 100.62782,-29.98403c1.59727,-0.47594 3.19453,-0.95187 4.7918,-1.42781l2.48446,-0.74029c0.24242,-0.07835 0.50105,-0.12068 0.76955,-0.12068c1.38071,0 2.5,1.11929 2.5,2.5c0,0.91103 -0.4873,1.70824 -1.21547,2.1452l-4.20744,2.61994c-2.48641,2.22011 -5.65919,3.52393 -8.48878,5.28589c-5.65919,3.52393 -11.31837,7.04785 -16.97756,10.57178c-9.54439,5.94321 -19.08878,11.88642 -28.63317,17.82962c29.60379,-5.69331 59.20757,-11.38663 88.81136,-17.07994c34.37017,-6.60997 68.74033,-13.21994 103.1105,-19.82991c18.00342,-3.46236 36.00684,-6.92473 54.01026,-10.38709l4.86024,-0.93471c0.16834,-0.03575 0.34293,-0.05456 0.52193,-0.05456c1.38071,0 2.5,1.11929 2.5,2.5c0,0.90048 -0.47609,1.68977 -1.19028,2.12988l-4.17939,2.66751c-2.48469,2.22203 -5.61959,3.58673 -8.42939,5.38009c-5.61959,3.58673 -11.23919,7.17346 -16.85878,10.76019c-18.26368,11.65687 -36.52735,23.31373 -54.79103,34.9706c-29.50286,18.83032 -59.00573,37.66065 -88.50859,56.49097c-14.79263,9.44146 -29.58526,18.88292 -44.37789,28.32437c23.61673,-10.55807 47.23346,-21.11614 70.85019,-31.6742c31.95233,-14.28457 63.90465,-28.56914 95.85698,-42.85371c31.95233,-14.28457 63.90465,-28.56914 95.85698,-42.85371c21.30155,-9.52305 42.6031,-19.04609 63.90465,-28.56914c4.56462,-2.04065 9.12924,-4.08131 13.69385,-6.12196c1.21685,-0.544 2.39514,-1.21442 3.58112,-1.8596c-27.9064,-1.31023 -55.8128,-2.62045 -83.71919,-3.93068c-34.96149,-1.64147 -69.92297,-3.28294 -104.88446,-4.92441c-31.90352,-1.49789 -63.80703,-2.99579 -95.71055,-4.49368c-16.92293,5.53414 -33.84586,11.06827 -50.7688,16.60241c-33.26638,10.87877 -66.53277,21.75754 -99.79915,32.63631c-33.26638,10.87877 -66.53277,21.75754 -99.79915,32.63631c-7.16311,2.34248 -13.74802,6.28129 -20.86068,8.54722c-1.72488,0.54951 -4.05438,2.36827 -5.32306,1.0769c-1.69423,-1.72454 -0.63986,-4.80125 -0.70988,-7.21777c-0.03214,-1.10909 -0.01625,-2.21939 0.03666,-3.32892zM587.23897,34.44783c8.25843,-0.40709 16.51721,-1.18274 24.75698,-1.68098c34.93619,-2.11252 69.87238,-4.22503 104.80857,-6.33755c21.62716,-1.30775 43.25433,-2.6155 64.88149,-3.92325c4.99088,-0.30179 9.98177,-0.60358 14.97265,-0.90536c1.66363,-0.1006 3.32476,-0.25916 4.99088,-0.30179c1.27055,-0.0325 2.73583,0.75256 3.81212,0.07658c1.07629,-0.67598 1.0054,-2.33681 1.58641,-3.4672c1.5238,-2.96465 3.25214,-5.81962 4.87821,-8.72943c11.3825,-20.36868 22.765,-40.73736 34.1475,-61.10604c2.43911,-4.36472 4.87821,-8.72943 7.31732,-13.09415c1.71864,-3.07546 2.89741,-6.0715 5.1199,-8.4354c-30.45186,6.17621 -60.90373,12.35242 -91.35559,18.52863c-34.3016,6.95701 -68.60321,13.91402 -102.90481,20.87103c-34.3016,6.95701 -68.60321,13.91402 -102.90481,20.87103c-34.3016,6.95701 -68.60321,13.91402 -102.90481,20.87103c-34.3016,6.95701 -68.60321,13.91402 -102.90481,20.87103c-21.23433,4.30672 -42.46865,8.61344 -63.70298,12.92016c-6.53364,1.32514 -13.06728,2.65029 -19.60092,3.97543c-0.14268,0.02894 -0.28523,0.05905 -0.42767,0.09019c-7.55777,2.70726 -15.11554,5.41452 -22.6733,8.12178c-21.72546,7.78225 -43.6254,14.84391 -65.60935,21.86007c-4.7633,1.5202 -9.52659,3.0404 -14.28989,4.5606c-1.9511,0.62269 -3.70355,1.37004 -5.43759,1.89895c22.67277,5.40133 45.34554,10.80266 68.01831,16.20399c10.11437,2.40954 20.22873,4.81909 30.3431,7.22863c16.255,-6.85827 32.50999,-13.71654 48.76499,-20.57482l4.40027,-1.85655c0.31229,-0.14024 0.65858,-0.21825 1.02309,-0.21825c1.38071,0 2.5,1.11929 2.5,2.5c0,0.98152 -0.56564,1.83094 -1.38872,2.24005l-4.38479,2.29141c-2.61056,2.0727 -5.90853,3.08768 -8.86279,4.63152c-5.90853,3.08768 -11.81705,6.17536 -17.72558,9.26304c-1.13024,0.59064 -2.26047,1.18128 -3.39071,1.77192c2.69573,-0.6851 5.39145,-1.3702 8.08718,-2.05531c33.92166,-8.62097 67.84331,-17.24195 101.76497,-25.86292c7.45609,-1.89492 14.91219,-3.78984 22.36828,-5.68476c10.76927,-3.82682 21.53854,-7.65363 32.3078,-11.48045c15.70462,-5.58057 31.40923,-11.16114 47.11385,-16.74171c4.71117,-1.6741 9.41553,-3.36955 14.13416,-5.02251c1.72476,-0.6042 3.37391,-1.52328 5.18166,-1.79142c0.31406,-0.04658 9.88179,0.41693 10.47306,0.44469c7.56822,0.35533 15.13645,0.71067 22.70467,1.066c16.41549,-4.17189 32.83098,-8.34378 49.24647,-12.51568l4.79137,-1.2177c0.21334,-0.05924 0.43816,-0.0909 0.67037,-0.0909c1.38071,0 2.5,1.11929 2.5,2.5c0,1.12951 -0.74906,2.08407 -1.77753,2.39402l-4.69775,1.53626c-2.91401,1.61854 -6.33645,2.07215 -9.50468,3.10822c-0.40551,0.13261 -0.81102,0.26522 -1.21653,0.39783zM530.60289,42.56075c-2.10493,-0.09883 -4.20986,-0.19766 -6.31479,-0.29648c-3.16909,-0.14879 -6.3667,-0.95879 -9.50494,-0.4933c-3.13824,0.4655 -5.96305,2.1688 -8.9525,3.23109c-4.71139,1.67417 -9.42277,3.34834 -14.13416,5.02251c-7.98396,2.83707 -15.96791,5.67413 -23.95187,8.5112c8.98804,-2.28425 17.97608,-4.56851 26.96412,-6.85276c11.96471,-3.04075 23.92942,-6.08151 35.89413,-9.12226zM167.89464,259.32842c-0.89595,0.08988 -1.79189,0.17977 -2.68784,0.26965c-2.70007,0.99785 -5.40014,1.9957 -8.1002,2.99355c-3.12665,1.1555 -6.17978,2.53375 -9.37994,3.4665c-2.21358,0.64519 -4.71485,2.71492 -6.73056,1.59548c-2.97481,-1.65209 -3.36424,-3.55852 -2.68526,-5.35724c-26.66319,2.67495 -53.32638,5.3499 -79.98958,8.02484c-13.26674,1.33097 -26.53347,2.66193 -39.80021,3.9929c-1.60275,0.16079 -10.64346,1.20913 -11.57036,0.60141c-0.20071,-0.13159 -0.53808,-0.80634 -0.93577,-1.76298c-2.75163,5.03393 -5.50327,10.06787 -8.2549,15.1018c-11.19155,20.47422 -22.3831,40.94844 -33.57465,61.42266c-2.17695,3.98258 -4.35389,7.96517 -6.53084,11.94775c11.08886,-2.35158 22.17773,-4.70315 33.26659,-7.05473c31.59472,-12.78916 63.18945,-25.57833 94.78417,-38.36749c0.03774,-0.01528 0.07548,-0.03055 0.11321,-0.04583c4.60873,-2.51273 9.21746,-5.02546 13.82618,-7.53819c8.73535,-4.76261 17.42784,-10.4425 26.52801,-14.45332c6.0833,-2.68116 12.81968,-4.41609 19.1093,-6.57815c18.91373,-6.5016 37.82746,-13.00319 56.7412,-19.50479c4.71667,-1.62135 9.41727,-3.41384 14.1853,-4.8762c0.71121,-0.21813 1.41991,-0.53391 2.13082,-0.83713c-12.78356,-0.77052 -25.56712,-1.54104 -38.35068,-2.31156c-4.03134,-0.24299 -8.06267,-0.48597 -12.09401,-0.72896zM292.08021,266.81363c2.22312,1.89619 4.44624,3.79238 6.66935,5.68857c2.78822,2.37819 5.57644,4.75637 8.36466,7.13456c12.99319,2.40285 25.98639,4.8057 38.97958,7.20855c10.09553,1.86698 20.19106,3.73396 30.28659,5.60094c5.44966,-0.95223 10.89932,-1.90445 16.34898,-2.85668c3.28358,-0.57374 6.5182,-1.7932 9.85075,-1.72123l4.87778,-0.8523c0.15469,-0.02994 0.31447,-0.04563 0.47791,-0.04563c1.38071,0 2.5,1.11929 2.5,2.5c0,1.22487 -0.88088,2.244 -2.04371,2.45846c-0.42844,0.08789 -5.05602,1.03713 -5.48447,1.12502c-1.5774,0.70165 -3.32535,0.90807 -5.09703,1.04555c-1.974,0.40492 -3.94801,0.80985 -5.92201,1.21477c6.04048,1.11708 12.08096,2.23415 18.12144,3.35123c1.32596,0.24521 2.65826,0.47787 3.99445,0.7043c1.35738,-0.45456 2.71476,-0.90913 4.07213,-1.36369c4.74121,-1.58776 9.48241,-3.17551 14.22362,-4.76327c1.5804,-0.52925 3.14709,-1.10138 4.74121,-1.58776c1.22111,-0.37257 2.78427,-0.09874 3.70048,-0.98785c0.94294,-0.91505 0.75116,-2.51942 1.18996,-3.75792c0.5566,-1.57098 1.1966,-3.11115 1.7949,-4.66673c0.5983,-1.55558 1.00367,-3.19985 1.7949,-4.66673c0.49901,-0.92513 2.59455,-1.53262 2.02582,-2.4166c-0.56874,-0.88398 -1.99016,0.77129 -3.03891,0.84197c-3.32579,0.22413 -6.65459,-0.4011 -9.98188,-0.60165c-14.97283,-0.90248 -29.94565,-1.80496 -44.91848,-2.70743c-32.50933,-1.95948 -65.01867,-3.91896 -97.528,-5.87844zM348.32998,321.3631c-0.22172,-0.18911 -0.44343,-0.37822 -0.66515,-0.56733c-0.15944,0.02483 -3.93558,0.61292 -4.09502,0.63775c-1.80502,0.75301 -3.80717,0.84619 -5.81921,0.90627c-16.01579,2.49426 -32.03158,4.98853 -48.04737,7.48279c-3.14061,0.48911 -6.28122,0.97822 -9.42183,1.46733c-13.4477,6.72737 -26.8954,13.45475 -40.34311,20.18212c-7.11107,3.5574 -14.22213,7.11479 -21.3332,10.67219c1.16905,-0.28688 2.33811,-0.57377 3.50716,-0.86065c8.74582,-2.14621 17.49165,-4.29243 26.23747,-6.43864c23.3872,-7.83201 46.77439,-15.66401 70.16159,-23.49602c9.93956,-3.3286 19.87911,-6.6572 29.81867,-9.98581zM298.40881,322.22146c5.05627,-0.66722 10.11254,-1.33445 15.1688,-2.00167c6.60937,-0.87217 13.21874,-1.74434 19.82811,-2.61652c2.98523,-0.39393 5.95264,-1.31755 8.95052,-1.3354c-3.40027,-2.90023 -6.80054,-5.80046 -10.20081,-8.70069c-2.47513,0.50772 -4.95025,1.01544 -7.42538,1.52315c-2.66553,1.87757 -5.8546,2.89245 -8.77342,4.35263c-5.84927,2.92617 -11.69855,5.85234 -17.54782,8.77851zM312.44055,303.61854c4.17351,-0.72924 8.34702,-1.45849 12.52053,-2.18773c-6.69094,-5.70697 -13.38187,-11.41395 -20.07281,-17.12092c-20.98434,-3.88066 -41.96867,-7.76133 -62.95301,-11.64199c-4.91479,-0.9089 -9.84736,-1.75514 -14.7499,-2.72772c-0.58428,-0.11591 -1.20042,-0.15548 -1.8005,-0.23719c-8.48556,3.54941 -16.97113,7.09882 -25.45669,10.64823c-10.11421,6.29803 -20.22842,12.59606 -30.34263,18.89409c-3.05211,1.90052 -6.10423,3.80105 -9.15634,5.70157c11.24361,-4.28515 22.48722,-8.57031 33.73084,-12.85546c6.22957,-2.37421 12.45915,-4.74842 18.68872,-7.12262c3.11479,-1.1871 6.06459,-2.96612 9.34436,-3.56131l4.61852,-1.76021c0.29127,-0.11886 0.60998,-0.18436 0.94399,-0.18436c1.38071,0 2.5,1.11929 2.5,2.5c0,0.96651 -0.54847,1.80493 -1.35115,2.22098c-20.09531,10.91951 -43.71716,23.7553 -63.81247,34.67481c31.09032,-3.22978 62.18374,-6.43001 93.27543,-9.64639c18.02437,-1.86459 36.04873,-3.72918 54.0731,-5.59377zM92.77019,347.07756c-4.10561,2.55652 -8.21121,5.11305 -12.31682,7.66957c-1.85833,1.15717 -3.71667,2.31434 -5.575,3.47151c2.18558,-0.34038 4.37115,-0.68075 6.55673,-1.02113c1.22853,-0.19133 2.45706,-0.38266 3.68559,-0.57399c7.4228,-4.03345 14.8456,-8.0669 22.2684,-12.10034c-1.46545,0.25606 -2.93089,0.51212 -4.39634,0.76818c-3.40752,0.5954 -6.81504,1.1908 -10.22257,1.7862zM122.82491,341.82606c-7.6749,4.17044 -15.34981,8.34087 -23.02471,12.51131c28.46142,-4.43252 56.92283,-8.86503 85.38425,-13.29755c1.022,-0.15916 2.04399,-0.31833 3.06599,-0.47749c-0.33348,-0.42484 -0.53235,-0.96038 -0.53235,-1.54236c0,-1.13387 0.75486,-2.09144 1.78945,-2.39758l4.70567,-1.51254c2.9392,-1.57232 6.34686,-2.04006 9.52029,-3.06009c4.76014,-1.53005 9.52029,-3.06009 14.28043,-4.59014c7.55495,-2.42838 15.2199,-4.46273 22.94475,-6.27521c-11.51101,2.01133 -23.02201,4.02266 -34.53302,6.03399c-27.86692,4.86922 -55.73384,9.73844 -83.60076,14.60766zM62.26442,360.18311c5.182,-3.22679 10.364,-6.45357 15.54601,-9.68036c0.60366,-0.37589 1.20732,-0.75179 1.81098,-1.12768c-13.37287,2.33666 -26.74574,4.67331 -40.11861,7.00997c-0.8054,0.30695 -1.61081,0.61391 -2.41621,0.92086c-10.05459,3.832 -20.10919,7.66399 -30.16378,11.49599c1.78201,-0.27753 3.56403,-0.55505 5.34604,-0.83258c16.66519,-2.5954 33.33037,-5.1908 49.99556,-7.78619zM124.11451,300.65496c4.08637,-1.65412 8.17275,-3.30823 12.25912,-4.96235c-2.79229,0.91135 -5.55228,1.88784 -8.1844,3.04792c-1.36698,0.60249 -2.72471,1.24369 -4.07473,1.91443zM314.72607,286.12921c5.54327,4.72808 11.08653,9.45616 16.6298,14.18424c10.29563,-1.79897 20.59127,-3.59794 30.8869,-5.3969c-5.68606,-1.05153 -11.37213,-2.10307 -17.05819,-3.1546c-10.15284,-1.87758 -20.30567,-3.75516 -30.45851,-5.63274zM414.30024,304.54361c-18.66052,6.24912 -37.32105,12.49824 -55.98157,18.74735c1.15653,0.98047 2.31333,1.96069 3.46974,2.94139c1.33195,-0.33796 2.6639,-0.67591 3.99585,-1.01387c22.42064,-5.68882 44.84129,-11.37764 67.26193,-17.06646c-1.36397,-0.29283 -2.77149,-0.65423 -4.27886,-0.93299c-4.82236,-0.89181 -9.64473,-1.78361 -14.46709,-2.67542zM239.34155,363.13455c-2.9741,0.99598 -5.9482,1.99196 -8.92231,2.98794c27.61161,-4.14174 55.22322,-8.28348 82.83483,-12.42523c14.83405,-2.22511 29.66809,-4.45021 44.50214,-6.67532c4.8155,-0.72233 9.97174,-2.03493 14.83405,-2.22511c1.06998,-0.04185 2.3443,1.08781 3.18432,0.42375c0.60333,-0.47694 -0.88846,-1.26747 -1.44322,-1.80013c-2.05046,-1.96877 -4.38454,-3.61946 -6.5473,-5.46417c-0.59634,-0.50865 -1.19269,-1.01729 -1.78903,-1.52594c-18.03241,4.40792 -36.06483,8.81585 -54.09724,13.22377c-6.47599,1.58302 -12.95199,3.16604 -19.42798,4.74906c-3.238,0.79151 -6.38413,2.22235 -9.71399,2.37453l-4.80289,1.17404c-0.20659,0.05526 -0.42372,0.08473 -0.64774,0.08473c-1.38071,0 -2.5,-1.11929 -2.5,-2.5c0,-0.15524 0.01415,-0.30718 0.04123,-0.45459c-11.83496,2.68422 -23.66991,5.36843 -35.50487,8.05265zM353.86442,319.50971c16.764,-5.614 33.528,-11.228 50.292,-16.84201c-8.43458,-1.55982 -16.86915,-3.11964 -25.30373,-4.67946c-13.4954,2.76829 -26.9908,5.53657 -40.4862,8.30486c3.70797,3.16268 7.41593,6.32535 11.1239,9.48803c0.54311,0.20603 0.99577,0.59584 1.28205,1.09351c0.41183,0.35127 0.82367,0.70254 1.2355,1.05381c0.61844,0.52749 1.2373,1.05453 1.85648,1.58124zM449.83995,118.8432c14.64022,-9.11634 29.28045,-18.23268 43.92067,-27.34902c3.2283,-2.01023 6.4566,-4.02047 9.6849,-6.0307c-30.04763,8.95328 -60.09527,17.90656 -90.1429,26.85985c-33.54261,9.99468 -67.08521,19.98935 -100.62782,29.98403c-9.19694,2.74041 -18.39389,5.48082 -27.59083,8.22123c20.34413,-3.91252 40.68827,-7.82505 61.0324,-11.73757c34.37017,-6.60997 68.74033,-13.21994 103.1105,-19.82991c0.20436,-0.0393 0.40872,-0.0786 0.61308,-0.11791zM140.41306,147.8957c-0.95526,-0.09448 -1.91051,-0.18895 -2.86577,-0.28343c-16.22228,4.12279 -32.44456,8.24558 -48.66684,12.36837c-33.92166,8.62097 -67.84331,17.24195 -101.76497,25.86292c-33.92166,8.62097 -67.84331,17.24195 -101.76497,25.86292c-22.61444,5.74732 -45.22888,11.49463 -67.84331,17.24195c-4.5073,1.1455 -9.0146,2.291 -13.5219,3.43651c20.62494,1.24316 41.24988,2.48631 61.87483,3.72947c25.23591,1.52108 50.47181,3.04216 75.70772,4.56324c4.87776,-2.05801 9.75551,-4.11602 14.63327,-6.17404c32.24725,-13.60569 64.4945,-27.21138 96.74175,-40.81707c9.80903,-4.13861 19.61806,-8.27721 29.4271,-12.41582c0.33096,-0.17814 0.65952,-0.3598 0.98447,-0.54676c5.77852,-3.32463 11.55704,-6.64926 17.33556,-9.97388c13.24103,-7.61812 26.48205,-15.23625 39.72308,-22.85437zM54.88652,198.29329c-32.24725,13.60569 -64.4945,27.21138 -96.74175,40.81707c-1.77416,0.74855 -3.54831,1.4971 -5.32247,2.24564c5.9492,0.35858 11.8984,0.71717 17.84759,1.07575c3.64273,0.21956 7.28547,0.43913 10.9282,0.65869c5.60821,-1.86079 11.21643,-3.72158 16.82464,-5.58237c8.70467,-2.88818 17.40934,-5.77637 26.114,-8.66455c0.00413,-0.00756 0.00826,-0.01512 0.01239,-0.02268c3.19615,-5.84714 6.30594,-11.7528 9.59276,-17.54933c0.91169,-1.60783 1.38235,-3.60169 2.80258,-4.78459c1.50954,-1.25728 3.65526,-1.4418 5.49627,-2.12744c3.12373,-1.16336 6.28185,-2.23223 9.42277,-3.34834c7.78079,-2.76487 15.56158,-5.52975 23.34238,-8.29462c-0.27005,0.01177 -0.5401,0.02354 -0.81016,0.03531l-2.67056,0.11639c-0.04164,0.00206 -0.08355,0.00311 -0.1257,0.00311c-0.74391,0 -1.41193,-0.32492 -1.86989,-0.84059c-4.94769,2.08752 -9.89538,4.17504 -14.84307,6.26255zM212.11402,186.74957c0.67006,0.92633 1.38951,1.95476 1.96919,2.86784c3.61672,-1.14212 7.23343,-2.28424 10.85015,-3.42636c-0.22663,0.00975 -0.45326,0.01956 -0.67988,0.02944c-4.04649,0.17636 -8.09297,0.35272 -12.13946,0.52908zM244.19539,185.35169c-10.38107,3.27823 -20.76215,6.55647 -31.14322,9.8347c-0.72443,0.65567 -1.5014,1.28168 -2.13504,1.97083c-2.25612,2.45378 -4.7634,4.66417 -7.1451,6.99625c-8.66613,8.48559 -17.33226,16.97118 -25.9984,25.45676c0.93915,-0.20478 1.8783,-0.40955 2.81745,-0.61433c17.91247,-3.90573 35.82493,-7.81145 53.7374,-11.71718c8.06728,-1.75903 16.53416,-4.54003 24.74263,-5.37403c4.71222,-0.47877 9.53455,-0.02083 14.20091,0.94595l0.01559,-0.37441l4.98311,0.20753c1.33834,0.04813 2.40853,1.14827 2.40853,2.49836c0,1.09651 -0.70592,2.02814 -1.6881,2.36521c-26.57651,9.82175 -57.78827,21.35654 -84.36478,31.17829c-3.58522,1.32497 -7.17045,2.64995 -10.75567,3.97492c20.2663,-2.03319 40.53261,-4.06638 60.79891,-6.09957c3.80173,-2.3673 7.60345,-4.7346 11.40518,-7.10191c29.71073,-18.50061 59.42146,-37.00122 89.13218,-55.50184c29.71073,-18.50061 59.42146,-37.00122 89.13218,-55.50184c1.22336,-0.76178 2.44673,-1.52356 3.67009,-2.28533c-30.3162,5.83032 -60.6324,11.66065 -90.9486,17.49097c-24.55012,4.72141 -49.10024,9.44281 -73.65036,14.16422c-6.54452,1.25862 -13.07939,2.60622 -19.64009,3.77713c-1.91673,0.34208 -3.83711,1.2558 -5.76157,0.96031c-0.57806,-0.08876 -1.12212,-0.28327 -1.6475,-0.53588c-5.04898,1.50444 -10.09797,3.00889 -15.14695,4.51333c-3.19453,0.95187 -6.26913,2.50152 -9.5836,2.85562l-4.73615,1.41123c-0.24242,0.07835 -0.50105,0.12068 -0.76955,0.12068c-1.38071,0 -2.5,-1.11929 -2.5,-2.5c0,-1.0211 0.61217,-1.89922 1.48952,-2.28737c4.52722,-2.12233 13.53097,-6.34324 18.05819,-8.46557c0.28866,-0.13532 0.57279,-0.2843 0.85499,-0.43911c-8.59769,-0.90596 -17.19456,-1.82193 -25.7978,-2.67278c-2.82485,-0.27938 -5.64969,-0.55876 -8.47454,-0.83814c-9.46885,3.36472 -18.9377,6.72943 -28.40654,10.09415c-11.84458,6.18975 -23.68916,12.37949 -35.53373,18.56924c-1.83864,0.96084 -3.67728,1.92167 -5.51592,2.88251c7.43738,-0.32415 14.87475,-0.64829 22.31213,-0.97244c3.97127,-1.0601 7.94986,-2.14716 11.75755,-3.541c4.59357,-1.68152 9.07692,-4.0459 13.54703,-6.03529c4.54003,-2.0205 9.06472,-4.32059 13.70413,-6.09891c1.71924,-0.659 3.50206,-2.31907 5.24612,-1.72887c2.08142,0.70437 2.9483,3.26196 4.33095,4.96981c2.58784,3.19649 4.94933,6.63397 7.35253,9.99627c3.49702,-0.15241 6.99403,-0.30482 10.49105,-0.45724c6.66034,-0.29028 13.32069,-0.58056 19.98103,-0.87084c1.50505,-0.0656 2.97299,-0.17031 4.42543,-0.22745c1.51677,-0.47898 3.03354,-0.95796 4.5503,-1.43694l4.47544,-1.4133c0.25359,-0.08661 0.52553,-0.13361 0.80845,-0.13361c1.38071,0 2.5,1.11929 2.5,2.5c0,0.88153 -0.45626,1.6565 -1.14551,2.10163l-4.12799,2.75199l-0.04578,-0.06866c-0.18173,0.12962 -0.36964,0.25161 -0.56458,0.36492c-1.63483,0.95033 -3.77439,0.24032 -5.6628,0.33895c-0.01304,0.00068 -0.02608,0.00136 -0.03912,0.00204zM209.24166,191.14633c-0.10304,-0.04152 -0.19099,-0.09209 -0.24947,-0.1575c-1.11471,-1.24664 -2.10324,-2.59557 -3.06055,-3.96981c-17.02509,0.74201 -34.05019,1.48403 -51.07528,2.22604c-12.20055,3.748 -24.7822,6.73 -36.9397,10.26673c-6.4013,1.8622 -12.8026,3.72439 -19.20391,5.58659c-1.12485,0.32723 -2.23557,0.72646 -3.34706,1.12177c0.75073,0.43136 1.25631,1.24123 1.25631,2.16918c0,0.94993 -0.52981,1.77612 -1.31006,2.19919c-17.40044,9.86025 -37.84616,21.44616 -55.24661,31.30641c-2.50931,1.42194 -5.01863,2.84389 -7.52794,4.26583c13.63829,0.82204 27.27659,1.64408 40.91488,2.46612c5.57213,-2.63128 11.14426,-5.26257 16.71638,-7.89385c19.59205,-9.2518 39.18411,-18.50361 58.77616,-27.75541c5.89247,-2.78255 11.76555,-6.05854 17.8385,-8.41741c9.30469,-3.61416 19.24574,-6.0836 28.76691,-9.09028c4.56381,-1.4412 9.12762,-2.88241 13.69143,-4.32361zM63.77796,253.05285c-13.07676,-0.78819 -26.15351,-1.57639 -39.23027,-2.36458c-3.01988,1.71127 -6.03977,3.42254 -9.05965,5.1338c-2.10018,3.84215 -4.20036,7.68429 -6.30055,11.52644c0.24812,1.12231 -0.44951,2.75999 0.5047,3.38561c0.96794,0.63462 2.21318,-0.70474 3.35472,-0.89592c3.28755,-0.55059 6.63337,-0.66548 9.95005,-0.99823c11.60839,-1.1646 23.21679,-2.32919 34.82518,-3.49379c26.26086,-2.63458 52.52171,-5.26917 78.78257,-7.90375c-16.45357,-0.99173 -32.90714,-1.98346 -49.36071,-2.97519c-2.72576,0.59434 -5.45153,1.18868 -8.17729,1.78302c-4.88522,1.0652 -9.77044,2.1304 -14.65565,3.19559l-4.23868,0.92422c-0.18763,0.04498 -0.38348,0.0688 -0.5849,0.0688c-1.38071,0 -2.5,-1.11929 -2.5,-2.5c0,-1.01854 0.60911,-1.89482 1.48294,-2.28445l4.47079,-2.1112c0.24115,-0.17106 0.48694,-0.33416 0.73676,-0.49038zM171.05003,236.19376c-5.76458,5.64448 -11.52915,11.28896 -17.29373,16.93344c-0.10886,0.10659 -0.21754,0.21337 -0.32606,0.32031c4.01099,0.24176 8.02198,0.48352 12.03297,0.72528c9.14331,-3.37905 18.28661,-6.7581 27.42992,-10.13714c24.17293,-8.93347 48.34586,-17.86695 72.51878,-26.80042c-2.01764,-0.28237 -4.02634,-0.54486 -5.90868,-0.34924c-3.20955,0.33354 -6.30113,1.39491 -9.4539,2.08236c-22.79768,4.97092 -45.59537,9.94185 -68.39305,14.91277c-3.53542,0.77088 -7.07084,1.54176 -10.60625,2.31264zM145.6491,261.56018c-0.31372,0.03147 -0.62744,0.06295 -0.94117,0.09442c-0.34962,0.2763 -0.69234,0.56039 -1.0146,0.86771c-0.19237,0.18345 -0.5869,0.83609 -0.34932,0.71687c0.84853,-0.42578 1.50145,-1.17902 2.30508,-1.679zM131.86381,190.24716c-4.00439,0.17453 -8.00877,0.34905 -12.01316,0.52358c-4.27496,2.23401 -8.54993,4.46803 -12.82489,6.70204c1.56442,-0.4551 3.12884,-0.91021 4.69327,-1.36531c6.71493,-1.95343 13.42986,-3.90687 20.14478,-5.8603zM157.47387,149.58304c-2.83511,-0.2804 -5.67021,-0.56079 -8.50532,-0.84119c-9.62412,5.53716 -19.24823,11.07433 -28.87235,16.61149c9.8628,-4.16129 19.7256,-8.32258 29.5884,-12.48387c2.59642,-1.09548 5.19284,-2.19095 7.78926,-3.28643zM-4.96548,243.90031c6.86448,0.41375 13.72896,0.8275 20.59344,1.24126c1.79707,-3.28763 3.59415,-6.57526 5.39122,-9.8629c-7.00729,2.325 -14.01458,4.65 -21.02186,6.975c-1.65427,0.54888 -3.30853,1.09776 -4.9628,1.64664zM27.97983,232.96915c-2.27847,4.16831 -4.55693,8.33661 -6.8354,12.50492c0.74209,0.04473 1.48418,0.08946 2.22627,0.13419c4.74319,-2.68781 9.48638,-5.37562 14.22958,-8.06343c11.02417,-6.24703 22.04833,-12.49405 33.0725,-18.74108c-1.41236,0.46862 -2.82471,0.93723 -4.23707,1.40585c-12.81862,4.25318 -25.63725,8.50637 -38.45587,12.75955zM364.33548,89.9755c-23.97503,6.0931 -47.95006,12.1862 -71.92509,18.27931c-2.81847,0.7163 -5.63694,1.43259 -8.4554,2.14889c1.12706,0.22782 2.1511,0.6021 2.79708,1.48287c1.10612,1.50815 0.46277,3.6274 0.20883,5.58369c20.5733,-7.31064 41.1466,-14.62128 61.7199,-21.93191c5.21823,-1.85428 10.43647,-3.70856 15.6547,-5.56283zM169.3439,159.26496c4.56327,-2.38468 9.12654,-4.76935 13.6898,-7.15403c-5.04668,-0.49912 -10.09337,-0.99824 -15.14005,-1.49737c-5.42179,2.28755 -10.84358,4.5751 -16.26538,6.86265c-22.23686,9.38213 -44.47373,18.76426 -66.71059,28.14639c-0.89155,0.56669 -1.7618,1.18396 -2.64058,1.78098c2.99395,-0.13049 5.98791,-0.26097 8.98186,-0.39146c19.84788,-7.05286 39.69575,-14.10572 59.54363,-21.15859c6.18043,-2.19619 12.36086,-4.39238 18.54129,-6.58857zM168.1369,288.22933c-26.72554,10.81818 -53.45108,21.63635 -80.17663,32.45453c-2.84262,1.54983 -5.68525,3.09966 -8.52787,4.64949c1.30601,-0.54629 2.61203,-1.09258 3.91804,-1.63887c28.26215,-11.82172 56.52431,-23.64344 84.78646,-35.46515zM136.16471,328.88691c-7.17062,1.52311 -14.34159,3.04457 -21.51276,4.56507c-3.51698,2.18999 -7.03396,4.37999 -10.55095,6.56998c5.68546,-0.99343 11.37093,-1.98686 17.05639,-2.98028c3.19139,-1.73416 6.38278,-3.46831 9.57417,-5.20247c1.81105,-0.9841 3.6221,-1.9682 5.43314,-2.9523zM72.06692,363.71676c-2.67511,0.41662 -5.35022,0.83323 -8.02533,1.24985c-13.07611,8.14238 -26.15221,16.28475 -39.22832,24.42713c4.55305,-2.47406 9.1061,-4.94813 13.65915,-7.42219c11.19817,-6.08493 22.39633,-12.16986 33.5945,-18.25478zM255.94545,245.46975c1.99437,-0.20008 3.98873,-0.40016 5.9831,-0.60025c6.1446,-2.48726 12.28921,-4.97452 18.43381,-7.46179c32.44284,-13.13247 64.88569,-26.26494 97.32853,-39.39742c32.44284,-13.13247 64.88569,-26.26494 97.32853,-39.39742c20.08367,-8.12963 40.16733,-16.25925 60.251,-24.38888c6.17959,-2.50142 12.35918,-5.00285 18.53877,-7.50427c3.08979,-1.25071 5.995,-3.12804 9.26938,-3.75213l4.58234,-1.85487c0.30369,-0.13117 0.63855,-0.20385 0.99039,-0.20385c1.38071,0 2.5,1.11929 2.5,2.5c0,1.05915 -0.65864,1.96446 -1.58869,2.3287c-0.06713,0.02808 -4.69358,1.96327 -4.76072,1.99135c-1.89325,1.53071 -4.36036,2.11406 -6.7509,2.82382c-28.43407,11.89363 -56.86814,23.78726 -85.3022,35.68088c-32.28908,13.50613 -64.57815,27.01226 -96.86723,40.51839c-27.97514,11.70167 -55.95029,23.40333 -83.92543,35.105c26.43089,-2.65164 52.86177,-5.30328 79.29266,-7.95493c12.32771,-1.23676 24.65543,-2.47352 36.98314,-3.71028c17.13792,-2.84203 34.27584,-5.68405 51.41376,-8.52608c6.1191,-1.01475 12.2382,-2.02949 18.3573,-3.04424c20.8966,-13.33734 41.79319,-26.67468 62.68979,-40.01202c29.50286,-18.83032 59.00573,-37.66065 88.50859,-56.49097c19.66858,-12.55355 39.33715,-25.1071 59.00573,-37.66065c4.21469,-2.69005 8.42939,-5.38009 12.64408,-8.07014c0.49388,-0.31522 0.97635,-0.65491 1.45342,-1.00615c-15.30415,2.94325 -30.6083,5.8865 -45.91246,8.82975c-34.37017,6.60997 -68.74033,13.21994 -103.1105,19.82991c-33.86211,6.51226 -67.72422,13.02452 -101.58633,19.53678c-4.9044,3.05393 -9.80881,6.10786 -14.71321,9.16179c-29.71073,18.50061 -59.42146,37.00122 -89.13218,55.50184c-29.71073,18.50061 -59.42146,37.00122 -89.13218,55.50184c-0.9241,0.57543 -1.8482,1.15086 -2.77229,1.72628zM171.11198,292.40468c-28.6107,11.96751 -57.22139,23.93502 -85.83209,35.90253c-10.10631,4.22735 -20.21262,8.4547 -30.31893,12.68204c8.19726,-1.73873 16.39429,-3.4786 24.59128,-5.21863c17.95649,-6.84356 35.91298,-13.68712 53.86948,-20.53067c0.87502,-0.33348 1.75003,-0.66697 2.62505,-1.00045c10.29862,-6.41286 20.59723,-12.82572 30.89585,-19.23858c1.38979,-0.86541 2.77958,-1.73082 4.16937,-2.59623zM-56.78699,387.73207c12.70595,-4.84248 25.4119,-9.68495 38.11785,-14.52743c0.15871,-0.14411 0.33603,-0.26809 0.52793,-0.36792c2.11866,-1.15512 7.88513,-4.29906 10.00378,-5.45417c-1.14997,0.48102 -2.29994,0.96204 -3.4499,1.44305c-15.06655,6.30216 -30.13311,12.60431 -45.19966,18.90647zM31.49739,226.53399c9.53938,-3.16514 19.07876,-6.33028 28.61813,-9.49542c6.32747,-2.09944 12.65493,-4.19887 18.9824,-6.29831c1.286,-0.42669 2.5495,-0.94909 3.81793,-1.45049c-1.04224,-0.30132 -1.80435,-1.26263 -1.80435,-2.40194c0,-0.98152 0.56564,-1.83094 1.38872,-2.24005c7.77297,-4.06201 17.79959,-9.30172 25.57256,-13.36373c-5.28219,0.23022 -10.56438,0.46043 -15.84657,0.69065c-12.89617,4.5826 -25.79235,9.16521 -38.68852,13.74781c-3.14092,1.11611 -6.26223,2.28906 -9.42277,3.34834c-1.29959,0.43557 -2.86835,0.3497 -3.9265,1.2209c-0.96847,0.79736 -1.07825,2.26609 -1.65919,3.37794c-0.77183,1.47718 -1.59879,2.92489 -2.39819,4.38733c-1.54455,2.82565 -3.0891,5.65131 -4.63365,8.47696zM286.85976,122.81247c-0.04277,2.21882 -0.23233,4.55068 -0.97772,6.45558c1.19541,-0.65976 2.55852,-1.03147 3.80751,-1.59919c5.59218,-2.5419 10.9919,-4.77158 16.82375,-6.67871c33.26638,-10.87877 66.53277,-21.75754 99.79915,-32.63631c33.26638,-10.87877 66.53277,-21.75754 99.79915,-32.63631c8.11207,-2.65281 16.22413,-5.30561 24.3362,-7.95842c-11.50249,2.92328 -23.00498,5.84657 -34.50747,8.76985c-26.39076,6.70704 -52.78152,13.41409 -79.17228,20.12113c-22.1377,7.86654 -44.2754,15.73308 -66.4131,23.59962c-21.16507,7.52092 -42.33013,15.04184 -63.4952,22.56276zM6.72701,261.42528c0.33654,-0.61568 0.67308,-1.23136 1.00962,-1.84704c-0.57979,0.11298 -1.09866,0.29334 -1.37622,0.77214c-0.21238,0.36637 0.03071,0.71737 0.36659,1.0749zM-31.17782,247.32945c-8.796,-0.53017 -17.592,-1.06035 -26.388,-1.59052c-27.01039,11.39616 -54.02077,22.79233 -81.03116,34.18849c-11.25682,4.74945 -22.51364,9.4989 -33.77045,14.24836c23.71087,-7.8672 47.42173,-15.7344 71.1326,-23.6016c23.35234,-7.74824 46.70468,-15.49648 70.05702,-23.24472zM242.85683,120.84853c-3.70192,0.94082 -7.40383,1.88164 -11.10575,2.82246c-8.54537,3.60544 -17.09073,7.21088 -25.6361,10.81633c1.74566,0.94168 3.49133,1.88336 5.23699,2.82505c5.06883,-2.64887 10.13766,-5.29775 15.20649,-7.94662c5.43279,-2.83907 10.86557,-5.67814 16.29836,-8.51721zM137.61428,175.84625c-9.77833,3.47469 -19.55665,6.94938 -29.33498,10.42407c3.41396,-0.14879 6.82792,-0.29758 10.24187,-0.44638c4.99268,-2.60908 9.98535,-5.21815 14.97803,-7.82723c1.37169,-0.71682 2.74339,-1.43364 4.11508,-2.15046zM170.84079,183.54366c10.55756,-0.46014 21.11513,-0.92027 31.67269,-1.38041c-1.81087,-2.41501 -3.72748,-4.75768 -5.34857,-7.30252c-0.62242,-0.9771 -0.53181,-2.6066 -1.58269,-3.09424c-0.73241,-0.33986 -1.21842,1.08183 -1.92938,1.46453c-4.34678,2.33983 -9.19265,4.09111 -13.70413,6.09891c-3.02029,1.34416 -6.04698,2.8503 -9.10792,4.21373zM202.23684,198.60176c-1.72698,0.54536 -3.45397,1.09073 -5.18095,1.63609c-9.41324,2.9726 -19.24855,5.40666 -28.44805,8.9776c-5.96712,2.31623 -11.73834,5.54943 -17.52799,8.28343c-21.09914,9.96348 -42.19827,19.92696 -63.29741,29.89044c-1.31539,0.62115 -2.63077,1.24231 -3.94616,1.86346c1.00607,0.06064 2.01214,0.12128 3.01822,0.18192c27.23407,-5.93826 54.46814,-11.87651 81.70221,-17.81477c1.04861,-1.01587 2.0946,-2.03356 3.13678,-3.05403c9.52681,-9.32833 19.05361,-18.65666 28.58042,-27.98499c0.66347,-0.64965 1.31425,-1.31326 1.96294,-1.97916zM156.42045,144.45446c3.56684,0.35276 7.13368,0.70553 10.70052,1.05829c9.14653,-3.85909 18.29307,-7.71817 27.4396,-11.57726c-0.3414,-0.18416 -0.6828,-0.36833 -1.0242,-0.55249c-0.96366,0.24491 -1.92731,0.48981 -2.89097,0.73472c-9.67478,2.45879 -19.34957,4.91757 -29.02435,7.37636c-0.70796,0.38762 -1.40812,0.7784 -2.09704,1.17477c-1.03452,0.5952 -2.06904,1.19041 -3.10356,1.78561zM177.43407,132.31636c3.2005,-0.81339 6.40099,-1.62677 9.60149,-2.44016c-1.56476,-0.84409 -3.12951,-1.68819 -4.69427,-2.53228c0.06095,0.18938 0.09688,0.39135 0.10406,0.60764c0.07374,2.22021 -2.97428,3.13456 -5.01128,4.36479zM163.63971,117.25553c-4.41694,-2.38268 -8.83388,-4.76535 -13.25083,-7.14803c-2.9337,-1.58256 -5.98706,-2.96099 -8.80111,-4.74768c-1.9487,-1.23726 -5.12406,-1.75836 -5.64831,-4.00633c-0.52425,-2.24798 2.09303,-4.11996 3.29339,-6.0916c2.57055,-4.22224 5.82512,-8.19631 8.68952,-12.2267c8.68952,-12.2267 17.37904,-24.45341 26.06856,-36.68011c2.38392,-3.35433 4.56664,-7.69262 7.60291,-10.6909c-12.29126,3.22264 -24.58251,6.44528 -36.87377,9.66792c-20.95827,5.49504 -41.91653,10.99008 -62.8748,16.48512c-6.4487,1.69078 -12.8974,3.38156 -19.34609,5.07235c-3.22435,0.84539 -6.34751,2.30833 -9.67305,2.53617l-4.78161,1.25369c-0.21886,0.06261 -0.44999,0.09613 -0.68895,0.09613c-1.38071,0 -2.5,-1.11929 -2.5,-2.5c0,-1.09621 0.70554,-2.02763 1.6873,-2.36493c28.13631,-10.40905 60.90728,-22.53269 89.04359,-32.94174c12.5408,-4.63948 25.0816,-9.27896 37.6224,-13.91843c-25.8714,6.69703 -51.74279,13.39406 -77.61419,20.09109c-22.58879,5.8473 -45.17749,11.69495 -67.76638,17.5419c-4.86115,1.25827 -9.74081,2.40665 -14.62853,3.5567c-1.34004,0.3153 -2.66505,0.77022 -3.99365,1.19177c17.47419,4.32164 34.94838,8.64329 52.42257,12.96493c9.60678,2.37591 20.08462,3.89776 29.37743,7.28013c6.21505,2.26213 12.26112,5.99329 18.20428,8.906c17.95914,8.80167 35.91828,17.60334 53.87741,26.40501c0.18295,0.08966 0.36696,0.17882 0.55191,0.26754zM331.52346,242.91259c-18.4571,1.85168 -36.91419,3.70337 -55.37129,5.55505c-8.62087,3.60601 -17.24174,7.21201 -25.86261,10.81802c9.1855,0.55365 18.37101,1.1073 27.55651,1.66095c-0.37638,-0.37993 -0.74949,-0.7628 -1.11905,-1.14883l-0.24303,0.28493l-3.79143,-3.23386c-0.54445,-0.4586 -0.89038,-1.14538 -0.89038,-1.91296c0,-1.25548 0.92546,-2.29481 2.13141,-2.47302c4.93264,-0.81799 13.06988,-2.16741 18.00252,-2.98541c13.19578,-2.18829 26.39157,-4.37658 39.58735,-6.56488zM297.24953,277.81247c-4.56283,-3.81737 -9.26213,-7.55252 -13.72243,-11.51437c-14.56815,-0.87809 -29.1363,-1.75617 -43.70446,-2.63426c-1.94986,0.8156 -3.89973,1.63121 -5.84959,2.44681c2.95715,0.54687 5.91431,1.09374 8.87146,1.64061c18.135,3.35373 36.27001,6.70747 54.40501,10.0612zM283.229,324.22458c5.69187,-2.84743 11.38375,-5.69486 17.07562,-8.54229c1.78634,-0.89364 3.57269,-1.78728 5.35903,-2.68092c-6.341,1.30072 -12.682,2.60144 -19.023,3.90215c-22.46886,4.609 -45.25224,8.29481 -67.09667,15.31623c-0.71901,0.23111 -1.43802,0.46222 -2.15703,0.69333c10.58311,-1.39655 21.16621,-2.79309 31.74932,-4.18964c11.36424,-1.49962 22.72849,-2.99925 34.09273,-4.49887zM241.90308,315.94364c-29.11022,3.01581 -58.21972,6.03895 -87.33253,9.02944c-0.40055,0.08528 -0.80111,0.17055 -1.20167,0.25581c-5.59189,3.03855 -11.18378,6.07711 -16.77567,9.11566c22.99061,-4.01718 45.98122,-8.03435 68.97184,-12.05153c12.11268,-2.11646 24.22535,-4.23292 36.33803,-6.34939zM1.42602,357.96248c0.82272,-0.34413 1.64544,-0.68827 2.46815,-1.0324c-3.83503,0.81328 -7.67006,1.62656 -11.50509,2.43984c-0.24862,0.10064 -0.49724,0.20128 -0.74586,0.30191c2.352,-0.41097 4.704,-0.82194 7.056,-1.2329c0.90893,-0.15882 1.81786,-0.31764 2.7268,-0.47646zM311.22533,339.06179c14.86341,-3.77131 29.72681,-7.54262 44.59022,-11.31394c-1.01548,-0.86614 -2.03096,-1.73229 -3.04643,-2.59843c-10.89002,3.6469 -21.78003,7.29379 -32.67005,10.94069c-2.95791,0.99056 -5.91582,1.98112 -8.87373,2.97167zM573.80198,39.58347c-0.28156,-0.08544 -0.59822,-0.22508 -0.88122,-0.4533c-0.36717,0.12007 -0.73433,0.24014 -1.1015,0.36021c0.66091,0.03103 1.32181,0.06206 1.98272,0.09309zM193.73364,297.60475c-18.4848,7.04491 -36.9696,14.08981 -55.45439,21.13472c-3.71176,2.31128 -7.42352,4.62256 -11.13527,6.93384c8.15382,-1.72779 16.308,-3.45389 24.46274,-5.17736c14.04231,-7.6304 28.08462,-15.26079 42.12693,-22.89119zM113.89679,328.03208c-0.88692,0.33802 -1.77383,0.67604 -2.66075,1.01406c0.52184,-0.1107 1.04369,-0.22139 1.56553,-0.33208c0.36507,-0.22733 0.73014,-0.45465 1.09522,-0.68198zM34.56389,344.10131c4.28048,-2.33377 8.56096,-4.66753 12.84144,-7.0013c-9.49837,3.84482 -18.99673,7.68965 -28.4951,11.53447c3.25631,-0.69055 6.51261,-1.38111 9.76892,-2.07166c1.96158,-0.82051 3.92316,-1.64101 5.88474,-2.46152zM38.17003,351.54216c3.70859,-1.41341 7.41718,-2.82683 11.12577,-4.24024c-5.54089,1.17504 -11.08178,2.35007 -16.62267,3.52511c-1.5076,0.82196 -3.0152,1.64392 -4.5228,2.46588c3.3399,-0.58358 6.6798,-1.16717 10.0197,-1.75075zM146.54874,253.03274c4.95639,-5.01192 10.04748,-9.90809 15.13839,-14.79744c-18.81519,4.10256 -37.63037,8.20512 -56.44556,12.30768c13.76906,0.82992 27.53811,1.65984 41.30717,2.48976zM212.85413,143.80378c-0.51313,-0.2768 -1.02625,-0.5536 -1.53938,-0.8304c-2.74548,1.43473 -5.49096,2.86947 -8.23644,4.3042c3.25861,-1.15793 6.51721,-2.31586 9.77582,-3.4738zM226.59267,257.85734c2.81903,-1.75539 5.63806,-3.51077 8.45709,-5.26616c-11.98833,1.20271 -23.97666,2.40543 -35.96499,3.60814c9.1693,0.55267 18.3386,1.10535 27.50789,1.65802zM90.95222,342.31946c3.11981,-1.94268 6.23962,-3.88536 9.35944,-5.82804c-6.46265,1.36936 -12.92538,2.73831 -19.38809,4.10737c-5.60916,2.13776 -11.21832,4.27551 -16.82748,6.41327c8.95204,-1.5642 17.90408,-3.1284 26.85613,-4.6926zM218.78437,147.00279c-2.65699,0.94415 -5.31398,1.8883 -7.97097,2.83245c5.45264,0.54571 10.90296,1.11507 16.35279,1.68904c-2.79394,-1.50716 -5.58788,-3.01433 -8.38182,-4.52149zM206.00264,140.10781c-1.93237,-1.0424 -3.86474,-2.0848 -5.79712,-3.1272c-7.55492,3.18756 -15.10985,6.37511 -22.66477,9.56267c4.52583,0.44761 9.05166,0.89522 13.57748,1.34283c4.96147,-2.59277 9.92293,-5.18553 14.8844,-7.7783z"/></g></g></svg>