<svg version="1.1" xmlns="http://www.w3.org/2000/svg" xmlns:xlink="http://www.w3.org/1999/xlink" width="1042.353" height="290.28529" viewBox="0,0,1042.353,290.28529"><g transform="translate(81.05067,-9.19264)"><g data-paper-data="{&quot;isPaintingLayer&quot;:true}" fill="#9966ff" fill-rule="nonzero" stroke="none" stroke-width="0.5" stroke-linecap="butt" stroke-linejoin="miter" stroke-miterlimit="10" stroke-dasharray="" stroke-dashoffset="0" style="mix-blend-mode: normal"><path d="M531.59415,222.30283c-0.39998,-2.4678 2.06781,-2.86778 2.06781,-2.86778c4.93559,-0.79996 10.15074,-1.64524 15.08633,-2.4452c34.54914,-5.59974 69.09827,-11.19948 103.64741,-16.79922c34.54914,-5.59974 69.09827,-11.19948 103.64741,-16.79922c6.27335,-1.01679 12.5467,-2.03357 18.82004,-3.05036c-29.42322,3.9603 -58.84644,7.92059 -88.26966,11.88089c-34.6872,4.66882 -69.37441,9.33763 -104.06161,14.00645c-34.6872,4.66882 -69.37441,9.33763 -104.06161,14.00645c-34.6872,4.66882 -69.37441,9.33763 -104.06161,14.00645c-17.72895,2.38628 -35.45791,4.77255 -53.18686,7.15883c-6.41103,9.65516 -12.82206,19.31032 -19.23308,28.96549c-5.26009,7.92182 -12.07905,16.014 -16.17752,24.76858v1.84374c0,1.38071 -1.11929,2.5 -2.5,2.5c-0.84441,0 -1.59105,-0.41865 -2.04367,-1.0597c-9.7756,-13.49872 -22.43848,-30.98435 -32.21409,-44.48307c-0.62066,-0.85705 -1.24161,-1.71391 -1.86282,-2.57061c-13.75422,1.85129 -27.50844,3.70257 -41.26266,5.55386c-9.86686,1.32806 -19.8263,3.30259 -29.78169,3.63185l0.0498,0.36999l-4.91428,0.66145c-0.12217,0.01835 -0.24724,0.02787 -0.37452,0.02787c-1.38071,0 -2.5,-1.11929 -2.5,-2.5c0,-0.50403 0.14916,-0.97323 0.40575,-1.36585c11.9689,-18.97509 26.58507,-42.14706 38.55397,-61.12215c-6.56361,-9.08188 -13.09161,-18.18825 -19.55184,-27.34038c-30.3172,-17.12639 -60.26015,-34.94866 -90.36775,-52.44134c-30.26288,-17.5829 -60.52575,-35.1658 -90.78863,-52.7487c-18.73416,-10.88465 -37.46832,-21.7693 -56.20248,-32.65396c-5.76436,-3.34912 -11.52871,-6.69825 -17.29307,-10.04737c-2.88218,-1.67456 -6.09596,-2.8776 -8.64654,-5.02369l-4.28207,-2.48791c-0.76666,-0.42702 -1.28528,-1.24573 -1.28528,-2.18557c0,-1.38071 1.11929,-2.5 2.5,-2.5c0.25273,0 0.4967,0.0375 0.72665,0.10724l3.08102,0.8588c14.58458,4.06529 28.5819,9.27007 42.76983,14.54251c7.81148,2.90286 15.93408,5.41991 23.56614,8.76183c7.63206,3.34193 14.99064,7.60377 22.42174,11.37534c31.21028,15.8404 62.42057,31.68079 93.63085,47.52119c31.21028,15.8404 62.42057,31.68079 93.63085,47.52119c11.79069,5.98422 23.58138,11.96844 35.37208,17.95266c1.77014,-0.56163 3.29166,-1.03202 3.46414,-1.08638c4.76881,-1.50281 9.53763,-3.00561 14.30644,-4.50842c19.07525,-6.01122 38.1505,-12.02245 57.22575,-18.03367c20.66486,-6.51216 41.32971,-13.02432 61.99457,-19.53647c9.49472,-2.99209 18.9734,-6.70846 28.74399,-8.60078l-0.13111,-0.41605l4.71319,-1.48528c0.25318,-0.0863 0.52464,-0.13312 0.80703,-0.13312c1.38071,0 2.5,1.11929 2.5,2.5c0,0.52377 -0.16107,1.00992 -0.43638,1.41161c-3.68774,5.55383 -10.12223,15.24432 -13.80997,20.79814c-19.36064,29.1576 -38.72129,58.31519 -58.08193,87.47279c-4.34789,6.54803 -8.69579,13.09607 -13.04368,19.6441c16.28039,-2.1913 32.56078,-4.3826 48.84117,-6.57391c34.6872,-4.66882 69.37441,-9.33763 104.06161,-14.00645c34.6872,-4.66882 69.37441,-9.33763 104.06161,-14.00645c34.6872,-4.66882 69.37441,-9.33763 104.06161,-14.00645c34.6872,-4.66882 69.37441,-9.33763 104.06161,-14.00645c34.6872,-4.66882 69.37441,-9.33763 104.06161,-14.00645c17.81984,-2.39851 35.63968,-4.79702 53.45952,-7.19553c1.81015,-0.47991 3.6204,-0.89929 5.43173,-0.7311c0.19084,-0.02569 0.38168,-0.05137 0.57252,-0.07706l4.91428,-0.66145c0.12217,-0.01835 0.24724,-0.02787 0.37452,-0.02787c1.38071,0 2.5,1.11929 2.5,2.5c0,1.25839 -0.92976,2.29963 -2.1398,2.47424l-4.89581,0.79352c-3.12491,1.16018 -6.58079,1.06662 -9.87118,1.59993c-6.58079,1.06662 -13.16158,2.13323 -19.74236,3.19985c-21.38756,3.46651 -42.77512,6.93301 -64.16268,10.39952c-34.54914,5.59974 -69.09827,11.19948 -103.64741,16.79922c-34.54914,5.59974 -69.09827,11.19948 -103.64741,16.79922c-34.54914,5.59974 -69.09827,11.19948 -103.64741,16.79922c-4.93559,0.79996 -9.87118,1.59993 -14.80677,2.39989l-0.27956,0.04531c0,0 -2.4678,0.39998 -2.86778,-2.06781zM318.3096,236.747c5.15641,-7.76568 10.31282,-15.53135 15.46923,-23.29703c19.36064,-29.1576 38.72129,-58.31519 58.08193,-87.47279c3.30617,-4.97917 6.61234,-9.95834 9.91851,-14.93752c-2.28385,1.06026 -4.84874,1.53141 -7.56183,2.38639c-4.76881,1.50281 -9.53763,3.00561 -14.30644,4.50842c-22.25446,7.01309 -44.50892,14.02619 -66.76338,21.03928c-19.07525,6.01122 -38.1505,12.02245 -57.22575,18.03367c-4.29818,1.35449 -8.59636,2.70899 -12.89454,4.06348c5.40368,2.74257 10.80736,5.48514 16.21104,8.22771c5.94482,3.01722 11.88963,6.03444 17.83445,9.05165c2.97241,1.50861 6.28477,2.481 8.91722,4.52583l4.41077,2.23863c0.83805,0.4037 1.41639,1.26111 1.41639,2.25359c0,1.38071 -1.11929,2.5 -2.5,2.5c-0.36557,0 -0.71281,-0.07847 -1.02581,-0.21947c-7.67395,-3.24883 -18.41007,-7.79405 -26.08403,-11.04287c-9.93452,-4.20586 -19.86905,-8.41171 -29.80357,-12.61757c-0.21547,0.48534 -0.42754,0.97422 -0.69667,1.41714c-2.59482,4.27026 -5.33669,8.4606 -8.00255,12.68697c-3.38467,5.36593 -6.76933,10.73187 -10.154,16.0978c12.01412,16.58219 23.9459,33.22623 35.94033,49.81953c6.72972,-0.9058 13.45944,-1.81161 20.18916,-2.71741c16.20984,-2.18181 32.41969,-4.36361 48.62953,-6.54542zM243.85451,246.76848c-11.09356,-15.26872 -22.25454,-30.49553 -33.32912,-45.78215c-11.61204,18.40933 -23.22408,36.81866 -34.83612,55.22799l-0.07544,0.1196c3.04775,-1.23077 6.29982,-1.22835 9.82589,-1.70295c4.95531,-0.66697 9.91063,-1.33395 14.86594,-2.00092c14.51628,-1.95386 29.03257,-3.90772 43.54885,-5.86157zM314.63088,242.28724c-14.76128,1.98683 -29.52256,3.97367 -44.28384,5.9605c-5.84339,0.78651 -11.68678,1.57301 -17.53018,2.35952c0.09539,0.13174 0.19079,0.26348 0.28619,0.39521c9.65051,13.32598 19.30102,26.65197 28.95154,39.97795c0.62464,-0.86136 1.36718,-1.67262 1.93972,-2.55377c2.72365,-4.19172 5.53222,-8.33166 8.29742,-12.49611c7.44638,-11.21443 14.89277,-22.42887 22.33915,-33.6433zM210.38889,191.83073c3.0289,-4.80191 6.0578,-9.60382 9.08669,-14.40573c2.66634,-4.22713 5.27705,-8.4978 8.00255,-12.68697c0.14048,-0.21593 0.27431,-0.43804 0.40425,-0.6638c-20.78894,-8.80116 -41.57789,-17.60232 -62.36683,-26.40348c-27.3487,-11.57828 -54.69739,-23.15656 -82.04609,-34.73484c5.49659,3.19355 10.99319,6.3871 16.48978,9.58065c30.40858,17.66756 60.97641,35.0901 91.2095,53.05606c6.44776,8.72142 12.84729,17.4797 19.22014,26.25811zM81.6933,101.90395c-0.49508,-0.52666 -0.90156,-1.37484 -0.38399,-2.59737c0.97465,-2.30219 3.27683,-1.32754 3.27683,-1.32754c27.62623,11.69578 55.25247,23.39156 82.8787,35.08733c18.76597,7.94472 37.53195,15.88944 56.29792,23.83416c-8.24975,-4.18706 -16.49951,-8.37412 -24.74926,-12.56118c-31.21028,-15.8404 -62.42057,-31.68079 -93.63085,-47.52119c-31.21028,-15.8404 -62.42057,-31.68079 -93.63085,-47.52119c-7.34609,-3.72842 -14.61989,-7.95022 -22.16438,-11.2538c-7.54449,-3.30358 -15.58016,-5.78549 -23.30228,-8.65514c-8.28316,-3.07814 -16.4993,-6.13465 -24.80767,-8.95027c2.38913,1.3881 4.77827,2.7762 7.1674,4.1643c20.17525,11.72193 40.3505,23.44387 60.52575,35.1658c24.17423,14.04536 48.34846,28.09073 72.52269,42.13609z"/></g></g></svg>