<svg version="1.1" xmlns="http://www.w3.org/2000/svg" xmlns:xlink="http://www.w3.org/1999/xlink" width="470.64896" height="336.68526" viewBox="0,0,470.64896,336.68526"><g transform="translate(48.0403,-39.40211)"><g data-paper-data="{&quot;isPaintingLayer&quot;:true}" fill="#9966ff" fill-rule="nonzero" stroke="none" stroke-width="0.5" stroke-linecap="butt" stroke-linejoin="miter" stroke-miterlimit="10" stroke-dasharray="" stroke-dashoffset="0" style="mix-blend-mode: normal"><path d="M-47.94299,317.10379c-0.60634,-2.42536 1.81902,-3.0317 1.81902,-3.0317l1.15529,-0.28882c1.61963,-0.4049 3.23925,-0.8098 4.85888,-1.21471c21.34923,-5.18491 42.69848,-10.36971 64.04773,-15.5545c0.06459,-1.70162 0.1165,-3.38272 0.1165,-5.02112c0,-7.09753 -0.50311,-13.68764 1.59057,-20.5157c0.49825,-1.62492 3.04515,-10.37396 4.09892,-10.98024c1.94578,-1.11948 4.46916,0.46537 6.68028,0.853c6.94129,1.21687 12.5276,5.49748 18.50416,9.01856c17.32623,10.20772 34.81523,19.97534 51.13058,31.74353c2.70345,1.94999 5.40691,3.89998 8.11036,5.84996c1.35173,0.97499 2.809,1.81826 4.05518,2.92498c0.48755,0.43299 0.50174,1.93977 1.07711,1.63296c0.98353,-0.52447 0.86687,-2.06801 1.48194,-2.99757c0.9197,-1.38994 2.06548,-2.61628 3.09822,-3.92441c3.09822,-3.92441 6.19644,-7.84883 9.29466,-11.77324c8.25693,-10.45877 16.38098,-21.02017 24.53208,-31.56156c2.03902,-2.63695 3.87422,-5.44493 6.11705,-7.91086c1.11789,-1.2291 1.97926,-3.50297 3.63793,-3.40716c1.58761,0.0917 7.85156,5.91718 9.36709,7.26432c9.51251,8.45556 18.55507,17.41772 27.72222,26.24535c8.38004,8.06967 16.64926,16.17802 25.50863,23.72113c2.53801,2.16093 5.25216,4.13063 7.61403,6.48279c0.79862,0.79534 0.97841,2.68293 2.10491,2.64623c1.1265,-0.0367 1.18305,-1.93199 1.92821,-2.77762c2.20376,-2.50091 4.78395,-4.64309 7.17592,-6.96463c9.5679,-9.28618 19.1358,-18.57236 28.7037,-27.85853c15.5478,-15.09 31.07737,-30.19903 46.6435,-45.27012c3.27324,-3.16914 7.09987,-5.86908 11.05829,-8.14635c1.98179,-1.14012 3.87369,-3.63912 6.10281,-3.13081c2.22912,0.50831 2.82651,3.59718 4.14224,5.467c2.48936,3.53768 4.04504,7.85999 5.89419,11.74321c7.16556,15.04768 14.33112,30.09535 21.49668,45.14303c2.12192,4.45603 4.2417,8.90589 6.449,13.32037c0.74537,1.4907 1.51585,2.96912 2.23607,4.47214c0.38062,0.79431 0.63047,1.65218 1.06557,2.41801c0.18438,0.32453 0.47556,1.04226 0.77005,0.81293c0.92644,-0.72146 1.22015,-2.01411 1.95178,-2.93254c1.03845,-1.30361 2.22988,-2.47765 3.34482,-3.71647c3.34482,-3.71647 6.68965,-7.43294 10.03447,-11.14941c4.3659,-4.851 8.62261,-11.16571 14.34351,-14.5013c1.51717,-0.88459 3.44768,-3.11521 4.85008,-2.05804c1.94828,1.46867 1.39006,4.6877 1.82344,7.08874c0.59209,3.28033 0.47513,6.64971 0.71247,9.97459c1.06907,14.97655 1.18877,30.05419 1.68608,45.06066c0.07286,2.19845 1.11643,12.37173 -0.41112,13.92627c-1.57271,1.60049 -4.41856,0.785 -6.62784,1.17749c-4.73301,0.36408 -10.17259,1.48428 -14.90321,1.11909c-4.88907,-0.37742 -10.21407,-2.2419 -15.00791,-3.3072c-9.76187,-2.1693 -19.52374,-4.33861 -29.28561,-6.50791c-0.15787,-0.03508 -9.80296,-2.17741 -9.8822,-2.19919c-1.64689,-0.45272 -3.25709,-1.03155 -4.86822,-1.59851c-1.23238,-0.43368 -2.35541,-1.47541 -3.65984,-1.40255c-2.07091,0.11568 -5.46862,3.97777 -6.53664,5.0064c-3.60125,3.46843 -7.22292,6.91602 -10.83427,10.37394c-1.40464,1.29367 -2.50636,3.02612 -4.21392,3.88102c-0.43527,0.21792 -9.71751,1.73224 -10.57271,1.87477c-8.24054,1.37342 -16.47609,2.71061 -24.74364,3.91161c-3.29871,0.47919 -6.59085,1.00601 -9.89613,1.43758c-1.47082,0.19204 -2.97794,0.84683 -4.42121,0.50455c-0.60411,-0.14327 -8.57173,-4.74118 -9.45691,-5.24699c-5.5997,-3.19983 -11.21682,-6.33395 -16.65874,-9.79645c-2.81233,-1.78939 -5.66274,-3.52032 -8.43661,-5.36875c-1.01111,-0.67377 -1.77414,-1.91445 -2.97363,-2.10814c-1.33848,-0.21614 -2.62993,0.66061 -3.94489,0.99092c-34.32676,7.00546 -68.6132,14.00279 -103.10558,20.14599c-22.97184,4.09136 -45.94366,8.18278 -68.91551,12.27407c-2.11303,0.37633 -7.75297,1.39706 -9.87694,1.7102c-1.99128,0.29358 -4.093,1.45912 -5.9878,0.78008c-2.26884,-0.81308 -4.78306,-2.50919 -5.36405,-4.84824c-0.53195,-2.14158 1.69389,-4.07781 2.65333,-6.06498c1.44931,-3.00177 3.19235,-5.85264 4.78852,-8.77896c3.08206,-5.6245 7.29116,-10.48306 11.20356,-15.5547c6.10803,-7.91782 12.21607,-15.83565 18.3241,-23.75347c3.05371,-3.95851 6.08176,-7.93889 9.16205,-11.87673c0.9384,-1.19965 1.66631,-2.61804 2.714,-3.70776c-1.92894,-0.47903 -3.64694,-1.98692 -5.16753,-2.92267c-2.83886,-1.74699 -5.72711,-3.41615 -8.51658,-5.24097c-0.54868,-0.35894 -0.91065,-1.18384 -1.56627,-1.18984c-1.3475,-0.01233 -2.58574,0.76 -3.87861,1.14c-10.7567,2.61234 -21.5134,5.2247 -32.2701,7.83706c-0.0001,0.3587 -0.00016,0.7174 -0.00016,1.0761c0,3.18467 -0.42949,6.39316 -0.04012,9.55394c0.45127,3.66324 3.09192,8.13087 4.38544,11.58027c0,0 0.87781,2.34082 -1.46301,3.21863c-2.34082,0.87781 -3.21863,-1.46301 -3.21863,-1.46301c-1.42222,-3.79258 -4.07819,-8.40873 -4.62357,-12.44376c-0.44345,-3.2809 -0.4521,-6.75285 -0.35058,-10.23243c-20.8858,5.07229 -41.7716,10.14458 -62.65743,15.21675c-1.61418,0.40355 -3.22836,0.8071 -4.84254,1.21065l-1.15529,0.28882c0,0 -2.42536,0.60634 -3.0317,-1.81902zM29.05833,295.77054c10.36213,-2.5165 20.72426,-5.03301 31.08638,-7.54952c1.94631,-0.40666 3.85549,-1.35948 5.83892,-1.21997c1.29217,0.09089 2.28878,1.21545 3.40644,1.87028c4.16383,2.43959 8.9623,4.90789 12.77487,7.86146c1.92925,1.49457 4.78911,2.54463 5.44378,4.89562c0.39076,1.40329 -2.28872,1.82143 -3.27475,2.89364c-3.18194,3.46003 -5.86881,7.72451 -8.74339,11.45082c-7.12604,9.23746 -14.25208,18.47492 -21.37812,27.71238c-3.74247,4.85135 -7.8471,9.50327 -10.773,14.89494c-1.59617,2.92632 -2.99638,5.96838 -4.78852,8.77896c-0.61887,0.97055 -2.01288,1.56942 -2.13519,2.71398c-0.07065,0.66109 1.07644,0.96171 1.7412,0.97286c1.32384,0.0222 2.57388,-0.62649 3.87366,-0.87869c8.16593,-1.58446 16.40664,-2.87339 24.59721,-4.33216c18.0493,-3.21464 36.0986,-6.42927 54.1479,-9.64391c34.45125,-6.13587 68.69665,-13.12536 102.9825,-20.12248c1.95105,-0.33623 3.90121,-1.33968 5.85315,-1.00868c0.60206,0.10209 8.25751,5.03895 8.96786,5.49099c6.79227,4.32235 13.68356,8.36375 20.67336,12.35792c2.65881,1.51932 4.94502,3.90207 7.90796,4.67579c0.91042,0.23774 1.842,-0.38872 2.77068,-0.54019c3.28986,-0.5366 6.59742,-0.95839 9.89613,-1.43758c8.2331,-1.196 16.43422,-2.52782 24.64044,-3.89552c3.04585,-0.50764 6.3939,-0.03107 9.15517,-1.41321c1.26834,-0.63486 1.99698,-2.0147 2.99547,-3.02205c3.61136,-3.45792 7.21356,-6.9258 10.83427,-10.37394c2.66966,-2.54241 5.53146,-6.00287 9.63048,-6.3817c1.93254,-0.1786 3.73287,1.06522 5.58666,1.63975c4.74888,1.47178 9.41512,2.5869 14.27238,3.66629c9.76187,2.1693 19.52374,4.33861 29.28561,6.50791c4.55332,1.01185 9.63223,2.8373 14.2777,3.20071c4.48093,0.35054 9.68299,-0.77215 14.16528,-1.11694c1.11424,0.13684 2.49962,1.15178 3.34271,0.41053c0.71181,-0.62583 -0.53383,-1.82584 -0.66535,-2.76447c-0.57103,-4.07527 -0.28161,-8.48725 -0.41778,-12.5962c-0.44013,-13.28094 -0.56315,-26.61828 -1.51051,-39.87278c-0.17298,-2.42014 -1.34259,-6.89429 -0.80634,-10.14249c-0.79221,0.53272 -1.65034,0.99847 -2.34704,1.64188c-3.54668,3.27536 -6.64141,7.39527 -9.87236,10.9852c-4.44354,4.93727 -8.72183,10.1311 -13.37929,14.86588c-1.52749,1.55285 -2.61586,4.00886 -4.73787,4.5004c-1.84305,0.42692 -3.77031,-0.99385 -5.23596,-2.19007c-1.09038,-0.88994 -1.35529,-2.46749 -2.00217,-3.71747c-1.53573,-2.96751 -3.01684,-5.96322 -4.48278,-8.96582c-8.75434,-17.93105 -17.16219,-36.04033 -25.74113,-54.05611c-1.79474,-3.76896 -4.04634,-7.53361 -5.68277,-11.34626c-0.43118,-1.00459 0.11487,-2.8957 -0.95099,-3.13875c-1.06586,-0.24305 -1.36972,1.72621 -2.21769,2.41619c-0.85761,0.69783 -7.187,4.67535 -8.13677,5.41202c-2.13179,1.65348 -3.8647,3.76539 -5.80067,5.64436c-14.35185,13.92927 -28.7037,27.85853 -43.05554,41.7878c-9.5679,9.28618 -19.1358,18.57236 -28.7037,27.85853c-2.39197,2.32154 -4.65862,4.77962 -7.17592,6.96463c-1.68997,1.46688 -3.01111,4.11414 -5.24772,4.18701c-1.20596,0.03929 -8.02879,-5.98188 -9.31613,-7.07796c-10.22241,-8.70364 -19.87295,-17.85656 -29.54245,-27.16794c-7.90712,-7.61427 -15.63396,-15.49581 -23.83879,-22.78808c-2.4915,-2.21439 -5.20846,-4.19864 -7.47409,-6.64364c-0.74099,-0.79966 -0.91325,-2.13358 -1.84405,-2.70114c-0.42533,-0.25935 0.10611,1.05802 -0.14668,1.48728c-0.84574,1.43614 -2.03902,2.63695 -3.05852,3.95543c-2.03902,2.63695 -4.07803,5.27391 -6.11705,7.91086c-7.142,9.23637 -14.26984,18.48184 -21.50457,27.64583c-4.10433,5.19881 -7.98956,10.7516 -12.39289,15.69766c-1.49937,1.68418 -2.52527,4.31105 -4.7145,4.85125c-1.72564,0.42581 -3.18566,-1.58934 -4.69394,-2.52968c-4.19946,-2.61816 -8.1509,-5.8792 -12.16554,-8.77495c-16.18898,-11.67704 -33.55098,-21.36174 -50.74362,-31.49076c-3.9833,-2.34675 -8.29132,-5.7356 -12.58073,-7.44582c-1.4302,-0.57023 -3.03993,-0.54312 -4.50767,-1.00827c-1.06948,-0.33894 -2.09213,-1.95101 -3.06457,-1.39153c-0.97244,0.55948 -0.09259,2.25387 -0.3373,3.34875c-1.1408,5.10398 -2.86117,8.4977 -2.84564,13.81329c0.01341,4.59243 0.00835,9.18505 0.0039,13.7776z"/><path d="M-16.49061,113.79324c-1.5,2 -3.5,0.5 -3.5,0.5l-2.00601,-1.5045c-2.53193,-1.93282 -5.11873,-4.10122 -6.57576,-6.9338c-1.04397,-2.02957 -3.28935,-3.99183 -2.84114,-6.22972c0.3877,-1.93576 3.1251,-2.42182 4.78724,-3.48708c5.55953,-3.56309 11.75895,-6.41397 17.55791,-9.57704c14.63159,-7.98087 29.26319,-15.96174 43.89478,-23.94261c4.38902,-2.39401 8.76306,-4.81904 13.16843,-7.18278c1.64484,-0.88255 3.14845,-2.13119 4.95069,-2.61729c0.37613,-0.10145 9.75586,-0.21965 10.3195,-0.22813c8.33239,-0.1253 16.66478,-0.2506 24.99717,-0.3759c34.99604,-0.52626 69.99209,-1.05251 104.98813,-1.57877c14.9983,-0.22554 29.99661,-0.45108 44.99491,-0.67662c3.33296,-0.05012 6.67432,-0.39224 9.99887,-0.15036c2.3676,0.17226 5.33682,-0.68287 7.05762,0.95239c1.1166,1.0611 -1.94776,9.05084 -2.2328,9.8925c-3.74231,11.05017 -7.48463,22.10034 -11.22694,33.1505c-11.22694,33.1505 -22.45388,66.30101 -33.68082,99.45151c-2.67308,7.89298 -5.34616,15.78595 -8.01924,23.67893c-0.58397,1.72431 -3.31916,10.43517 -4.61005,10.97567c-2.12962,0.89168 -4.4113,-1.37987 -6.55528,-2.23644c-3.09543,-1.23669 -5.9995,-2.90697 -8.99924,-4.36046c-16.49861,-7.99417 -32.99723,-15.98835 -49.49584,-23.98252c-26.99773,-13.08138 -53.99547,-26.16275 -80.9932,-39.24413c0,0 -2.24981,-1.09011 -1.1597,-3.33993c1.09011,-2.24981 3.33993,-1.1597 3.33993,-1.1597c26.99773,13.08138 53.99547,26.16275 80.9932,39.24413c14.99874,7.26743 29.99748,14.53486 44.99622,21.80229c4.39445,2.12927 9.35101,3.96948 13.49887,6.54069c0.91736,0.56866 1.44839,2.54087 2.44396,2.12402c0.99558,-0.41685 -0.03702,-2.17905 0.2015,-3.23169c0.36831,-1.62546 1.06923,-3.15719 1.60385,-4.73579c2.67308,-7.89298 5.34616,-15.78595 8.01924,-23.67893c11.22694,-33.1505 22.45388,-66.30101 33.68082,-99.45151c3.2077,-9.47157 6.41539,-18.94314 9.62309,-28.41472c1.06923,-3.15719 1.60634,-6.54809 3.2077,-9.47157c0.08247,-0.15056 0.33009,-0.28846 0.59526,-0.39756c-6.99468,1.91924 -14.93855,1.0831 -22.2107,1.19246c-11.66535,0.17542 -23.3307,0.35084 -34.99604,0.52626c-34.99604,0.52626 -69.99209,1.05251 -104.98813,1.57877c-8.33239,0.1253 -16.66478,0.2506 -24.99717,0.3759c-3.04068,0.04572 -6.1882,-0.73304 -9.12285,0.06424c-1.41572,0.38462 -2.54584,1.45876 -3.82826,2.17123c-4.37017,2.42791 -8.77954,4.78884 -13.16843,7.18278c-14.63159,7.98087 -29.26319,15.96174 -43.89478,23.94261c-4.38948,2.39426 -8.77896,4.78852 -13.16843,7.18278c-1.46316,0.79809 -2.85045,1.7546 -4.38948,2.39426c-0.73629,0.30602 -2.34141,-0.38757 -2.35672,0.40963c-0.02104,1.09563 1.63926,1.47389 2.30382,2.34521c0.66202,0.868 0.88862,2.0446 1.64478,2.83193c1.04357,1.08658 2.42901,1.7829 3.64351,2.67435l2.00601,1.5045c0,0 2,1.5 0.5,3.5z"/><path d="M93.12351,142.32327c0,-1.38071 1.11929,-2.5 2.5,-2.5c1.38071,0 2.5,1.11929 2.5,2.5c0,1.38071 -1.11929,2.5 -2.5,2.5c-1.38071,0 -2.5,-1.11929 -2.5,-2.5z"/><path d="M317.84876,170.3488c-2.5,0.00303 -2.50303,-2.49697 -2.50303,-2.49697l-0.00126,-1.03771c0.01417,-6.57316 -1.84042,-12.6672 -3.31493,-19.05674c-2.49467,-10.81124 -5.29517,-21.55375 -7.98615,-32.31767c-1.20601,-4.82405 -3.02443,-9.92986 -3.69395,-14.85302c-1.0042,-7.38415 0.39341,-15.61567 0.88309,-23.00405c0.33021,-4.98231 0.5389,-9.99469 0.99198,-14.96716c0.1859,-2.04027 -0.37226,-4.35084 0.68051,-6.10839c0.39401,-0.65778 8.24264,-5.46448 9.307,-6.12824c4.2388,-2.64342 8.43681,-5.37984 12.72783,-7.9374c1.72767,-1.02974 3.24031,-2.73552 5.2338,-3.00239c1.99349,-0.26686 3.90152,0.981 5.83921,1.52007c0.9968,0.27731 9.9786,2.96518 10.43002,3.32261c1.48413,1.17514 1.96123,3.23891 2.90437,4.88029c1.6607,2.89019 3.22052,5.83718 4.83077,8.75578c4.02564,7.29648 8.05129,14.59296 12.07693,21.88944c0.27513,0.49867 4.91069,8.8748 5.01237,9.1694c2.03601,5.89941 1.98089,13.53978 2.86707,19.72572c2.12713,14.84841 4.25427,29.69682 6.3814,44.54523c0.4727,3.29965 1.04095,6.58701 1.41809,9.89894c0.23536,2.06685 1.32055,4.27814 0.56232,6.21524c-0.75824,1.9371 -3.0562,2.82412 -4.6321,4.182c-5.02793,4.33233 -10.28288,8.53754 -15.52228,12.61185c-1.59611,1.24118 -2.92323,3.03572 -4.85315,3.63864c-1.49198,0.46611 -3.1002,-0.40827 -4.64077,-0.67266c-3.2853,-0.56382 -6.54113,-1.28765 -9.8117,-1.93147c-9.8117,-1.93147 -19.6234,-3.86294 -29.4351,-5.79441c-4.88239,-0.96112 -10.19723,-1.51897 -14.95759,-2.95693c-4.76037,-1.43796 -9.49522,-3.91581 -14.09322,-5.81843c-9.24017,-3.82352 -18.48034,-7.64704 -27.7205,-11.47055c0,0 -2.31004,-0.95588 -1.35416,-3.26592c0.95588,-2.31004 3.26592,-1.35416 3.26592,-1.35416c9.24017,3.82352 18.48034,7.64704 27.7205,11.47055c4.44503,1.83932 9.02448,4.26175 13.62729,5.65212c4.6028,1.39037 9.75754,1.90834 14.4775,2.83748c9.8117,1.93147 19.6234,3.86294 29.4351,5.79441c3.27057,0.64382 6.56285,1.18577 9.8117,1.93147c0.8356,0.19179 1.66085,1.01772 2.46723,0.72658c1.23716,-0.44667 1.90943,-1.81115 2.90799,-2.66728c3.78984,-3.24926 7.76716,-6.31082 11.64171,-9.45889c1.29352,-1.05099 2.54903,-2.15057 3.88057,-3.15296c1.00712,-0.75817 2.66955,-0.95005 3.12904,-2.12393c0.45949,-1.17387 -0.63094,-2.44331 -0.85577,-3.6837c-0.5945,-3.27989 -0.94539,-6.59929 -1.41809,-9.89894c-2.12713,-14.84841 -4.25427,-29.69682 -6.3814,-44.54523c-0.70901,-4.94925 -1.44049,-9.89602 -2.12713,-14.84841c-0.18464,-1.33173 -0.09046,-2.72816 -0.53154,-3.99822c-1.04439,-3.00721 -3.11135,-5.55484 -4.64918,-8.34215c-4.02564,-7.29648 -8.05129,-14.59296 -12.07693,-21.88944c-1.61026,-2.91859 -3.28246,-5.80386 -4.83077,-8.75578c-0.58695,-1.11903 -0.67218,-2.6253 -1.66672,-3.40481c-1.06498,-0.83471 -2.63364,-0.62541 -3.93738,-0.98761c-1.60585,-0.44613 -3.20509,-0.91849 -4.78913,-1.43674c-1.25978,-0.41216 -2.42528,-1.52928 -3.73905,-1.35341c-1.31377,0.17587 -2.14441,1.56021 -3.25142,2.28921c-4.17006,2.74609 -8.49098,5.29519 -12.72783,7.9374c-1.4142,0.88193 -2.80172,1.80817 -4.24261,2.6458c-1.11518,0.64828 -2.75799,0.70257 -3.42083,1.80915c-0.66285,1.10659 0.06451,2.5806 0.01919,3.86972c-0.1753,4.98597 -0.66202,9.98877 -0.99198,14.96716c-0.46713,7.04819 -1.88106,15.01718 -0.9096,22.06247c0.6512,4.72272 2.42515,9.62337 3.58212,14.25126c2.69834,10.79334 5.50546,21.56536 8.0074,32.40605c1.56572,6.78479 3.4135,13.18968 3.44297,20.17498l0.00126,1.03771c0,0 0.00303,2.5 -2.49697,2.50303z"/><path d="M333.36375,142.32327c0,-1.38071 1.11929,-2.5 2.5,-2.5c1.38071,0 2.5,1.11929 2.5,2.5c0,1.38071 -1.11929,2.5 -2.5,2.5c-1.38071,0 -2.5,-1.11929 -2.5,-2.5z"/></g></g></svg>