<svg version="1.1" xmlns="http://www.w3.org/2000/svg" xmlns:xlink="http://www.w3.org/1999/xlink" width="473.6937" height="319.00163" viewBox="0,0,473.6937,319.00163"><g transform="translate(-3.15315,-20.49918)"><g data-paper-data="{&quot;isPaintingLayer&quot;:true}" fill="#9966ff" fill-rule="nonzero" stroke="none" stroke-width="0.5" stroke-linecap="butt" stroke-linejoin="miter" stroke-miterlimit="10" stroke-dasharray="" stroke-dashoffset="0" style="mix-blend-mode: normal"><path d="M138.26891,281.71563c0.04725,0.30649 0.10246,0.61119 0.16692,0.91348c0.86683,0.38439 1.30024,1.25122 1.30024,1.25122l0.5317,1.35027c0.66667,0.66667 1.33333,1.33333 2,2c0,0 1.76777,1.76777 0,3.53553c-1.76777,1.76777 -3.53553,0 -3.53553,0c-0.66667,-0.66667 -1.33333,-1.33333 -2,-2l-0.69785,-1.25935c-1.40408,-0.2118 -1.90609,-1.71785 -1.90609,-1.71785c-2.48079,-7.67344 -2.14119,-19.22424 1.06021,-26.74293c1.27879,-3.00332 3.49233,-5.51684 5.16091,-8.32238c2.44294,-4.10755 4.1061,-9.06734 6.09795,-13.41584c4.63658,-10.1223 9.3159,-20.08809 13.08762,-30.56509c1.55322,-4.31451 4.1405,-9.21917 4.97485,-13.722c1.49713,-8.07969 -1.17065,-17.00178 0.53426,-25.05675c0.99007,-4.67766 4.07871,-9.86164 5.92947,-14.28482c1.92987,-4.61228 3.83843,-9.23434 5.78991,-13.83752c0.71476,-1.68599 1.13942,-3.53223 2.16584,-5.04878c0.18205,-0.26899 7.01594,-6.96943 7.44687,-7.39326c5.01426,-4.93171 9.80741,-9.86095 15.41146,-14.1239c13.38311,-2.00407 26.74973,-3.73339 40.07412,-6.12018c4.9191,-0.88115 9.83303,-1.83915 14.76499,-2.64484c1.94116,-0.31711 3.90395,-1.24768 5.83533,-0.87566c0.58516,0.11271 8.46204,5.08295 9.33456,5.62734c5.65603,3.52899 11.31206,7.05797 16.9681,10.58696c0.24092,0.15032 8.21593,5.10818 8.43775,5.31834c1.32497,1.25526 2.17623,2.93068 3.26435,4.39601c4.91224,6.73159 9.82448,13.46318 14.73673,20.19477c2.77829,3.80729 7.21984,8.28641 9.11081,12.5836c0.74322,1.68896 0.77532,3.60818 1.14951,5.41509c1.01385,4.89578 1.97395,9.80358 2.96083,14.70488c2.96083,14.70488 5.92166,29.40976 8.8825,44.11464c2.86685,14.23812 6.82352,28.68188 8.66977,43.08311c1.27153,9.91825 1.47579,20.10155 2.20564,30.0762c0.27018,3.69249 0.80462,7.23089 1.30398,10.81286c13.03362,-1.55325 26.08708,-3.06106 39.04832,-5.02114c16.4539,-2.48826 32.84355,-5.5404 49.25308,-8.30828c8.21726,-1.38604 16.43452,-2.77209 24.65177,-4.15813c2.68981,-0.4537 5.63428,0.00606 8.10101,-1.15848c1.74804,-0.82525 0.86309,-5.57708 0.85948,-5.90195c-0.03082,-2.77401 -0.46662,-5.55266 -1.13803,-8.24437c-1.39385,-5.588 -5.09687,-10.57883 -7.92658,-15.57798c-4.92598,-8.70257 -9.85196,-17.40514 -14.77795,-26.10771c-2.40282,-4.24498 -5.83398,-8.84724 -7.55245,-13.40302c-0.08936,-0.2369 -2.05833,-9.68862 -2.15659,-10.15803c-1.02437,-4.89394 -2.04874,-9.78788 -3.0731,-14.68183c-2.39019,-11.4192 -4.78038,-22.8384 -7.17058,-34.2576c-0.99445,-4.75102 -1.63527,-9.82965 -3.02188,-14.4796c-1.38661,-4.64995 -3.63201,-9.25009 -5.40209,-13.76982c-3.64666,-9.31138 -7.29332,-18.62277 -10.93998,-27.93415c-1.67518,-4.27741 -2.96099,-9.65715 -5.29458,-13.60711c-1.62784,-2.75537 -4.11836,-4.89972 -6.16523,-7.35985c-4.26391,-5.1248 -8.52782,-10.24959 -12.79173,-15.37439c-5.95075,-7.15222 -11.60783,-16.50649 -19.64135,-21.24844c-5.36027,-3.21976 -11.0213,-7.772 -16.80061,-10.12619c-4.27255,-1.74041 -9.73467,-2.27698 -14.22906,-3.34229c-1.62173,-0.3844 -3.25332,-0.72938 -4.86519,-1.1532c-0.7406,-0.19473 -1.44772,-0.89846 -2.18766,-0.70125c-2.92324,0.77908 -5.14167,3.19107 -7.7579,4.71017c-4.32394,2.51068 -8.64789,5.02136 -12.97183,7.53203c-1.07054,0.6216 -8.99931,5.30899 -9.75136,5.35477c-2.03871,0.12408 -3.83594,-1.40615 -5.73226,-2.16489c-6.18282,-2.47382 -12.26384,-5.25015 -18.38604,-7.87107c-8.9674,-3.83895 -18.05968,-8.77574 -27.3508,-11.72178c-3.10015,-0.983 -6.36461,-1.34187 -9.54569,-2.01861c-4.00223,-0.85143 -8.87868,-2.73671 -12.97601,-2.79605c-0.50857,-0.00737 -6.60698,0.94336 -7.73812,0.99744c-13.31615,0.63661 -26.82202,0.00483 -40.15534,0.00483c-35,0 -70,0 -105,0c-11.67275,0 -22.70921,2.2621 -34.19481,4.27208c-3.28343,0.5746 -6.55952,1.19291 -9.8503,1.7238c-1.39141,0.22447 -2.93932,-0.05292 -4.18431,0.6077c-1.24499,0.66061 -1.88306,2.09791 -2.84898,3.12427c-2.28446,2.42742 -4.53575,4.89169 -6.9496,7.19048c-0.89878,0.85594 -2.559,1.20377 -2.83503,2.41384c-0.27603,1.21006 1.06912,2.24345 1.50781,3.40449c0.58909,1.55909 1.04798,3.16431 1.57197,4.74646c2.61994,7.91077 5.23989,15.82155 7.85983,23.73232c7.33584,22.15017 14.67168,44.30033 22.00752,66.4505c2.09595,6.32862 4.19191,12.65724 6.28786,18.98586c1.58711,4.79219 2.6286,8.39418 5.52731,12.54028c19.898,28.79357 39.79599,57.58714 59.69399,86.38071c5.68514,8.22673 11.37028,16.45347 17.05543,24.6802c0.91372,1.32221 6.18486,8.54917 5.76452,9.90007c-0.68984,2.21708 -3.85859,2.59278 -5.88303,3.72988c-2.90626,1.6324 -6.03873,2.82457 -9.0581,4.23685c-15.09683,7.06142 -30.19365,14.12284 -45.29048,21.18426c-5.84498,2.67488 -12.43734,2.68445 -18.78675,3.43144c-3.58276,0.4215 -7.16553,0.843 -10.74829,1.2645c27.78448,0 55.56896,0 83.35345,0c13.33333,0 26.66667,0 40,0c7.53053,0 15.33867,0.60325 22.84232,0.00498c13.18634,-1.05135 26.3995,-3.35521 39.5247,-5.02084c29.66787,-3.76496 59.33573,-7.52992 89.0036,-11.29487c-27.52066,-8.35592 -54.15911,-19.72992 -82.09456,-26.87894c-3.13969,-0.80349 -6.20579,-1.97525 -9.41524,-2.42541c-3.20946,-0.45016 -6.48018,-0.14862 -9.71919,-0.2584c-1.36827,-0.04637 -2.75817,-0.42015 -4.10373,-0.16765c-3.11,0.58359 -5.85619,2.39932 -8.79444,3.57379c-4.75318,1.89993 -9.52918,3.33522 -14.4288,4.80708c-2.97603,0.89401 -5.84473,2.36619 -8.93981,2.64264c-15.22069,1.35949 -29.9586,-5.89914 -42.90267,-12.90026c-0.5345,-0.2891 -1.06901,-0.5782 -1.60351,-0.8673zM350.25811,320.77574c-1.3414,1.17417 -10.07235,-1.20179 -12.06542,-1.68013c-1.89116,-0.45388 -3.77616,-0.92864 -5.65567,-1.42205c-33.54676,4.2572 -67.09352,8.51441 -100.64028,12.77161c-13.22771,1.67864 -26.54783,4.00769 -39.8388,5.05067c-7.61418,0.59751 -15.51797,0.00498 -23.15768,0.00498c-13.33333,0 -26.66667,0 -40,0c-30,0 -60,0 -90,0c0,0 -2.5,0 -2.5,-2.5c0,-0.64096 0.16433,-1.11759 0.40873,-1.47202c-1.78089,0.20952 -3.56177,0.41903 -5.34266,0.62855c-4.05593,0.47717 -9.77266,0.12667 -13.33352,2.53825c-0.71866,0.48671 -0.86903,1.53712 -1.51259,2.11953c-0.99613,0.90147 -2.22215,1.51055 -3.33323,2.26583l-2.38675,0.41987c0,0 -2.5,0 -2.5,-2.5c0,-2.5 2.5,-2.5 2.5,-2.5l-0.38675,0.41987c4.13296,-2.68762 4.68724,-5.01881 10.10951,-6.49979c0.18876,-0.05156 9.86557,-1.18302 10.25911,-1.22931c8.27626,-0.97368 16.55251,-1.94735 24.82877,-2.92103c5.69157,-0.6696 12.06154,-0.49992 17.25253,-2.99473c13.58714,-6.35528 27.17429,-12.71055 40.76143,-19.06583c4.41224,-2.06379 8.97959,-4.78512 13.58714,-6.35528c1.01447,-0.34571 2.73491,0.47024 3.17507,-0.50697c0.37646,-0.83579 -1.60402,-0.94927 -2.20893,-1.63799c-1.09986,-1.25224 -1.89505,-2.74224 -2.84257,-4.11337c-5.68514,-8.22673 -11.37028,-16.45347 -17.05543,-24.6802c-19.898,-28.79357 -39.79599,-57.58714 -59.69399,-86.38071c-6.43772,-9.41059 -8.87025,-21.99311 -12.44827,-32.79674c-7.33584,-22.15017 -14.67168,-44.30033 -22.00752,-66.4505c-2.61994,-7.91077 -5.23989,-15.82155 -7.85983,-23.73232c-0.4365,-1.31798 -3.40419,-9.97522 -3.20809,-10.83491c0.1961,-0.85969 6.6245,-7.37358 7.58937,-8.37189c0.62829,-0.65007 7.12408,-7.42196 7.57543,-7.66145c1.70041,-0.90226 3.77375,-0.76271 5.666,-1.11611c3.27668,-0.61195 6.56687,-1.1492 9.8503,-1.7238c8.1727,-1.43022 16.57851,-3.62009 24.84043,-4.33756c0.14243,-0.01237 9.93855,-0.00937 10.21629,-0.00937c35,0 70,0 105,0c13.23137,0 26.62992,0.62127 39.84466,0.00483c3.23344,-0.15083 4.60684,-1.07368 8.26188,-1.00256c4.40145,0.08565 9.50698,1.98695 13.80334,2.90095c0.30407,0.06469 9.86341,2.09447 10.01654,2.14303c9.45011,2.99646 18.68811,7.98748 27.80731,11.89141c4.59651,1.96777 9.19302,3.93553 13.78953,5.9033c1.53217,0.65592 3.08465,1.2663 4.59651,1.96777c1.17544,0.54538 2.16734,1.84936 3.46075,1.77064c1.29341,-0.07872 2.11985,-1.49336 3.22048,-2.17727c1.41563,-0.87964 2.88263,-1.67379 4.32394,-2.51068c5.76243,-3.34593 11.47978,-6.79104 17.29578,-10.04271c1.72491,-0.96438 3.28375,-2.39792 5.21393,-2.82187c0.56092,-0.1232 8.93436,1.93501 8.93676,1.93558c4.74695,1.12518 10.45215,1.73981 14.96211,3.57693c6.02575,2.45457 11.90334,7.11543 17.48896,10.47055c8.58276,5.23155 14.5031,14.63582 20.91036,22.33671c4.26391,5.1248 8.52782,10.24959 12.79173,15.37439c0.3177,0.38185 6.49279,7.78822 6.6265,8.01453c2.46933,4.17973 3.87161,9.79783 5.64541,14.32704c3.64666,9.31138 7.29332,18.62277 10.93998,27.93415c1.82093,4.64956 4.1116,9.38131 5.5379,14.16433c1.42629,4.78301 2.10131,9.99655 3.12433,14.88405c2.39019,11.4192 4.78038,22.8384 7.17058,34.2576c1.02437,4.89394 2.04874,9.78788 3.0731,14.68183c0.65666,3.13723 0.80966,6.41878 1.94089,9.41774c1.62783,4.31549 4.95077,8.68601 7.22549,12.70469c4.92598,8.70257 9.85196,17.40514 14.77795,26.10771c3.07703,5.43608 6.90153,10.7421 8.42601,16.8283c1.33733,5.33903 3.88738,15.69929 -1.8532,19.5551c-0.54675,0.36724 -9.3019,1.77695 -9.98834,1.89273c-8.21726,1.38604 -16.43452,2.77209 -24.65177,4.15813c-16.44308,2.77353 -32.86626,5.83222 -49.35401,8.32424c-12.95585,1.9582 -26.00302,3.46743 -39.03087,5.02041c0.50848,1.93898 1.36396,4.10789 0.02338,5.28135zM137.99667,275.51846c0.75424,0.19529 1.27109,0.71215 1.27109,0.71215l0.42159,0.56881c0.85393,0.46187 1.70785,0.92373 2.56178,1.3856c12.03137,6.50746 25.80481,13.52433 39.97377,12.32854c2.79652,-0.23601 5.36368,-1.65418 8.05149,-2.4616c4.75852,-1.42947 9.39559,-2.81363 14.01036,-4.66087c0.58555,-0.23439 9.43535,-3.79091 9.77509,-3.85402c1.67851,-0.31182 3.41408,0.05294 5.12085,0.09225c0.33688,0.00776 10.1079,0.28174 10.27288,0.30488c0.18129,0.02543 9.61888,2.44566 9.96035,2.53304c31.75985,8.12773 61.84521,21.72559 93.45392,30.12399c0.854,-0.10838 1.70801,-0.21675 2.56201,-0.32513c2.8828,-0.36584 5.76855,-0.72064 8.65604,-1.06984c-0.04841,-0.31169 -0.09468,-0.6233 -0.14124,-0.93379c-0.74125,-4.94308 -0.75072,-10.16145 -1.11561,-15.14831c-0.60118,-8.2161 -0.76577,-16.60716 -1.80802,-24.77716c-1.82353,-14.2944 -5.77195,-28.64124 -8.61747,-42.77342c-2.96083,-14.70488 -5.92166,-29.40976 -8.8825,-44.11464c-0.98686,-4.90122 -2.00403,-9.79772 -2.96083,-14.70488c-0.28483,-1.4608 -0.22492,-3.02591 -0.82438,-4.38816c-1.74503,-3.96553 -6.01278,-8.14132 -8.57327,-11.65013c-4.91224,-6.73159 -9.82448,-13.46318 -14.73673,-20.19477c-3.03782,-4.25228 -5.88735,-5.66031 -10.30989,-8.41968c-5.65603,-3.52899 -11.31206,-7.05797 -16.9681,-10.58696c-1.41401,-0.88225 -2.84444,-1.73871 -4.24202,-2.64674c-1.14745,-0.74551 -2.04785,-2.05406 -3.39152,-2.31288c-1.34366,-0.25882 -2.66572,0.62163 -4.00799,0.88757c-4.90091,0.97099 -9.847,1.76389 -14.76499,2.64484c-12.95924,2.32138 -25.92773,4.32211 -39.01349,5.80587c-4.92791,4.02368 -9.3137,8.62202 -13.84764,13.08131c-2.25925,2.22206 -5.03601,4.00669 -6.81217,6.63101c-0.84202,1.2441 -1.12142,2.78742 -1.6941,4.17624c-1.90596,4.62215 -3.86005,9.22529 -5.78991,13.83752c-1.72779,4.12931 -4.72515,9.0191 -5.65035,13.39022c-1.68834,7.97667 0.98076,16.88928 -0.50958,24.93235c-0.88358,4.76853 -3.54073,9.93241 -5.18673,14.50463c-3.81952,10.60977 -8.55123,20.70385 -13.24625,30.95372c-2.06816,4.51509 -3.81872,9.61164 -6.34257,13.88309c-1.53888,2.60446 -3.65579,4.89352 -4.83909,7.67762c-2.0093,4.72751 -1.84652,9.59329 -1.81482,14.56773zM346.74189,317.221c0.59267,-0.05257 -0.33015,-0.59621 -1.02617,-1.1853c-0.20127,0.02426 -0.40254,0.04855 -0.6038,0.07286c0.50172,0.54979 0.95928,1.17193 1.62997,1.11244z"/><path d="M311.26777,222.2306c1.76777,1.76777 0,3.53553 0,3.53553l-0.86963,0.85921c-3.84124,4.48145 -8.49053,8.84915 -11.79618,13.72645c-6.16617,9.09782 -7.05674,22.03491 -15.6787,29.29076c-1.49693,1.25975 -2.77695,2.8862 -4.5559,3.70053c-2.688,1.23045 -5.91113,0.16299 -8.86737,0.15529c-3.37088,-0.00878 -6.78287,-0.44762 -10.01429,-1.40722c-6.38016,-1.93338 -12.76033,-3.86677 -19.14049,-5.80015c-0.73839,-0.22376 -9.6174,-2.89668 -10.0581,-3.10655c-2.42189,-1.1534 -4.07441,-3.49053 -6.09321,-5.25698c-2.50859,-2.19502 -5.01718,-4.39003 -7.52577,-6.58505c-10.17308,-8.90144 -19.92064,-17.65527 -29.01801,-27.66237c0,0 -1.68168,-1.84985 0.16817,-3.53153c1.84985,-1.68168 3.53153,0.16817 3.53153,0.16817c8.96989,9.86688 18.57898,18.48499 28.61083,27.26286c2.50859,2.19502 5.01718,4.39003 7.52577,6.58505c1.75452,1.5352 3.1013,3.68904 5.22642,4.6477c2.87847,1.2985 6.0603,1.77781 9.08239,2.69359c6.38016,1.93338 12.76033,3.86677 19.14049,5.80015c4.7237,1.46533 8.64519,1.08524 13.56425,1.19234c0.71259,0.01551 1.49847,0.48065 2.13263,0.15529c3.65987,-1.87769 6.08993,-5.7285 7.66046,-9.24163c2.04361,-4.57136 4.18464,-9.09881 6.29702,-13.63856c1.26228,-2.71279 2.13785,-5.6459 3.80793,-8.12853c3.41409,-5.07517 8.21774,-9.62312 12.20382,-14.27355l1.13037,-1.14079c0,0 1.76777,-1.76777 3.53553,0z"/><path d="M236.94451,183.47455c0.52382,2.44451 -1.92068,2.96833 -1.92068,2.96833c-1.62967,0.34922 -7.48132,1.60314 -9.11099,1.95235c-1.80428,0.36771 -3.57165,1.07723 -5.41283,1.10314c-0.31707,0.00446 -9.4278,-1.95948 -9.63481,-2.00785c-1.94413,-0.45426 -4.15109,-0.34262 -5.8107,-1.45242c-1.45974,-0.97614 -1.9737,-2.90559 -2.91921,-4.38535c-1.79478,-2.80889 -3.47795,-5.68756 -5.21693,-8.53133c-0.75693,-1.23783 -5.66472,-9.04316 -5.5801,-9.9768c0.55092,-6.0787 9.24198,-8.31786 13.57362,-10.29728c1.71217,-0.78241 3.31978,-1.88302 5.153,-2.31081c1.21227,-0.28289 2.48574,0.1429 3.7269,0.23865c3.32346,0.25639 6.6416,0.57753 9.96241,0.8663c0.72501,0.06304 10.05615,0.85746 10.48236,0.96786c4.00447,1.03724 8.60764,4.77209 12.16661,6.78978c1.4793,1.46638 5.80883,5.74709 7.32909,7.29596c1.33089,1.35593 3.00977,2.45461 3.95928,4.10028c0.46841,0.81184 2.31176,10.45436 2.2523,10.73008c-0.42509,1.971 -2.26387,3.33792 -3.44381,4.97294c-2.95948,4.10088 -5.58418,6.23528 -9.53392,9.3287c-1.50566,1.17923 -2.81733,2.68438 -4.54864,3.49688c-2.64805,1.24273 -5.8232,0.56828 -8.74043,0.78358c-9.58302,0.70724 -17.4488,-3.18073 -26.13855,-6.80146c0,0 -2.30769,-0.96154 -1.34615,-3.26923c0.96154,-2.30769 3.26923,-1.34615 3.26923,-1.34615c7.86665,3.27777 15.16894,7.12727 23.83199,6.43157c1.66132,-0.13341 3.32177,-0.28091 4.98527,-0.38348c0.76678,-0.04728 1.61832,0.28095 2.30376,-0.06597c2.75528,-1.39455 4.74788,-3.95084 7.16439,-5.87355c1.85713,-1.47763 3.28365,-3.43723 4.75305,-5.30088c0.81769,-1.03707 2.27777,-1.73608 2.55619,-3.02706c0.27842,-1.29097 -0.77262,-2.52748 -1.08131,-3.81155c-0.27441,-1.14147 -0.07159,-2.44621 -0.66639,-3.45837c-0.72657,-1.23638 -2.08694,-1.96768 -3.11179,-2.97079c-1.49566,-1.46394 -5.28661,-5.30431 -6.81304,-6.84618c-3.10837,-1.72376 -7.18305,-5.15803 -10.62019,-5.99701c-3.06772,-0.74881 -6.29653,-0.49118 -9.44245,-0.76474c-3.3208,-0.28877 -6.64512,-0.53956 -9.96241,-0.8663c-0.80992,-0.07977 -1.63509,-0.4981 -2.42348,-0.29617c-1.40597,0.36011 -2.59928,1.29235 -3.90884,1.91804c-2.83182,1.35303 -5.91553,2.23028 -8.56115,3.91864c-0.84743,0.5408 -2.1573,1.12515 -2.13488,2.13019c0.02679,1.20132 1.56623,1.82887 2.24529,2.82021c0.94187,1.37501 1.73898,2.84378 2.60846,4.26567c1.73898,2.84378 3.54796,5.64592 5.21693,8.53133c0.55049,0.95171 0.62079,2.31817 1.54457,2.91436c1.12563,0.72645 2.65139,0.39168 3.96732,0.64287c2.8794,0.54963 5.65623,1.94882 8.58717,1.89686c1.49194,-0.02645 2.91013,-0.66143 4.36519,-0.99215c1.62967,-0.34922 3.25934,-0.69843 4.88901,-1.04765l4.22198,-0.90471c0,0 2.44451,-0.52382 2.96833,1.92068z"/><path d="M224,169.99837c0,-1.38071 1.11929,-2.5 2.5,-2.5c1.38071,0 2.5,1.11929 2.5,2.5c0,1.38071 -1.11929,2.5 -2.5,2.5c-1.38071,0 -2.5,-1.11929 -2.5,-2.5z"/><path d="M303,176.99837c0,-1.38071 1.11929,-2.5 2.5,-2.5c0.64544,0 1.23374,0.24459 1.67729,0.64614c0.15476,-1.46418 0.2798,-2.93224 0.49634,-4.38835c0.09746,-0.65532 0.76872,-1.34235 0.46668,-1.93202c-0.96833,-1.8905 -5.32188,-3.7328 -6.7647,-4.48264c-0.96758,-0.61443 -1.75681,-1.86701 -2.90275,-1.84328c-1.28894,0.02669 -2.19239,1.36007 -3.32697,1.97228c-1.46676,0.79145 -2.97192,1.51003 -4.47214,2.23607c-3.92015,1.89717 -4.7994,5.07545 -6.3735,9.09167c-1.17387,2.99506 -2.09493,5.99278 -3.45331,8.75405c1.7952,1.56105 3.5904,3.12209 5.38561,4.68314c2.35887,2.05119 4.22944,4.81345 7.02472,6.21277c1.30504,0.6533 2.86657,0.55052 4.2957,0.84636c1.63207,0.33784 3.30194,0.54104 4.88752,1.05459c1.03116,0.33398 2.02118,2.10061 2.9014,1.46812c0.88022,-0.63249 -0.47833,-2.13431 -0.46593,-3.21813c0.01905,-1.66656 0.37302,-3.3124 0.55953,-4.96859c0.4299,-3.81749 0.85981,-7.63498 1.28971,-11.45246c-0.36206,0.20395 -0.78004,0.3203 -1.22521,0.3203c-1.38071,0 -2.5,-1.11929 -2.5,-2.5zM272.73223,190.76614c-1.76777,-1.76777 0,-3.53553 0,-3.53553l1,-1c0.22646,-0.21795 0.44318,-0.44246 0.65089,-0.67305c-2.17452,-1.89089 -4.34905,-3.78178 -6.52357,-5.67267c0,0 -1.88651,-1.64045 -0.24607,-3.52696c1.64045,-1.88651 3.52696,-0.24607 3.52696,-0.24607c1.98886,1.72944 3.97772,3.45888 5.96657,5.18832c2.60202,-5.60886 3.24879,-12.57254 7.69436,-17.13612c2.12032,-2.1766 5.35777,-2.87454 8.10845,-4.16569c1.85526,-0.87085 3.56788,-2.48478 5.6173,-2.49985c1.90614,-0.01402 3.45406,1.61362 5.18109,2.42043c3.54504,1.89352 7.23874,3.21074 9.15146,7.25365c0.28205,0.59617 -0.76997,9.04935 -0.77699,9.11168c-0.55953,4.96859 -1.11907,9.93719 -1.6786,14.90578c-0.20229,1.79628 -1.02567,10.88368 -2.14454,11.68765c-1.09874,0.78951 -10.00876,-1.30391 -11.76116,-1.69564c-1.82918,-0.40889 -3.80329,-0.42379 -5.47934,-1.26281c-0.36655,-0.18349 -7.50449,-6.42132 -8.06739,-6.9108c-1.60796,-1.39823 -3.21592,-2.79645 -4.82388,-4.19468c-0.27169,0.32415 -0.55782,0.64179 -0.86002,0.95236l-1,1c0,0 -1.76777,1.76777 -3.53553,0z"/></g></g></svg>