<svg version="1.1" xmlns="http://www.w3.org/2000/svg" xmlns:xlink="http://www.w3.org/1999/xlink" width="308.50656" height="256.49414" viewBox="0,0,308.50656,256.49414"><g transform="translate(-100.33209,-30.90717)"><g data-paper-data="{&quot;isPaintingLayer&quot;:true}" fill="#9966ff" fill-rule="nonzero" stroke="none" stroke-width="0.5" stroke-linecap="butt" stroke-linejoin="miter" stroke-miterlimit="10" stroke-dasharray="" stroke-dashoffset="0" style="mix-blend-mode: normal"><path d="M314.24747,117.44496c5.92245,6.05507 11.46898,12.57797 17.37887,18.535c4.23328,4.26704 7.37964,8.18606 12.82786,10.67321c3.03231,1.38427 6.09554,2.70514 9.07959,4.19058c1.16221,0.57854 2.1208,1.90453 3.41849,1.86627c1.29768,-0.03825 2.1765,-1.41841 3.30262,-2.0644c1.44569,-0.82932 2.93899,-1.57271 4.40849,-2.35907c4.40849,-2.35907 8.81698,-4.71814 13.22547,-7.07722c0.51442,-0.27221 6.22039,-2.93334 6.70364,-4.31625c0.43438,-1.24305 -0.34935,-2.61135 -0.45887,-3.92355c-0.41523,-4.9749 -0.57093,-9.99131 -0.85575,-14.97557c-0.19017,-3.3279 -0.38033,-6.65581 -0.5705,-9.98371c-0.28525,-4.99186 -0.5705,-9.98371 -0.85575,-14.97557c-0.13898,-2.43218 0.17087,-4.92827 -0.39512,-7.29775c-0.74889,-3.13518 -2.08299,-6.10123 -3.0787,-9.16698c-0.37796,-1.16373 -0.43102,-2.47657 -1.09715,-3.50292c-0.80321,-1.23757 -2.14598,-2.02644 -3.17667,-3.08209c-0.95483,-0.97795 -1.52721,-2.46425 -2.77754,-3.0163c-1.25033,-0.55205 -2.73418,0.02243 -4.10029,-0.02045c-2.75772,-0.08656 -5.58454,0.3891 -8.16284,1.37139c-7.69259,2.83411 -15.82586,5.19856 -23.29286,8.57475c-4.45795,2.01565 -8.70845,4.76621 -13.02992,7.06288c-1.42088,0.75514 -2.74212,1.76017 -4.2808,2.23094c-1.48899,0.45556 -3.96844,-0.81251 -4.63325,0.59556c-0.55644,1.17854 -0.30946,2.58886 -0.5159,3.87571c-0.48393,3.01664 -1.02771,3.00326 -0.49445,6.78277c0.23123,1.63889 1.07051,3.15178 1.3096,4.78954c0.17416,1.19297 0.19469,9.03265 0.20479,10.35176l0.00918,4.20882c0,0 0.00061,0.27994 -0.09225,0.65266zM309.33067,112.64185l-0.00007,-0.03383c-0.00445,-0.58391 -0.04039,-8.90818 -0.15094,-9.64405c-0.72185,-4.80495 -1.90319,-8.32619 -0.77196,-13.28515c0.4525,-1.9836 0.27617,-4.26497 1.44527,-5.9301c0.96415,-1.37323 2.82024,-1.8967 4.41539,-2.41714c0.93908,-0.30639 2.01486,0.28549 2.96337,0.0097c1.1521,-0.33499 2.07807,-1.20019 3.12801,-1.78087c4.36647,-2.41494 8.8058,-5.16703 13.35078,-7.22204c7.57711,-3.42597 15.81882,-5.83482 23.62429,-8.71052c1.72465,-0.61777 3.36656,-1.55434 5.17396,-1.85331c1.62835,-0.26935 3.30041,0.08468 4.94819,0.17896c1.9653,0.11245 4.08825,-0.35398 5.88905,0.44112c1.8008,0.7951 2.88927,2.67523 4.29353,4.05476c1.32561,1.30227 2.89055,2.42518 3.89439,3.98897c0.86781,1.35188 1.06894,3.02993 1.58731,4.55044c0.14969,0.43907 3.18538,9.54517 3.24586,9.80669c0.59843,2.58777 0.32488,5.30219 0.4764,7.95393c0.28525,4.99186 0.5705,9.98371 0.85575,14.97557c0.19017,3.3279 0.38033,6.65581 0.5705,9.98371c0.28496,4.98688 0.6765,9.98389 0.85575,14.97557c0.07251,2.0191 0.86654,4.1861 0.11163,6.06016c-1.33972,3.32583 -6.18224,5.35658 -8.98919,6.87337c-5.87193,3.14219 -11.68983,6.43344 -17.63396,9.43629c-1.82075,0.9198 -3.47535,2.59364 -5.51436,2.65374c-2.03901,0.06011 -3.78934,-1.51335 -5.66111,-2.32431c-3.05861,-1.32516 -6.0584,-2.78222 -9.07959,-4.19058c-1.64473,-0.76671 -3.39381,-1.34525 -4.92614,-2.31734c-3.43164,-2.17699 -6.50877,-6.50429 -9.35597,-9.3742c-9.88298,-9.9618 -18.7304,-21.62687 -30.13801,-29.77516c-1.12617,-0.85326 -2.05271,-2.07135 -3.37852,-2.55979c-1.016,-0.3743 -2.16343,0.10358 -3.24607,0.11926c-1.65979,0.02405 -3.31997,-0.0116 -4.97989,-0.00008c-4.5542,0.0316 -8.9853,0.17378 -13.5148,0.67206c-11.58213,1.27412 -23.29501,3.1925 -34.92731,3.8288c-3.29181,0.18006 -6.60071,-0.22685 -9.8902,-0.00843c-3.50202,0.23253 -7.06361,1.40684 -10.4068,2.53056c1.54241,4.47492 3.03495,8.9681 4.55439,13.45076c0.46866,1.38264 3.52822,10.05244 3.24729,10.95666c-1.30404,4.19733 -6.79976,5.21562 -10.06136,6.50066c-0.99749,0.393 -9.06386,3.95635 -9.7661,4.08834c-2.91505,0.54792 -5.88993,-0.70885 -8.82903,-1.10817c-9.93236,-1.34945 -20.46685,-2.2981 -29.94513,-5.79756c-4.79525,-1.77045 -8.82757,-5.17782 -14.11469,-5.08356c0,0 -2.5,0 -2.5,-2.5c0,-2.5 2.5,-2.5 2.5,-2.5c6.12416,0.07948 10.32803,3.344 15.85061,5.39458c7.53157,2.79654 16.02258,3.78488 23.92787,4.85892c3.30299,0.44876 6.61158,0.85801 9.90896,1.34627c0.84609,0.12529 1.69164,0.61015 2.52882,0.43496c1.4141,-0.29593 2.62476,-1.2085 3.94722,-1.79018c2.96557,-1.30439 6.10983,-2.17982 9.05984,-3.51901c0.96287,-0.43711 2.45058,-0.66053 2.68342,-1.69203c0.26481,-1.17314 -1.12385,-2.13179 -1.56799,-3.24943c-0.6155,-1.54885 -1.07006,-3.15691 -1.6051,-4.73536c-1.60491,-4.73481 -3.24467,-9.45981 -4.81529,-14.20609c-0.46296,-1.39902 -0.57074,-2.96035 -1.3545,-4.20827c-1.67014,-2.65923 -4.52992,-4.35027 -6.77111,-6.5498c-8.00427,-7.85549 -17.26305,-15.05334 -27.63935,-19.5246c-3.06122,-1.31911 -6.13285,-2.61454 -9.17967,-3.96656c-1.31989,-0.58569 -2.50913,-1.60442 -3.93961,-1.80162c-1.43048,-0.1972 -2.84156,0.54329 -4.28012,0.66849c-0.70978,0.06177 -1.68615,-0.66389 -2.13455,-0.11023c-0.77072,0.95165 -0.39093,2.42137 -0.69743,3.60699c-0.83428,3.22724 -1.96057,6.37186 -2.94086,9.55779c-1.95865,6.24116 -1.86203,11.93588 -0.27942,18.25074c0.34671,1.38341 0.34948,2.88451 0.97579,4.16583c0.34732,0.71055 1.34509,0.8942 1.81021,1.53388c0.62448,0.85886 0.64601,2.10848 1.38947,2.86669c1.0697,1.09091 2.65861,1.52953 3.85411,2.48091c1.11036,0.88362 5.03148,4.92165 6.24398,6.1545l2.65926,1.29354c0,0 2.23607,1.11803 1.11803,3.3541c-1.11803,2.23607 -3.3541,1.11803 -3.3541,1.11803l-3.34674,-1.70946c-0.25294,-0.24944 -6.08003,-6.01377 -6.45654,-6.31651c-1.40733,-1.13159 -3.20258,-1.7762 -4.46639,-3.0661c-0.82342,-0.84041 -0.92068,-2.18839 -1.61353,-3.13932c-0.56507,-0.77556 -1.68352,-1.10179 -2.10475,-1.96398c-3.91989,-8.02341 -3.70807,-18.22661 -1.20826,-26.49328c0.98029,-3.18593 1.85056,-6.40781 2.94086,-9.55779c0.57945,-1.67409 0.7132,-3.65629 1.61392,-5.13972c-1.842,0.84261 -3.60918,1.8468 -5.25927,3.0932c-5.03344,3.80203 -9.41068,9.44527 -13.87815,13.91275c-1.68492,1.68492 -3.8689,2.97544 -5.08437,5.02496c-2.3913,4.03219 -3.96247,9.01901 -5.86833,13.30718c-4.73828,10.66113 -9.47656,21.32227 -14.21485,31.9834c-1.1688,2.62979 -3.0214,5.03939 -3.55609,7.86711c-0.58719,3.10536 0.05446,6.32063 0.05446,9.48102c0,4.64519 -0.7085,10.04302 -0.0271,14.63288c0.47152,3.17616 1.89157,6.13707 2.82439,9.20956c1.45256,4.78436 2.90511,9.56872 4.35767,14.35307c1.29873,4.2777 2.1034,9.96646 4.17866,13.91665c1.47748,2.81235 4.0286,4.91426 5.97313,7.42645c0.85897,1.10973 1.35543,2.59041 2.52128,3.37153c3.13672,2.10159 10.02753,0.94998 13.51604,1.00312c3.125,0.0476 6.33556,0.95621 9.37346,0.22199c2.01306,-0.48653 3.76413,-1.64943 5.51908,-2.80627c-0.24203,-0.2634 -0.48443,-0.52454 -0.72731,-0.78309c-10.27013,-10.93272 -20.54026,-21.86544 -30.8104,-32.79816c0,0 -1.71169,-1.82212 0.11043,-3.53381c1.82212,-1.71169 3.53381,0.11043 3.53381,0.11043c10.27013,10.93272 20.54026,21.86544 30.8104,32.79816c0.50039,0.53267 0.99885,1.07753 1.49641,1.63143l0.73163,-0.38978c0,0 2.20641,-1.17548 3.38189,1.03093c0.90852,1.70531 -0.20316,2.79479 -0.75498,3.20169c3.39051,3.93458 6.84682,7.96152 10.69287,11.09652c5.04159,4.10952 10.87,7.54515 16.21198,11.26131c12.31358,8.56597 24.62716,17.13193 36.94073,25.6979c4.10112,2.85296 8.26842,5.63438 12.31358,8.56597c0.88063,0.63821 1.51902,1.77166 2.58404,1.99199c2.97778,0.61604 6.02547,-0.83006 9.04771,-1.16586c9.93884,-1.10432 19.87767,-2.20863 29.81651,-3.31295c6.62589,-0.73621 13.25178,-1.47242 19.87767,-2.20863c2.4188,-0.26876 5.10134,0.39999 7.26628,-0.71169c1.28042,-0.65749 2.2167,-1.83691 3.3411,-2.73552c3.90494,-3.12083 7.87596,-6.1638 11.81258,-9.24462c3.93753,-3.08154 7.87505,-6.16308 11.81258,-9.24462c2.23399,-1.74834 4.7833,-3.15032 6.7165,-5.22641c2.19372,-2.35588 3.78275,-5.20973 5.68366,-7.80764c3.93673,-5.3802 7.87347,-10.7604 11.8102,-16.14061c5.9051,-8.0703 11.8102,-16.14061 17.7153,-24.21091c2.60219,-3.55633 6.77304,-7.67029 8.60169,-11.66891c0.6234,-1.36316 0.63014,-2.93096 0.95838,-4.39353c1.09481,-4.87833 2.24243,-9.74566 3.36354,-14.61802c2.98981,-12.9938 5.97962,-25.9876 8.96944,-38.9814c1.49491,-6.4969 2.98981,-12.9938 4.48472,-19.4907c0.70158,-3.04909 2.24807,-6.0018 2.1793,-9.12981c-0.06877,-3.12801 -1.74353,-6.00989 -2.57844,-9.02521c-1.77899,-6.42492 -3.55799,-12.84984 -5.33698,-19.27477c-1.33176,-4.80972 -2.81091,-9.61002 -4.00274,-14.45607c-0.3107,-1.26333 0.07503,-2.85097 -0.79082,-3.82198c-0.86585,-0.97101 -2.48713,-0.76898 -3.70675,-1.22183c-1.56244,-0.58014 -3.08996,-1.25031 -4.63494,-1.87546c-4.63494,-1.87546 -9.26987,-3.75092 -13.90481,-5.62639c-6.17992,-2.50062 -12.35983,-5.00123 -18.53975,-7.50185c-2.91824,-1.18082 -5.62329,-3.09812 -8.73104,-3.60042c-3.10776,-0.50231 -6.27907,0.46519 -9.42071,0.66656c-4.98976,0.31982 -9.97952,0.63965 -14.96928,0.95947c-16.63254,1.06608 -33.26507,2.13216 -49.89761,3.19824c-6.65301,0.42643 -13.30603,0.85286 -19.95904,1.27929c-3.1761,0.20357 -6.44397,-0.20521 -9.53084,0.56956c-3.08687,0.77477 -5.77438,2.67828 -8.67017,3.99868c-6.06585,2.76585 -12.1317,5.5317 -18.19755,8.29755c-13.72757,6.25937 -27.87654,11.5101 -41.92705,17.00199c-3.64093,1.04334 -7.41723,1.89458 -11.0493,3.08724c0.26513,-0.0182 0.52516,-0.04364 0.77511,-0.08471c1.86489,-0.30638 3.75819,-0.92448 5.63038,-0.66639c0.4367,0.0602 9.09965,3.83267 9.8299,4.14822c12.73036,5.50082 23.84812,12.8132 33.74812,22.52917c0.49938,0.49009 7.30012,7.13591 7.50307,7.45905c0.2489,0.3963 0.4515,0.81503 0.62504,1.24783c3.6714,-1.22017 7.55818,-2.4656 11.40565,-2.73627c2.29498,-0.16145 7.73635,0.12139 10.1098,-0.00843c11.54153,-0.63133 23.16226,-2.54845 34.65504,-3.80643c6.33419,-0.69333 12.66829,-0.77936 19.04007,-0.70181c1.59103,0.01936 3.27191,-0.41143 4.77195,0.11926c1.81137,0.64084 3.17255,2.1684 4.75882,3.2526c2.97943,2.12816 5.78749,4.48492 8.4857,6.98426zM157.14979,226.35658c-2.66417,1.42114 -7.33044,3.89943 -7.62664,3.97102c-0.39962,0.09658 -9.87639,-0.07125 -10.62422,-0.08264c-4.86358,-0.07409 -11.8029,0.96094 -16.16225,-1.80865c-1.62999,-1.03557 -2.48844,-2.95398 -3.70965,-4.44995c-0.34377,-0.42111 -6.36254,-7.97631 -6.48873,-8.21651c-0.14376,-0.27364 -2.91636,-9.45257 -3.08412,-10.00514c-1.93674,-6.37914 -3.87348,-12.75829 -5.81023,-19.13743c-0.13346,-0.43957 -2.95031,-9.68863 -2.98583,-9.92787c-0.71739,-4.83231 -0.0271,-10.47397 -0.0271,-15.36712c0,-0.66152 -0.01645,-10.15325 0.05446,-10.51898c0.06257,-0.32271 3.83074,-8.75325 3.87811,-8.85984c4.73828,-10.66113 9.47656,-21.32227 14.21485,-31.9834c2.01991,-4.5448 3.72019,-9.8711 6.31583,-14.10717c2.07883,-3.39264 6.40943,-6.46884 9.20593,-9.26534c3.47352,-3.47352 6.95573,-7.88013 10.87058,-10.83599c6.55558,-4.9497 14.56879,-6.48267 22.27,-8.68019c13.88688,-5.44587 27.87949,-10.62525 41.45321,-16.81447c6.06585,-2.76585 12.1317,-5.5317 18.19755,-8.29755c0.5075,-0.23141 9.23863,-4.2264 9.52737,-4.29887c0.28874,-0.07247 9.87158,-0.67406 10.4282,-0.70974c6.65301,-0.42643 13.30603,-0.85286 19.95904,-1.27929c16.63254,-1.06608 33.26507,-2.13216 49.89761,-3.19824c4.98976,-0.31982 9.97952,-0.63965 14.96928,-0.95947c0.67238,-0.0431 10.17709,-0.67113 10.53833,-0.61274c0.36125,0.05839 9.18414,3.6487 9.80871,3.90143c6.17992,2.50062 12.35983,5.00123 18.53975,7.50185c6.17375,2.49812 12.42585,4.86125 18.53975,7.50185c1.87004,0.80767 4.20742,1.00874 5.56312,2.52909c1.3557,1.52035 1.2887,3.86541 1.87768,5.81541c1.44392,4.78057 2.67009,9.64314 4.00274,14.45607c1.77899,6.42492 3.55799,12.84984 5.33698,19.27477c0.19664,0.71019 2.74966,9.84533 2.75854,10.24956c0.00889,0.40423 -2.14018,9.64274 -2.30542,10.36089c-1.49491,6.4969 -2.98981,12.9938 -4.48472,19.4907c-2.98981,12.9938 -5.97962,25.9876 -8.96944,38.9814c-1.12112,4.87242 -2.21867,9.75114 -3.36354,14.61802c-0.42009,1.78582 -0.521,3.68344 -1.28398,5.35182c-1.96979,4.30725 -6.30733,8.70675 -9.11361,12.542c-5.9051,8.0703 -11.8102,16.14061 -17.7153,24.21091c-3.93673,5.3802 -7.87347,10.7604 -11.8102,16.14061c-0.27152,0.37108 -5.95102,8.14554 -6.12654,8.33297c-2.09523,2.23742 -4.81329,3.7969 -7.22722,5.68606c-3.93753,3.08154 -7.87505,6.16308 -11.81258,9.24462c-3.93683,3.081 -7.84849,6.1988 -11.81258,9.24462c-1.50232,1.15432 -2.82648,2.60659 -4.53395,3.42756c-2.60363,1.25185 -5.73153,0.73251 -8.60281,1.05154c-6.62589,0.73621 -13.25178,1.47242 -19.87767,2.20863c-9.93884,1.10432 -19.87767,2.20863 -29.81651,3.31295c-1.0479,0.11643 -10.21277,1.18026 -10.82997,1.04277c-1.63301,-0.36377 -2.82081,-1.80037 -4.20926,-2.73379c-4.14709,-2.78797 -8.21137,-5.71225 -12.31358,-8.56597c-12.31358,-8.56597 -24.62716,-17.13193 -36.94073,-25.6979c-5.48152,-3.81323 -11.46501,-7.34583 -16.62423,-11.58127c-4.3039,-3.53327 -8.12823,-8.09537 -11.915,-12.45357z"/><path d="M187.7181,106.28724c0,-1.38071 1.11929,-2.5 2.5,-2.5c1.38071,0 2.5,1.11929 2.5,2.5c0,1.38071 -1.11929,2.5 -2.5,2.5c-1.38071,0 -2.5,-1.11929 -2.5,-2.5z"/><path d="M366.39678,118.29925c0,-1.38071 1.11929,-2.5 2.5,-2.5c1.38071,0 2.5,1.11929 2.5,2.5c0,1.38071 -1.11929,2.5 -2.5,2.5c-1.38071,0 -2.5,-1.11929 -2.5,-2.5z"/><path d="M256.55043,234.18113c-1.13765,1.13765 -3.16898,0.58136 -4.77077,0.73223c-2.93077,0.27606 -6.06379,0 -9.00901,0c-0.44157,0 -6.19107,0.00949 -6.40646,-0.03228c-1.55377,-0.30136 -2.95456,-1.18109 -4.5045,-1.5015c-1.96055,-0.4053 -4.04063,0.38119 -6.00601,0c-1.55377,-0.30136 -2.96834,-1.12045 -4.5045,-1.5015c-1.43194,-0.3552 -3.36403,0.37894 -4.37031,-0.69995c-0.63289,-0.67856 -0.97008,-7.06965 -0.66536,-8.34816c0.25947,-1.08866 1.21571,-1.92096 1.5015,-3.003c0.54127,-2.0493 0.40305,-4.27784 0,-6.35874c-0.42562,-2.19747 -2.46461,-3.83342 -3.003,-6.00601c-1.03982,-4.19596 -0.06688,-9.72296 -0.06688,-14.0879c0,0 0,-0.2072 0.05965,-0.50231c-1.68906,-0.00044 -3.37811,-0.0007 -5.06716,-0.0007c0,0 -2.5,0 -2.5,-2.5c0,-2.5 2.5,-2.5 2.5,-2.5c21.50135,0 43.0032,-0.0435 64.5045,0c5.04869,0.01021 8.89765,-1.71249 13.8267,-2.38646c2.15084,-0.29409 4.51356,-1.19273 6.50433,-0.32704c1.68655,0.7334 2.10263,3.01798 3.15394,4.52697c0.12509,7.40096 0.09611,14.8012 0.09611,22.20304c0,3.88925 0.48094,8.52412 -0.02208,12.34356c-0.22036,1.67317 -0.92879,3.24599 -1.32366,4.88676c-0.42007,1.74545 0.42453,4.35335 -1.12025,5.26807c-2.68001,1.58693 -6.41218,-0.7812 -9.28936,-0.98654c-3.9572,-0.28242 -8.0772,0.51254 -12.01201,0c-2.53068,-0.32964 -4.96625,-1.26692 -7.50751,-1.5015c-3.47492,-0.32076 -6.37328,0.67419 -9.32363,-1.26037c0.02463,1.30742 0.18529,2.68374 -0.67427,3.54331zM219.74513,193.37432c0,3.93033 -1.0115,9.20821 -0.06688,12.93913c0.54937,2.16984 2.55418,3.81316 3.003,6.00601c0.3395,1.65872 0.06688,3.38578 0.06688,5.07889c0,1.19267 0.20964,2.41721 -0.06688,3.57739c-0.25947,1.08866 -1.21571,1.92096 -1.5015,3.003c-0.20681,0.783 0.21158,1.63181 0.06688,2.42862c-0.08552,0.47095 -1.14403,0.99125 -0.73223,1.23524c0.51022,0.3023 1.04763,-0.77672 1.63569,-0.69995c1.56941,0.20487 2.95456,1.18109 4.5045,1.5015c1.96055,0.4053 4.04063,-0.38119 6.00601,0c1.55377,0.30136 2.95456,1.18109 4.5045,1.5015c1.82986,0.37828 3.737,-0.03228 5.60555,-0.03228c2.002,0 4.004,0 6.00601,0c1.001,0 2.01662,-0.17042 3.003,0c0.47166,0.08149 0.89678,1.07069 1.23524,0.73223c0.33846,-0.33846 -0.48816,-0.82349 -0.73223,-1.23524v-1.5015c0,0 0,-1.81688 1.54889,-2.35287c-1.70909,-3.82712 -1.54889,-6.90185 -1.54889,-11.16064c0,-6.00601 0,-12.01201 0,-18.01802l-0.76927,0.26627c0,0 -1.76777,-1.76777 0,-3.53553c0.07994,-0.07994 0.15989,-0.15266 0.23967,-0.21863c-10.68908,-0.00061 -21.37819,-0.01084 -32.06723,-0.01564c0.0593,0.29416 0.0593,0.50054 0.0593,0.50054zM254.78623,192.88933c0.16781,0.12383 0.2627,0.21873 0.2627,0.21873l2.23373,3.26927c0,6.00601 0,12.01201 0,18.01802c0,3.52787 -0.45319,6.20478 1.23757,9.39248c0.3444,0.78442 0.46317,1.71374 1.0332,2.35327c1.53597,1.72323 5.6241,0.60741 7.48759,0.78144c2.54101,0.2373 4.97828,1.16085 7.50751,1.5015c3.91377,0.52712 8.06797,-0.29555 12.01201,0c0.96481,0.0723 1.93597,0.23591 2.84855,0.5573c1.01426,0.3572 1.84878,1.77358 2.87711,1.45916c0.71363,-0.2182 -0.8067,-1.36692 -0.74619,-2.11071c0.13345,-1.6403 1.08338,-3.13079 1.30528,-4.76148c0.20983,-1.54196 -0.0176,-3.11229 -0.02208,-4.66845c-0.0267,-9.27714 -0.11054,-18.56722 0.09611,-27.84201c-0.17827,-0.46816 -0.04045,-1.32349 -0.53481,-1.40448c-1.15749,-0.18965 -2.29598,0.48242 -3.4371,0.75371c-5.11035,1.21494 -9.42071,2.45422 -14.70528,2.46425c-6.48526,0.01231 -12.97057,0.01719 -19.4559,0.01801z"/></g></g></svg>