<svg version="1.1" xmlns="http://www.w3.org/2000/svg" xmlns:xlink="http://www.w3.org/1999/xlink" width="260.25891" height="96.69232" viewBox="0,0,260.25891,96.69232"><g transform="translate(-105.13186,-156.23906)"><g data-paper-data="{&quot;isPaintingLayer&quot;:true}" fill="#9966ff" fill-rule="nonzero" stroke="none" stroke-width="0.5" stroke-linecap="butt" stroke-linejoin="miter" stroke-miterlimit="10" stroke-dasharray="" stroke-dashoffset="0" style="mix-blend-mode: normal"><path d="M165.41486,171.752c-0.04952,0.00874 -0.09883,0.01915 -0.14791,0.03142c-0.65394,0.16348 -1.2103,0.60089 -1.78985,0.96741c1.76558,0.14972 3.50113,0.26777 5.10081,0.14857c-0.99419,-0.49391 -1.9414,-0.91267 -2.7843,-1.08138c-0.12594,-0.02521 -0.2522,-0.0471 -0.37876,-0.06601zM160.58853,166.88258c1.10382,-0.01369 2.18318,0.03007 3.24198,0.1252c0.09398,-0.03554 0.18975,-0.06612 0.28769,-0.09061c0.97111,-0.24278 2.03189,0.24278 3.003,0c0.66192,-0.16548 1.22163,-0.62501 1.80846,-0.9965c-3.58977,-0.03335 -7.17674,-0.07639 -10.7536,-0.07639c-0.20908,0 -0.41812,-0.00001 -0.62712,-0.00005zM177.63621,170.27742c0.028,0.10909 0.05433,0.21881 0.07898,0.3291l3.93878,0.78776c1.16847,0.20987 2.05512,1.23166 2.05512,2.46053c0,1.38071 -1.11929,2.5 -2.5,2.5l-3.68792,0c-0.45045,1.5724 -1.19552,3.20067 -2.50526,4.13113c-1.17757,0.83657 -2.87414,0.31229 -4.31733,0.37337c-4.17368,0.17665 -8.96399,0.79682 -12.3559,-2.31492c-0.22801,-0.20917 -0.37352,-0.47472 -0.4829,-0.76583c-1.22563,-0.09191 -2.45122,-0.22378 -3.67772,-0.39803v0.47578l-4.5045,0c-1.38071,0 -2.5,-1.11929 -2.5,-2.5c0,-0.99757 0.58428,-1.85867 1.4293,-2.25976l2.81729,-1.41032c0.31154,-0.22623 0.61275,-0.47259 0.91027,-0.72613c-0.4839,-0.43897 -0.96158,-0.88349 -1.42162,-1.34353c0,0 -1.76777,-1.76777 0,-3.53553c0.09088,-0.09088 0.18177,-0.17242 0.27241,-0.24534c-14.63056,-0.04266 -29.12054,-0.28181 -43.7573,-1.50154c0,0 -2.49136,-0.20761 -2.28375,-2.69898c0.20761,-2.49136 2.69898,-2.28375 2.69898,-2.28375c16.82628,1.40219 33.45345,1.49287 50.33293,1.49287c11.08767,0 22.28109,0.43302 33.3425,-0.34177c6.6989,-0.46715 13.37643,-1.01697 20.09149,-1.13966l1.08531,-0.01965c0,0 2.49959,-0.04526 2.54485,2.45433c0.04526,2.49959 -2.45433,2.54485 -2.45433,2.54485l-1.08531,0.01965c-6.6288,0.11892 -13.22132,0.66722 -19.83419,1.12837c-5.47295,0.38002 -10.97591,0.47278 -16.48255,0.46845c1.01242,0.74721 1.68353,2.10238 2.25237,4.31856z"/><path d="M328.32712,166.11004c-0.67905,0.29392 -1.35408,0.55322 -2.02607,0.79189c1.30637,0.04013 2.57312,0.11037 3.86189,0.23205c-0.09047,-0.08506 -0.179,-0.17178 -0.26548,-0.26008zM335.39577,165.75021l0.20171,-0.20171l2.90131,2.90131c0.44894,-0.45399 0.82245,-0.9594 1.06126,-1.55773c0.31684,-0.79384 0.16844,-1.676 0.01243,-2.5493c-1.77478,0 -3.54957,0 -5.32435,0c0.39579,0.45732 0.77752,0.92737 1.14764,1.40742zM333.67752,172.67022c-2.14491,-0.37721 -4.28043,-0.45083 -6.41015,-0.44822c0.05517,0.07935 0.10929,0.1595 0.16228,0.24052c0.1754,0.26817 0.99057,3.53159 2.42808,3.3968c1.66562,-0.15618 2.71943,-1.76676 3.81978,-3.18909zM336.79087,156.40667c3.24414,-0.66535 5.47161,0.71894 6.75135,2.93613c4.44752,0 8.89504,0 13.34256,0c1.5015,0 3.003,0 4.5045,0h1.5015c0,0 2.5,0 2.5,2.5c0,2.5 -2.5,2.5 -2.5,2.5c-1.5015,0 -4.5045,0 -6.00601,0c-4.01025,0 -8.02049,0 -12.03074,0c0.04788,1.54143 -0.18087,3.09773 -0.67458,4.46271c-0.18106,0.50058 -5.10664,5.38234 -6.01541,6.28453c-1.86245,1.84898 -5.03002,5.86162 -8.3063,5.76927c-5.05972,-0.14263 -4.57313,-2.60163 -6.58093,-5.61221c-0.74217,-1.11285 -1.68846,-2.06935 -2.6357,-3.02523c-1.26762,-0.05053 -2.53449,-0.15822 -3.80139,-0.37156h-5c-1.38071,0 -2.5,-1.11929 -2.5,-2.5c0,-1.1246 0.74256,-2.07576 1.76412,-2.38994l4.32589,-1.44196c0.07045,-0.03437 0.14119,-0.06801 0.2122,-0.10096c-0.23172,-0.36369 -0.46873,-0.72297 -0.71476,-1.07465c-14.54267,0 -29.08533,0 -43.628,0c0,0 -2.5,0 -2.5,-2.5c0,-2.5 2.5,-2.5 2.5,-2.5c13.73695,0 27.47389,0 41.21084,0c0.12388,-0.25275 0.30668,-0.51101 0.56494,-0.76927c1.76777,-1.76777 3.53553,0 3.53553,0c0.25983,0.26346 0.53071,0.51768 0.80473,0.76927c4.2984,0 8.5968,0 12.8952,0c2.10265,-1.28716 4.22898,-2.47437 6.48044,-2.93613z"/><path d="M275.30068,250.43138c0,2.5 -2.5,2.5 -2.5,2.5l-3.10982,-0.00228c-0.89464,-0.0759 -1.78928,-0.1518 -2.68392,-0.22769c-6.62452,-0.56765 -13.40549,-0.617 -19.98628,-1.28451c-4.89318,-0.49633 -9.63068,-2.50295 -14.51952,-3.003c-5.86706,-0.60011 -12.03117,0.16433 -17.92674,-0.06547c-11.24051,-0.43814 -22.46881,-1.69844 -33.64139,-2.93984c0,0 -2.48471,-0.27608 -2.20863,-2.76079c0.27608,-2.48471 2.76079,-2.20863 2.76079,-2.20863c11.05377,1.2282 22.16299,2.47957 33.28398,2.91305c6.00392,0.23402 12.265,-0.52412 18.24098,0.08765c4.89173,0.50077 9.63054,2.51654 14.51952,3.003c6.55688,0.65243 13.30399,0.71123 19.90418,1.27679c0.82356,0.07133 1.64711,0.14267 2.47067,0.214l2.89618,-0.00228c0,0 2.5,0 2.5,2.5z"/></g></g></svg>