<svg version="1.1" xmlns="http://www.w3.org/2000/svg" xmlns:xlink="http://www.w3.org/1999/xlink" width="251.51927" height="189.70097" viewBox="0,0,251.51927,189.70097"><g transform="translate(-184.44208,-43.72718)"><g data-paper-data="{&quot;isPaintingLayer&quot;:true}" fill="#9966ff" fill-rule="nonzero" stroke="none" stroke-width="0.5" stroke-linecap="butt" stroke-linejoin="miter" stroke-miterlimit="10" stroke-dasharray="" stroke-dashoffset="0" style="mix-blend-mode: normal"><path d="M435.96134,217.39271c0.00564,2.49999 -2.49435,2.50564 -2.49435,2.50564l-2.93135,0.00662c-16.51842,0.03728 -33.3288,-0.80911 -49.79562,0.48341c-34.14164,2.66732 -68.27454,5.57992 -102.4444,7.85791c-28.03414,1.86894 -56.04278,3.66432 -84.10532,4.98452c-0.14562,0.053 -0.30485,0.0977 -0.4789,0.13251c-0.54074,0.10815 -0.98607,0.07316 -1.35175,-0.04707c-0.67597,0.0313 -1.35198,0.06231 -2.02802,0.09304c0,0 -2.49742,0.11352 -2.61094,-2.3839c-0.11352,-2.49742 2.3839,-2.61094 2.3839,-2.61094c0.01078,-0.00049 0.02156,-0.00098 0.03235,-0.00147c-0.86883,-3.94407 -1.83588,-7.93678 -2.33772,-11.89541c-1.25372,-9.88972 -1.11306,-20.17527 -1.65926,-30.13245c-0.8263,-15.06352 -1.37825,-30.00981 -1.3942,-45.09675c-0.00374,-3.53345 -0.0072,-7.0669 -0.01034,-10.60035c-0.0133,-0.11881 -0.02032,-0.24428 -0.02032,-0.37676c0,-0.13027 0.00679,-0.25376 0.01966,-0.3708c-0.01233,-14.05558 -0.01966,-28.11113 -0.01966,-42.16673c0,-3.00544 -0.64704,-6.09294 0.05106,-9.01618c0.0624,-0.26129 3.88302,-9.23966 4.11103,-9.72067c0.82152,-1.73307 1.22838,-3.81118 2.63503,-5.11493c1.4452,-1.33947 3.60714,-1.58777 5.4228,-2.3534c5.59731,-2.36028 11.61052,-3.81714 17.4158,-5.58397c6.26253,-1.90599 13.01797,-4.90306 19.47934,-5.90218c0.23045,-0.03563 9.90913,-0.13805 10.35291,-0.14311c6.01196,-0.06849 12.0349,-0.03606 18.04482,-0.20533c18.00497,-0.50713 36.0043,-1.39697 54.00626,-2.01773c14.50064,-0.50002 28.98151,-1.01054 43.46592,-1.86257c4.89802,-0.28812 10.01573,-0.12132 14.87713,-0.61174c4.48312,-0.45226 7.76677,-1.50325 12.3376,-1.51475h3.003c0,0 2.5,0 2.5,2.5c0,2.5 -2.5,2.5 -2.5,2.5h-3.003c-4.45947,-0.0125 -7.39284,1.03651 -11.83298,1.48922c-4.92695,0.50234 -10.12389,0.33662 -15.08814,0.62864c-14.52482,0.8544 -29.04613,1.36681 -43.58722,1.86823c-18.01785,0.62131 -36.03311,1.51254 -54.054,2.01914c-6.0325,0.16959 -12.0779,0.13782 -18.11243,0.20656c-3.21518,0.03663 -6.46817,-0.40665 -9.64579,0.08471c-6.22032,0.96185 -12.75605,3.90859 -18.78761,5.74428c-5.70351,1.73585 -11.43141,3.36287 -17.01466,5.44298c-1.27899,0.4765 -2.85359,0.4407 -3.86197,1.36051c-0.94425,0.86131 -0.99692,2.35371 -1.49859,3.5292c-1.23593,2.89597 -3.0092,5.6062 -3.76736,8.66223c-0.64298,2.59177 0.05106,5.34051 0.05106,8.01085c0,13.34587 0.0066,26.69169 0.01783,40.03754c10.82739,0 21.65478,0 32.48217,0c6.6686,0 13.51184,-0.43257 20.16424,0.0054c11.60692,0.76416 23.32651,3.07939 34.86143,4.60484c13.45972,1.77999 27.02062,4.39877 40.60497,4.39877h1.5015c0,0 2.5,0 2.5,2.5c0,2.5 -2.5,2.5 -2.5,2.5h-1.5015c-13.80941,0 -27.57908,-2.63262 -41.26049,-4.44193c-11.42535,-1.51096 -23.0383,-3.81562 -34.53437,-4.57248c-6.54237,-0.43073 -13.27719,0.0054 -19.83576,0.0054c-10.82592,0 -21.65183,0 -32.47775,0c0.00261,2.82394 0.00542,5.64788 0.00841,8.47182c0.01586,14.99778 0.56527,29.85357 1.3867,44.82817c0.53963,9.83745 0.3885,20.00736 1.62706,29.77749c0.51854,4.09041 1.55521,8.21927 2.44201,12.28864c27.61302,-1.31289 55.17485,-3.08092 82.7615,-4.92003c34.1509,-2.27673 68.26486,-5.18796 102.38755,-7.85379c16.59713,-1.29078 33.52573,-0.46102 50.17377,-0.49859l2.93135,-0.00662c0,0 2.49999,-0.00564 2.50564,2.49435z"/></g></g></svg>