<svg version="1.1" xmlns="http://www.w3.org/2000/svg" xmlns:xlink="http://www.w3.org/1999/xlink" width="498.75456" height="369.32123" viewBox="0,0,498.75456,369.32123"><g transform="translate(-3.15314,29.82042)"><g data-paper-data="{&quot;isPaintingLayer&quot;:true}" fill="#9966ff" fill-rule="nonzero" stroke="none" stroke-width="0.5" stroke-linecap="butt" stroke-linejoin="miter" stroke-miterlimit="10" stroke-dasharray="" stroke-dashoffset="0" style="mix-blend-mode: normal"><path d="M231.89675,330.44515c-13.22771,1.67864 -26.54783,4.00769 -39.8388,5.05067c-7.61418,0.59751 -15.51797,0.00498 -23.15768,0.00498c-13.33333,0 -26.66667,0 -40,0c-30,0 -60,0 -90,0c0,0 -2.5,0 -2.5,-2.5c0,-0.64096 0.16433,-1.11759 0.40873,-1.47202c-1.78089,0.20952 -3.56177,0.41903 -5.34266,0.62855c-4.05593,0.47717 -9.77266,0.12667 -13.33352,2.53825c-0.71866,0.48671 -0.86903,1.53712 -1.51259,2.11953c-0.99613,0.90147 -2.22215,1.51055 -3.33323,2.26583l-2.38675,0.41987c0,0 -2.5,0 -2.5,-2.5c0,-2.5 2.5,-2.5 2.5,-2.5l-0.38675,0.41987c4.13296,-2.68762 4.68724,-5.01881 10.10951,-6.49979c0.18876,-0.05156 9.86557,-1.18302 10.25911,-1.22931c8.27626,-0.97368 16.55251,-1.94735 24.82877,-2.92103c5.69157,-0.6696 12.06154,-0.49992 17.25253,-2.99473c13.58714,-6.35528 27.17429,-12.71055 40.76143,-19.06583c4.41224,-2.06379 8.97959,-4.78512 13.58714,-6.35528c1.01447,-0.34571 2.73491,0.47024 3.17507,-0.50697c0.37646,-0.83579 -1.60402,-0.94927 -2.20893,-1.63799c-1.09986,-1.25224 -1.89505,-2.74224 -2.84257,-4.11337c-5.68514,-8.22673 -11.37028,-16.45347 -17.05543,-24.6802c-19.898,-28.79357 -39.79599,-57.58714 -59.69399,-86.38071c-6.43772,-9.41059 -8.87025,-21.99311 -12.44827,-32.79674c-7.33584,-22.15017 -14.67168,-44.30033 -22.00752,-66.4505c-2.61994,-7.91077 -5.23989,-15.82155 -7.85983,-23.73232c-0.4365,-1.31798 -3.40419,-9.97522 -3.20809,-10.83491c0.1961,-0.85969 6.6245,-7.37358 7.58937,-8.37189c0.62829,-0.65007 7.12408,-7.42196 7.57543,-7.66145c1.70041,-0.90226 3.77375,-0.76271 5.666,-1.11611c3.27668,-0.61195 6.56687,-1.1492 9.8503,-1.7238c8.1727,-1.43022 16.57851,-3.62009 24.84043,-4.33756c0.14243,-0.01237 9.93855,-0.00937 10.21629,-0.00937c35,0 70,0 105,0c13.23137,0 26.62992,0.62127 39.84466,0.00483c3.23344,-0.15083 4.60684,-1.07368 8.26188,-1.00256c4.40145,0.08565 9.50698,1.98695 13.80334,2.90095c0.30407,0.06469 9.86341,2.09447 10.01654,2.14303c9.45011,2.99646 18.68811,7.98748 27.80731,11.89141c4.59651,1.96777 9.19302,3.93553 13.78953,5.9033c1.53217,0.65592 3.08465,1.2663 4.59651,1.96777c1.17544,0.54538 2.16734,1.84936 3.46075,1.77064c1.29341,-0.07872 2.11985,-1.49336 3.22048,-2.17727c1.41563,-0.87964 2.88263,-1.67379 4.32394,-2.51068c5.76243,-3.34593 11.47978,-6.79104 17.29578,-10.04271c1.72491,-0.96438 3.28375,-2.39792 5.21393,-2.82187c0.56092,-0.1232 8.93436,1.93501 8.93676,1.93558c4.74695,1.12518 10.45215,1.73981 14.96211,3.57693c6.02575,2.45457 11.90334,7.11543 17.48896,10.47055c8.58276,5.23155 14.5031,14.63582 20.91036,22.33671c4.26391,5.1248 8.52782,10.24959 12.79173,15.37439c0.3177,0.38185 6.49279,7.78822 6.6265,8.01453c2.46933,4.17973 3.87161,9.79783 5.64541,14.32704c3.64666,9.31138 7.29332,18.62277 10.93998,27.93415c1.82093,4.64956 4.1116,9.38131 5.5379,14.16433c1.42629,4.78301 2.10131,9.99655 3.12433,14.88405c2.39019,11.4192 4.78038,22.8384 7.17058,34.2576c1.02437,4.89394 2.04874,9.78788 3.0731,14.68183c0.65666,3.13723 0.80966,6.41878 1.94089,9.41774c1.62783,4.31549 4.95077,8.68601 7.22549,12.70469c4.92598,8.70257 9.85196,17.40514 14.77795,26.10771c3.07703,5.43608 6.90153,10.7421 8.42601,16.8283c1.33733,5.33903 3.88738,15.69929 -1.8532,19.5551c-0.54675,0.36724 -9.3019,1.77695 -9.98834,1.89273c-8.21726,1.38604 -16.43452,2.77209 -24.65177,4.15813c-16.44308,2.77353 -32.86626,5.83222 -49.35401,8.32424c-7.23677,1.09379 -14.50203,2.04751 -21.7765,2.94701c-0.07923,-2.02914 -0.58627,-3.62195 -1.33347,-4.87226c7.47601,-0.92083 14.94282,-1.89654 22.37928,-3.02112c16.4539,-2.48826 32.84355,-5.5404 49.25308,-8.30828c8.21726,-1.38604 16.43452,-2.77209 24.65177,-4.15813c2.68981,-0.4537 5.63428,0.00606 8.10101,-1.15848c1.74804,-0.82525 0.86309,-5.57708 0.85948,-5.90195c-0.03082,-2.77401 -0.46662,-5.55266 -1.13803,-8.24437c-1.39385,-5.588 -5.09687,-10.57883 -7.92658,-15.57798c-4.92598,-8.70257 -9.85196,-17.40514 -14.77795,-26.10771c-2.40282,-4.24498 -5.83398,-8.84724 -7.55245,-13.40302c-0.08936,-0.2369 -2.05833,-9.68862 -2.15659,-10.15803c-1.02437,-4.89394 -2.04874,-9.78788 -3.0731,-14.68183c-2.39019,-11.4192 -4.78038,-22.8384 -7.17058,-34.2576c-0.99445,-4.75102 -1.63527,-9.82965 -3.02188,-14.4796c-1.38661,-4.64995 -3.63201,-9.25009 -5.40209,-13.76982c-3.64666,-9.31138 -7.29332,-18.62277 -10.93998,-27.93415c-1.67518,-4.27741 -2.96099,-9.65715 -5.29458,-13.60711c-1.62784,-2.75537 -4.11836,-4.89972 -6.16523,-7.35985c-4.26391,-5.1248 -8.52782,-10.24959 -12.79173,-15.37439c-5.95075,-7.15222 -11.60783,-16.50649 -19.64135,-21.24844c-5.36027,-3.21976 -11.0213,-7.772 -16.80061,-10.12619c-4.27255,-1.74041 -9.73467,-2.27698 -14.22906,-3.34229c-1.62173,-0.3844 -3.25332,-0.72938 -4.86519,-1.1532c-0.7406,-0.19473 -1.44772,-0.89846 -2.18766,-0.70125c-2.92324,0.77908 -5.14167,3.19107 -7.7579,4.71017c-4.32394,2.51068 -8.64789,5.02136 -12.97183,7.53203c-1.07054,0.6216 -8.99931,5.30899 -9.75136,5.35477c-2.03871,0.12408 -3.83594,-1.40615 -5.73226,-2.16489c-6.18282,-2.47382 -12.26384,-5.25015 -18.38604,-7.87107c-8.9674,-3.83895 -18.05968,-8.77574 -27.3508,-11.72178c-3.10015,-0.983 -6.36461,-1.34187 -9.54569,-2.01861c-4.00223,-0.85143 -8.87868,-2.73671 -12.97601,-2.79605c-0.50857,-0.00737 -6.60698,0.94336 -7.73812,0.99744c-13.31615,0.63661 -26.82202,0.00483 -40.15534,0.00483c-35,0 -70,0 -105,0c-11.67275,0 -22.70921,2.2621 -34.19481,4.27208c-3.28343,0.5746 -6.55952,1.19291 -9.8503,1.7238c-1.39141,0.22447 -2.93932,-0.05292 -4.18431,0.6077c-1.24499,0.66061 -1.88306,2.09791 -2.84898,3.12427c-2.28446,2.42742 -4.53575,4.89169 -6.9496,7.19048c-0.89878,0.85594 -2.559,1.20377 -2.83503,2.41384c-0.27603,1.21006 1.06912,2.24345 1.50781,3.40449c0.58909,1.55909 1.04798,3.16431 1.57197,4.74646c2.61994,7.91077 5.23989,15.82155 7.85983,23.73232c7.33584,22.15017 14.67168,44.30033 22.00752,66.4505c2.09595,6.32862 4.19191,12.65724 6.28786,18.98586c1.58711,4.79219 2.6286,8.39418 5.52731,12.54028c19.898,28.79357 39.79599,57.58714 59.69399,86.38071c5.68514,8.22673 11.37028,16.45347 17.05543,24.6802c0.91372,1.32221 6.18486,8.54917 5.76452,9.90007c-0.68984,2.21708 -3.85859,2.59278 -5.88303,3.72988c-2.90626,1.6324 -6.03873,2.82457 -9.0581,4.23685c-15.09683,7.06142 -30.19365,14.12284 -45.29048,21.18426c-5.84498,2.67488 -12.43734,2.68445 -18.78675,3.43144c-3.58276,0.4215 -7.16553,0.843 -10.74829,1.2645c27.78448,0 55.56896,0 83.35345,0c13.33333,0 26.66667,0 40,0c7.53053,0 15.33867,0.60325 22.84232,0.00498c13.18634,-1.05135 26.3995,-3.35521 39.5247,-5.02084c27.38246,-3.47493 54.76492,-6.94987 82.14738,-10.42479c0.14859,2.3401 1.06883,4.25071 1.39549,4.86301c-27.63782,3.50734 -55.27563,7.01468 -82.91345,10.52201z"/><path d="M150.26892,268.11259c0.04725,0.46371 0.10246,0.92472 0.16692,1.38208c0.86683,0.58158 1.30024,1.89308 1.30024,1.89308l0.5317,2.04294c0.66667,1.00866 1.33333,2.01731 2,3.02597c0,0 1.76777,2.67461 0,5.3492c-1.76777,2.67461 -3.53553,0 -3.53553,0c-0.66667,-1.00866 -1.33333,-2.01731 -2,-3.02597l-0.69785,-1.90538c-1.40408,-0.32045 -1.90609,-2.59908 -1.90609,-2.59908c-2.48079,-11.6098 -2.14119,-29.08598 1.06021,-40.46165c1.27879,-4.54398 3.49233,-8.34689 5.16091,-12.59163c2.44294,-6.21466 4.1061,-13.71875 6.09795,-20.29796c4.63658,-15.31489 9.3159,-30.39297 13.08762,-46.24452c1.55322,-6.52779 4.1405,-13.94846 4.97485,-20.76118c1.49713,-12.22445 -1.17065,-25.72343 0.53426,-37.91048c0.99007,-7.07723 4.07871,-14.92051 5.92947,-21.61272c1.92987,-6.97831 3.83843,-13.97142 5.78991,-20.93596c0.71476,-2.55088 1.13942,-5.34421 2.16584,-7.63873c0.18205,-0.40698 7.01594,-10.54464 7.44687,-11.18589c5.01426,-7.4616 9.80741,-14.91947 15.41146,-21.36925c13.38311,-3.03213 26.74973,-5.64856 40.07412,-9.25974c4.9191,-1.33317 9.83303,-2.78261 14.76499,-4.0016c1.94116,-0.47978 3.90395,-1.88772 5.83533,-1.32486c0.58516,0.17053 8.46204,7.69043 9.33456,8.51408c5.65603,5.33931 11.31206,10.6786 16.9681,16.01791c0.24092,0.22743 8.21593,7.7286 8.43775,8.04657c1.32497,1.89919 2.17623,4.43407 3.26435,6.6511c4.91224,10.18479 9.82448,20.36959 14.73673,30.55438c2.77829,5.76037 7.21984,12.53721 9.11081,19.0388c0.74322,2.55537 0.77532,5.45912 1.14951,8.19295c1.01385,7.40724 1.97395,14.83267 2.96083,22.24826c2.96083,22.24826 5.92166,44.49652 8.8825,66.74478c2.86685,21.54206 6.82352,43.39525 8.66977,65.18409c1.27153,15.00616 1.47579,30.41334 2.20564,45.50483c0.10712,2.21497 0.25578,4.3933 0.42732,6.55362c-1.74794,0.18339 -3.48428,0.54212 -5.22769,1.22087c-0.22914,-4.93145 -0.31689,-9.92153 -0.55123,-14.76715c-0.60118,-12.43083 -0.76577,-25.12638 -1.80802,-37.48747c-1.82353,-21.62721 -5.77195,-43.33376 -8.61747,-64.71553c-2.96083,-22.24826 -5.92166,-44.49652 -8.8825,-66.74478c-0.98686,-7.41547 -2.00403,-14.8238 -2.96083,-22.24826c-0.28483,-2.21017 -0.22492,-4.57816 -0.82438,-6.63922c-1.74503,-5.99979 -6.01278,-12.31769 -8.57327,-17.62647c-4.91224,-10.18479 -9.82448,-20.36959 -14.73673,-30.55438c-3.03782,-6.43363 -5.88735,-8.56396 -10.30989,-12.73885c-5.65603,-5.33931 -11.31206,-10.6786 -16.9681,-16.01791c-1.41401,-1.33483 -2.84444,-2.63064 -4.24202,-4.00448c-1.14745,-1.12795 -2.04785,-3.10776 -3.39152,-3.49935c-1.34366,-0.39159 -2.66572,0.94052 -4.00799,1.34288c-4.90091,1.46909 -9.847,2.66874 -14.76499,4.0016c-12.95924,3.51221 -25.92773,6.53929 -39.01349,8.78419c-4.92791,6.08777 -9.3137,13.04498 -13.84764,19.79182c-2.25925,3.36194 -5.03601,6.06206 -6.81217,10.03262c-0.84202,1.8823 -1.12142,4.21732 -1.6941,6.31859c-1.90596,6.99324 -3.86005,13.95772 -5.78991,20.93596c-1.72779,6.24758 -4.72515,13.64576 -5.65035,20.2592c-1.68834,12.06858 0.98076,25.55322 -0.50958,37.72227c-0.88358,7.21471 -3.54073,15.02759 -5.18673,21.94528c-3.81952,16.05242 -8.55123,31.32461 -13.24625,46.83251c-2.06816,6.83126 -3.81872,14.54226 -6.34257,21.0049c-1.53888,3.94051 -3.65579,7.40382 -4.83909,11.61612c-2.0093,7.15265 -1.84652,14.5145 -1.81482,22.04075l0.00004,0c0.75424,0.29547 1.27109,1.07747 1.27109,1.07747l0.42159,0.8606c0.85393,0.6988 1.70785,1.39759 2.56178,2.09639c12.03137,9.84569 25.80481,20.46211 39.97377,18.65289c2.79652,-0.35708 5.36368,-2.50275 8.05149,-3.72436c4.75852,-2.16277 9.39559,-4.25698 14.01036,-7.05183c0.58555,-0.35463 9.43535,-5.73559 9.77509,-5.83107c1.67851,-0.47178 3.41408,0.0801 5.12085,0.13957c0.33688,0.01174 10.1079,0.42627 10.27288,0.46128c0.18129,0.03848 9.61888,3.70025 9.96035,3.83245c26.22354,10.15352 51.3055,25.94937 77.04596,38.30053c-1.54664,2.06563 -2.38269,4.34536 -2.77584,6.58147c-25.20346,-12.23896 -49.80762,-27.60165 -75.50969,-37.55326c-3.13969,-1.21567 -6.20579,-2.98852 -9.41524,-3.66961c-3.20946,-0.68109 -6.48018,-0.22486 -9.71919,-0.39096c-1.36827,-0.07016 -2.75817,-0.63568 -4.10373,-0.25365c-3.11,0.88296 -5.85619,3.63013 -8.79444,5.40709c-4.75318,2.87457 -9.52918,5.04614 -14.4288,7.27304c-2.97603,1.35262 -5.84473,3.58001 -8.93981,3.99827c-15.22069,2.05689 -29.9586,-8.92531 -42.90267,-19.5179c-0.5345,-0.4374 -1.06901,-0.87481 -1.60351,-1.31221z"/><path d="M311.26777,222.2306c1.76777,1.76777 0,3.53553 0,3.53553l-0.86963,0.85921c-3.84124,4.48145 -8.49053,8.84915 -11.79618,13.72645c-6.16617,9.09782 -7.05674,22.03491 -15.6787,29.29076c-1.49693,1.25975 -2.77695,2.8862 -4.5559,3.70053c-2.688,1.23045 -5.91113,0.16299 -8.86737,0.15529c-3.37088,-0.00878 -6.78287,-0.44762 -10.01429,-1.40722c-6.38016,-1.93338 -12.76033,-3.86677 -19.14049,-5.80015c-0.73839,-0.22376 -9.6174,-2.89668 -10.0581,-3.10655c-2.42189,-1.1534 -4.07441,-3.49053 -6.09321,-5.25698c-2.50859,-2.19502 -5.01718,-4.39003 -7.52577,-6.58505c-10.17308,-8.90144 -19.92064,-17.65527 -29.01801,-27.66237c0,0 -1.68168,-1.84985 0.16817,-3.53153c1.84985,-1.68168 3.53153,0.16817 3.53153,0.16817c8.96989,9.86688 18.57898,18.48499 28.61083,27.26286c2.50859,2.19502 5.01718,4.39003 7.52577,6.58505c1.75452,1.5352 3.1013,3.68904 5.22642,4.6477c2.87847,1.2985 6.0603,1.77781 9.08239,2.69359c6.38016,1.93338 12.76033,3.86677 19.14049,5.80015c4.7237,1.46533 8.64519,1.08524 13.56425,1.19234c0.71259,0.01551 1.49847,0.48065 2.13263,0.15529c3.65987,-1.87769 6.08993,-5.7285 7.66046,-9.24163c2.04361,-4.57136 4.18464,-9.09881 6.29702,-13.63856c1.26228,-2.71279 2.13785,-5.6459 3.80793,-8.12853c3.41409,-5.07517 8.21774,-9.62312 12.20382,-14.27355l1.13037,-1.14079c0,0 1.76777,-1.76777 3.53553,0z"/><path d="M235.42543,165.38691c2.49576,-0.14551 2.64128,2.35024 2.64128,2.35024c0.09702,1.66384 0.44535,7.63819 0.54235,9.30202c0.0887,1.83923 0.52085,3.69403 0.26612,5.51768c-0.04387,0.31405 -3.37211,9.01953 -3.45143,9.21676c-0.74498,1.8523 -0.97067,4.05052 -2.32022,5.52181c-1.18702,1.29409 -3.17223,1.50828 -4.7787,2.21746c-3.04941,1.34617 -6.1508,2.57141 -9.22619,3.85713c-1.33865,0.55963 -9.80023,4.22176 -10.7101,3.99598c-5.92394,-1.47004 -6.8137,-10.4007 -8.11051,-14.98322c-0.51259,-1.81134 -1.3556,-3.56778 -1.49927,-5.44476c-0.09501,-1.24121 0.51971,-2.435 0.80332,-3.64711c0.75943,-3.24567 1.58204,-6.47623 2.37307,-9.71435c0.17269,-0.70696 2.37861,-9.80834 2.55262,-10.21278c1.63487,-3.79985 6.02705,-7.78068 8.5631,-10.99094c1.67452,-1.23878 6.56453,-4.86605 8.32682,-6.13276c1.54276,-1.10892 2.88426,-2.60094 4.65531,-3.28881c0.87369,-0.33934 10.68446,-0.69303 10.94791,-0.59228c1.8833,0.72024 2.95431,2.7457 4.39061,4.16083c3.60246,3.54937 5.31234,6.46845 7.7683,10.84314c0.93623,1.66765 2.22412,3.1932 2.76353,5.02804c0.82505,2.80639 -0.32498,5.84183 -0.55637,8.75783c-0.76011,9.57897 -5.80039,16.76106 -10.702,24.7982c0,0 -1.3017,2.13438 -3.43608,0.83268c-2.13438,-1.3017 -0.83268,-3.43608 -0.83268,-3.43608c4.43733,-7.27586 9.35379,-13.90688 9.98523,-22.57485c0.1211,-1.66226 0.22814,-3.32581 0.38005,-4.98553c0.07002,-0.76504 0.52408,-1.55667 0.28557,-2.28694c-0.95877,-2.93549 -3.18187,-5.29408 -4.71422,-7.97516c-1.17764,-2.06046 -2.89719,-3.76872 -4.51538,-5.50474c-0.90048,-0.96606 -1.36903,-2.51555 -2.60256,-2.98729c-1.23353,-0.47174 -2.61565,0.37878 -3.93175,0.48836c-1.16994,0.09741 -2.42859,-0.3017 -3.51951,0.13205c-1.33259,0.52985 -2.26249,1.76301 -3.40995,2.62318c-1.6746,1.25532 -6.0474,4.41734 -7.80371,5.69121c-2.17694,2.80967 -6.19158,6.31394 -7.54411,9.58326c-1.20717,2.91794 -1.44416,6.14833 -2.19353,9.21592c-0.79103,3.23811 -1.54505,6.48549 -2.37307,9.71435c-0.20216,0.78833 -0.74125,1.54019 -0.66171,2.35013c0.14184,1.44441 0.88152,2.76575 1.30052,4.15531c0.90608,3.00481 1.30358,6.18614 2.56943,9.05798c0.40547,0.91989 0.78356,2.30346 1.7803,2.43433c1.19139,0.15643 2.04602,-1.26951 3.12919,-1.78971c1.50239,-0.72153 3.0754,-1.28571 4.6131,-1.92856c3.0754,-1.28571 6.1203,-2.64695 9.22619,-3.85713c1.02443,-0.39916 2.38566,-0.26059 3.11556,-1.08282c0.88937,-1.0019 0.79081,-2.56084 1.23944,-3.82318c0.98164,-2.76214 2.78731,-5.29355 3.18222,-8.19823c0.20102,-1.47857 -0.21062,-2.97691 -0.31594,-4.46536c-0.09702,-1.66384 -0.19402,-3.32768 -0.29104,-4.99152l-0.25132,-4.3105c0,0 -0.14551,-2.49576 2.35024,-2.64128z"/><path d="M224,169.99837c0,-1.38071 1.11929,-2.5 2.5,-2.5c1.38071,0 2.5,1.11929 2.5,2.5c0,1.38071 -1.11929,2.5 -2.5,2.5c-1.38071,0 -2.5,-1.11929 -2.5,-2.5z"/><path d="M451.26089,69.86062c0,-7.058 5.72166,-12.77966 12.77966,-12.77966c3.2994,0 6.30671,1.25031 8.57408,3.30298c0.79111,-7.48469 1.4303,-14.98921 2.53722,-22.43265c0.4982,-3.34991 3.92959,-6.86191 2.3856,-9.87622c-4.94997,-9.66398 -27.20473,-19.08157 -34.58023,-22.91465c-4.94614,-3.14088 -8.98057,-9.5439 -14.83846,-9.4226c-6.58889,0.13644 -11.2072,6.95249 -17.00702,10.08203c-7.49788,4.04578 -15.19205,7.71907 -22.86097,11.43049c-20.03927,9.69808 -24.53388,25.94501 -32.58047,46.47538c-6.00066,15.31034 -10.709,30.63428 -17.65285,44.74951c9.17682,7.97988 18.35364,15.9597 27.53051,23.93958c12.05822,10.4854 21.62032,24.6057 35.90941,31.75884c6.67119,3.33958 14.65352,2.81418 21.95904,4.32648c8.34292,1.72699 16.87907,2.76572 24.98434,5.39092c5.27115,1.70726 10.332,10.73803 14.83156,7.50483c4.49957,-3.2332 -2.44516,-10.9103 -2.38177,-16.45064c0.09738,-8.51923 1.90683,-16.93254 2.86024,-25.39876c2.19759,-19.51449 4.39523,-39.02898 6.59282,-58.54342c-1.8508,1.04256 -3.98746,1.63733 -6.26311,1.63733c-7.058,0 -12.77966,-5.72166 -12.77966,-12.77966zM296.53616,140.23959c-9.0366,-9.0366 0,-18.07315 0,-18.07315l5.11186,-5.11186c1.15763,-1.11413 2.26548,-2.2618 3.32726,-3.44054c-11.11585,-9.66597 -22.23175,-19.33195 -33.3476,-28.99792c0,0 -9.64358,-8.38576 -1.25788,-18.02934c8.38576,-9.64358 18.02934,-1.25788 18.02934,-1.25788c10.16678,8.84066 20.33356,17.68132 30.5003,26.52199c13.30117,-28.67173 16.60737,-64.26912 39.33252,-87.59752c10.83879,-11.12648 27.38819,-14.69426 41.4493,-21.29444c9.48384,-4.45167 18.23852,-12.70186 28.71487,-12.77889c9.74393,-0.07167 17.65669,8.24861 26.48503,12.37291c18.12176,9.67942 37.00346,16.41287 46.78102,37.07967c1.4418,3.04754 -3.93598,46.25905 -3.97187,46.57767c-2.86024,25.39876 -5.72053,50.79757 -8.58078,76.19632c-1.03408,9.18234 -5.24309,55.63589 -10.9626,59.74568c-5.61661,4.03587 -51.16342,-6.66541 -60.12145,-8.66788c-9.35052,-2.09019 -19.4419,-2.16636 -28.00964,-6.45531c-1.87375,-0.93798 -38.36193,-32.82492 -41.2394,-35.32707c-8.21967,-7.14756 -16.43935,-14.29507 -24.65902,-21.44263c-1.38884,1.65701 -2.8515,3.28074 -4.39631,4.86833l-5.11186,5.11186c0,0 -9.0366,9.0366 -18.07315,0z"/></g></g></svg>