<svg version="1.1" xmlns="http://www.w3.org/2000/svg" xmlns:xlink="http://www.w3.org/1999/xlink" width="88.5" height="164" viewBox="0,0,88.5,164"><g transform="translate(-212.29166,-77.42855)"><g data-paper-data="{&quot;isPaintingLayer&quot;:true}" fill-rule="nonzero" stroke-linejoin="miter" stroke-miterlimit="10" stroke-dasharray="" stroke-dashoffset="0" style="mix-blend-mode: normal"><path d="M233.04166,122.67855v-45h56v45z" fill="#a9da1c" stroke="#000000" stroke-width="0.5" stroke-linecap="butt"/><path d="M258.04166,121.67855l-1,80l-31,38" fill="none" stroke="#a9da1c" stroke-width="3.5" stroke-linecap="round"/><path d="M256.04166,200.67855l16,35" fill="none" stroke="#a9da1c" stroke-width="3.5" stroke-linecap="round"/><path d="M299.04166,139.67855l-41,24l-44,-21" fill="none" stroke="#a9da1c" stroke-width="3.5" stroke-linecap="round"/><path d="M242.54166,91.67855c0,-1.38071 1.11929,-2.5 2.5,-2.5c1.38071,0 2.5,1.11929 2.5,2.5c0,1.38071 -1.11929,2.5 -2.5,2.5c-1.38071,0 -2.5,-1.11929 -2.5,-2.5z" fill="#000000" stroke="none" stroke-width="0.5" stroke-linecap="butt"/><path d="M269.54166,92.67855c0,-1.38071 1.11929,-2.5 2.5,-2.5c1.38071,0 2.5,1.11929 2.5,2.5c0,1.38071 -1.11929,2.5 -2.5,2.5c-1.38071,0 -2.5,-1.11929 -2.5,-2.5z" fill="#000000" stroke="none" stroke-width="0.5" stroke-linecap="butt"/><path d="M276.27772,105.56051c1.11803,2.23607 -1.11803,3.3541 -1.11803,3.3541l-1.73128,0.84406c-1.80398,1.19324 -3.21234,2.94274 -5.07242,4.0465c-2.60903,1.54818 -3.70546,0.8689 -6.21595,2.11916c-1.19324,0.59425 -2.10342,1.74347 -3.37392,2.14694c-0.61458,0.19517 -7.19337,0.1139 -7.68117,-0.08303c-2.36205,-0.95359 -6.07914,-5.81001 -7.81106,-7.54193c0,0 -1.76777,-1.76777 0,-3.53553c1.76777,-1.76777 3.53553,0 3.53553,0c1.66667,1.66667 3.40212,3.26727 5,5c0.42514,0.46102 0.60512,1.22908 1.18894,1.45807c2.56614,1.00651 4.98173,-0.95052 6.94491,-1.93609c1.81188,-0.90961 4.05257,-0.82619 5.78405,-1.88084c1.79848,-1.09546 3.17911,-2.77986 4.92758,-3.9535l2.26872,-1.15594c0,0 2.23607,-1.11803 3.3541,1.11803z" fill="#000000" stroke="none" stroke-width="0.5" stroke-linecap="butt"/></g></g></svg>