<svg version="1.1" xmlns="http://www.w3.org/2000/svg" xmlns:xlink="http://www.w3.org/1999/xlink" width="74.87638" height="85.97046" viewBox="0,0,74.87638,85.97046"><g transform="translate(-111.80555,-143.67856)"><g data-paper-data="{&quot;isPaintingLayer&quot;:true}" fill-rule="nonzero" stroke-linecap="butt" stroke-linejoin="miter" stroke-miterlimit="10" stroke-dasharray="" stroke-dashoffset="0" style="mix-blend-mode: normal"><path d="M173.8282,173.01189c0,15.64807 -12.35144,28.33333 -27.58772,28.33333c-15.23628,0 -27.58772,-12.68527 -27.58772,-28.33333c0,-15.64807 12.35144,-28.33333 27.58772,-28.33333c15.23628,0 27.58772,12.68527 27.58772,28.33333z" fill="#00ff28" stroke="#000000" stroke-width="2"/><text transform="translate(112.04166,224.01189) scale(0.47222,0.47222)" font-size="40" xml:space="preserve" fill="#ff0000" fill-rule="nonzero" stroke="none" stroke-width="1" stroke-linecap="butt" stroke-linejoin="miter" stroke-miterlimit="10" stroke-dasharray="" stroke-dashoffset="0" font-family="Sans Serif" font-weight="normal" text-anchor="start" style="mix-blend-mode: normal"><tspan x="0" dy="0">npc ville</tspan></text><path d="M128.54166,165.67856c0,-1.38071 1.11929,-2.5 2.5,-2.5c1.38071,0 2.5,1.11929 2.5,2.5c0,1.38071 -1.11929,2.5 -2.5,2.5c-1.38071,0 -2.5,-1.11929 -2.5,-2.5z" fill="#000000" stroke="none" stroke-width="0.5"/><path d="M158.54166,164.67856c0,-1.38071 1.11929,-2.5 2.5,-2.5c1.38071,0 2.5,1.11929 2.5,2.5c0,1.38071 -1.11929,2.5 -2.5,2.5c-1.38071,0 -2.5,-1.11929 -2.5,-2.5z" fill="#000000" stroke="none" stroke-width="0.5"/><path d="M156.80942,178.91079c1.76777,1.76777 0,3.53553 0,3.53553l-1.38102,1.31236c-3.45825,2.28745 -6.64512,7.11159 -10.66229,8.3126c-1.50922,0.45121 -3.14929,0.09433 -4.72446,0.10727c-4.78068,0.03929 -11.24221,-0.68133 -14.12663,-5.18567c-0.6718,-1.04909 -0.83005,-2.34917 -1.24508,-3.52376c0,0 -0.79057,-2.37171 1.58114,-3.16228c2.37171,-0.79057 3.16228,1.58114 3.16228,1.58114c1.51821,4.97993 5.85743,5.23853 10.62829,5.29057c1.09237,0.01191 2.21948,0.38681 3.27554,0.10727c1.11236,-0.29444 3.21102,-2.62937 3.95669,-3.37504c1.62535,-1.62535 3.47251,-3.03129 5.38102,-4.31236l0.61898,-0.68764c0,0 1.76777,-1.76777 3.53553,0z" fill="#000000" stroke="none" stroke-width="0.5"/></g></g></svg>