<svg version="1.1" xmlns="http://www.w3.org/2000/svg" xmlns:xlink="http://www.w3.org/1999/xlink" width="165" height="154" viewBox="0,0,165,154"><g transform="translate(-172.5,-119)"><g data-paper-data="{&quot;isPaintingLayer&quot;:true}" fill-rule="nonzero" stroke-linejoin="miter" stroke-miterlimit="10" stroke-dasharray="" stroke-dashoffset="0" style="mix-blend-mode: normal"><path d="M193.5,165v-45h70v45z" fill="#ff0000" stroke="#000000" stroke-width="2" stroke-linecap="butt"/><path d="M177.5,272v-107h106v107z" fill="#000000" stroke="#000000" stroke-width="2" stroke-linecap="butt"/><path d="M173.5,192l110,1" fill="none" stroke="#ffe200" stroke-width="2" stroke-linecap="round"/><path d="M276.5,179c0,4.97056 -3.80558,9 -8.5,9c-4.69442,0 -8.5,-4.02944 -8.5,-9c0,-4.97056 3.80558,-9 8.5,-9c4.69442,0 8.5,4.02944 8.5,9z" fill="#ff0000" stroke="#212121" stroke-width="2" stroke-linecap="butt"/><path d="M336.5,216.5c0,0.27614 -0.22386,0.5 -0.5,0.5c-0.27614,0 -0.5,-0.22386 -0.5,-0.5c0,-0.27614 0.22386,-0.5 0.5,-0.5c0.27614,0 0.5,0.22386 0.5,0.5z" fill="#ff0000" stroke="#212121" stroke-width="2" stroke-linecap="butt"/><path d="M191.5,192v-16h11v16z" fill="#0030ff" stroke="#212121" stroke-width="2" stroke-linecap="butt"/><path d="M206.5,172c0,4.41828 -4.25329,8 -9.5,8c-5.24671,0 -9.5,-3.58172 -9.5,-8c0,-4.41828 4.25329,-8 9.5,-8c5.24671,0 9.5,3.58172 9.5,8z" fill="#0030ff" stroke="#212121" stroke-width="2" stroke-linecap="butt"/><text transform="translate(191.5,146) scale(0.5,0.5)" font-size="40" xml:space="preserve" fill="#000000" fill-rule="nonzero" stroke="none" stroke-width="1" stroke-linecap="butt" stroke-linejoin="miter" stroke-miterlimit="10" stroke-dasharray="" stroke-dashoffset="0" font-family="Pixel" font-weight="normal" text-anchor="start" style="mix-blend-mode: normal"><tspan x="0" dy="0">arcade</tspan></text></g></g></svg>