<svg version="1.1" xmlns="http://www.w3.org/2000/svg" xmlns:xlink="http://www.w3.org/1999/xlink" width="68.067" height="65.546" viewBox="0,0,68.067,65.546"><g transform="translate(-121.2852,-157.0957)"><g data-paper-data="{&quot;isPaintingLayer&quot;:true}" fill-rule="nonzero" stroke="none" stroke-width="0.63025" stroke-linecap="butt" stroke-linejoin="miter" stroke-miterlimit="10" stroke-dasharray="" stroke-dashoffset="0" style="mix-blend-mode: normal"><path d="M155.3187,157.0957c9.3895,0 17.8978,3.6725 24.0592,9.605c6.1606,5.9332 9.9743,14.1264 9.9743,23.168c0,9.0416 -3.8137,17.2348 -9.9743,23.168c-6.1614,5.9325 -14.6697,9.605 -24.0592,9.605c-9.3894,0 -17.8978,-3.6725 -24.0591,-9.605c-6.1607,-5.9332 -9.9744,-14.1264 -9.9744,-23.168c0,-9.0416 3.8137,-17.2348 9.9744,-23.168c6.1613,-5.9325 14.6697,-9.605 24.0591,-9.605v0z" fill="#272525"/><path d="M123.7583,190.02c0,-16.4502 14.393,-29.7856 32.1491,-29.7856c17.7553,0 30.9326,13.1961 30.9326,29.6469c0,16.4502 -13.1773,29.9236 -30.9326,29.9236c-17.7554,0 -32.1491,-13.3348 -32.1491,-29.7849v0v0z" fill="#ffffff"/><path d="M141.7665,187.1435c2.9186,0 5.5632,1.2032 7.4779,3.1462c1.9147,1.9431 3.1002,4.6273 3.1002,7.5888c0,2.9616 -1.1855,5.6458 -3.1002,7.5889c-1.9147,1.943 -4.5593,3.1462 -7.4779,3.1462c-2.9187,0 -5.5633,-1.2032 -7.478,-3.1462c-1.9147,-1.9431 -3.1002,-4.6273 -3.1002,-7.5889c0,-2.9615 1.1855,-5.6457 3.1002,-7.5888c1.9147,-1.943 4.5593,-3.1462 7.478,-3.1462v0z" fill="#ff0000"/><path d="M156.6504,165.9457c2.1908,0 4.1761,0.8571 5.6137,2.2412c1.4376,1.384 2.3275,3.2962 2.3275,5.4056c0,2.1095 -0.8899,4.0216 -2.3275,5.4057c-1.4376,1.384 -3.4229,2.2411 -5.6137,2.2411c-2.1907,0 -4.176,-0.8571 -5.6136,-2.2411c-1.4376,-1.3841 -2.3275,-3.2962 -2.3275,-5.4057c0,-2.1094 0.8899,-4.0216 2.3275,-5.4056c1.4376,-1.3841 3.4229,-2.2412 5.6136,-2.2412v0z" fill="#ff0000"/><path d="M138.2988,167.5428c1.7181,0 3.2748,0.7241 4.4023,1.8945c1.1275,1.1697 1.8252,2.7857 1.8252,4.5693c0,1.7836 -0.6977,3.3996 -1.8252,4.5693c-1.1275,1.1704 -2.6842,1.8945 -4.4023,1.8945c-1.718,0 -3.2748,-0.7241 -4.4023,-1.8945c-1.1275,-1.1697 -1.8252,-2.7857 -1.8252,-4.5693c0,-1.7836 0.6977,-3.3996 1.8252,-4.5693c1.1275,-1.1704 2.6843,-1.8945 4.4023,-1.8945v0z" fill="#ffac00"/><path d="M167.8374,163.3963c1.0172,0 1.9392,0.3977 2.6067,1.0406c0.6674,0.6428 1.0808,1.5309 1.0808,2.5103c0,0.9794 -0.4134,1.8674 -1.0808,2.5102c-0.6675,0.6429 -1.5895,1.0406 -2.6067,1.0406c-1.0173,0 -1.9393,-0.3977 -2.6068,-1.0406c-0.6674,-0.6428 -1.0808,-1.5308 -1.0808,-2.5102c0,-0.9794 0.4134,-1.8675 1.0808,-2.5103c0.6675,-0.6429 1.5895,-1.0406 2.6068,-1.0406v0z" fill="#ffac00"/><path d="M171.3989,177.062c1.8952,0 3.6126,0.6996 4.8561,1.829c1.2441,1.1301 2.0136,2.6906 2.0136,4.4124c0,1.7218 -0.7695,3.2823 -2.0136,4.4124c-1.2435,1.1294 -2.9609,1.829 -4.8561,1.829c-1.8952,0 -3.6126,-0.6996 -4.8561,-1.829c-1.2441,-1.1301 -2.0136,-2.6906 -2.0136,-4.4124c0,-1.7218 0.7695,-3.2823 2.0136,-4.4124c1.2435,-1.1294 2.9609,-1.829 4.8561,-1.829v0z" fill="#ffac00"/><path d="M179.5921,189.7975c1.5126,0 2.8834,0.5918 3.8754,1.5473c0.9927,0.956 1.6072,2.2758 1.6072,3.7323c0,1.4565 -0.6145,2.7762 -1.6072,3.7323c-0.992,0.9555 -2.3628,1.5473 -3.8754,1.5473c-1.5126,0 -2.8834,-0.5918 -3.8754,-1.5473c-0.9926,-0.9561 -1.6071,-2.2758 -1.6071,-3.7323c0,-1.4565 0.6145,-2.7763 1.6071,-3.7323c0.992,-0.9555 2.3628,-1.5473 3.8754,-1.5473v0z" fill="#ff0000"/><path d="M166.5113,200.2117v0v0c5.8367,-0.0611 10.6115,4.1918 10.6632,9.4973c0.0038,0.4109 -0.0221,0.8149 -0.0763,1.2113c-0.0119,0.1002 -0.0271,0.1985 -0.0441,0.2968c-0.0643,0.3063 -0.1134,0.5742 -0.1651,0.8131c-0.1538,0.1052 -0.2634,0.2502 -0.3492,0.409c-0.0775,0.0504 -0.1443,0.1097 -0.2048,0.1752c-0.1475,0.0838 -0.2691,0.196 -0.3618,0.329c-0.2142,0.0687 -0.3718,0.2017 -0.501,0.3561c-0.1664,0.0756 -0.2994,0.1891 -0.4053,0.3233c-0.0126,0.0107 -0.0195,0.0221 -0.0308,0.0334c-0.133,0.0725 -0.2446,0.1664 -0.3347,0.2792c-0.1084,0.075 -0.2149,0.1551 -0.3164,0.2509c-0.0246,0.0094 -0.0428,0.0258 -0.0662,0.039c-0.1418,0.0568 -0.2634,0.1393 -0.3636,0.2389c-0.2288,0.0681 -0.4204,0.1834 -0.5559,0.3479c-0.1071,0.0605 -0.201,0.1349 -0.2798,0.2225c-0.0687,0.0321 -0.133,0.0699 -0.1916,0.1122c-0.1784,0.0573 -0.3252,0.1525 -0.4443,0.2703c-0.1166,0.0397 -0.2118,0.1047 -0.3038,0.1727c-0.1677,0.0391 -0.3019,0.1179 -0.4223,0.2105c-0.2344,0.0542 -0.4197,0.1696 -0.5641,0.3214c-0.0995,0.0234 -0.1941,0.0549 -0.2785,0.0984c-0.1078,0.0409 -0.1935,0.1058 -0.2786,0.1727c-0.1796,0.0126 -0.3561,0.0655 -0.513,0.1714c-0.2685,0.1815 -0.5521,0.3258 -0.8471,0.4594c-0.075,0.0315 -0.1487,0.0637 -0.2231,0.0958c0.1147,-0.0498 0.104,-0.0447 -0.0328,0.0133c-0.2111,0.0888 -0.4216,0.1783 -0.6308,0.271c-0.0637,0.0283 -0.1166,0.0668 -0.1696,0.1059c-0.2489,0.0334 -0.4809,0.1172 -0.6731,0.2527c-0.2842,0.012 -0.5168,0.0989 -0.6958,0.2395c-0.0164,0.0038 -0.034,0.0075 -0.051,0.0101c-0.1551,0.0233 -0.2912,0.0882 -0.411,0.1783c-0.7121,0.133 -1.3733,0.387 -2.064,0.6278c-0.2093,0.0113 -0.392,0.0636 -0.5439,0.1506c-0.1242,0.0057 -0.2395,0.0271 -0.3448,0.0611c-0.0781,-0.0246 -0.1601,-0.0403 -0.2496,-0.0504c-0.7947,-0.433 -1.9329,-0.4947 -2.6445,-1.2989c-0.1033,-0.0662 -0.2054,-0.1337 -0.3063,-0.203c-2.5191,-1.7281 -4.159,-4.4596 -4.1918,-7.5542c-0.0542,-5.3029 4.6324,-9.6516 10.4672,-9.7115z" fill="#ffac00"/></g></g></svg>