<svg version="1.1" xmlns="http://www.w3.org/2000/svg" xmlns:xlink="http://www.w3.org/1999/xlink" width="166.00686" height="175.3415" viewBox="0,0,166.00686,175.3415"><g transform="translate(-84.20154,-81.93004)"><g data-paper-data="{&quot;isPaintingLayer&quot;:true}" fill-rule="nonzero" stroke="none" stroke-linecap="butt" stroke-linejoin="miter" stroke-miterlimit="10" stroke-dasharray="" stroke-dashoffset="0" style="mix-blend-mode: normal"><text transform="translate(119.27548,251.78344) scale(0.5,0.5)" font-size="40" xml:space="preserve" fill="#ff0000" fill-rule="nonzero" stroke="none" stroke-width="1" stroke-linecap="butt" stroke-linejoin="miter" stroke-miterlimit="10" stroke-dasharray="" stroke-dashoffset="0" font-family="Pixel" font-weight="normal" text-anchor="start" style="mix-blend-mode: normal"><tspan x="0" dy="0"> </tspan></text><g data-paper-data="{&quot;index&quot;:null}"><path d="M189.71743,121.16782c0.13159,21.81485 -19.237,39.61676 -43.26094,39.76168c-24.02394,0.14492 -43.60588,-17.42203 -43.73747,-39.23689c-0.13159,-21.81485 19.23699,-39.61676 43.26094,-39.76168c24.02394,-0.14492 43.60588,17.42203 43.73747,39.23689z" fill="#7300ff" stroke-width="0"/><path d="M214.16957,121.20838c0.50507,2.44845 -1.94338,2.95352 -1.94338,2.95352l-0.09698,0.02001c-6.784,1.38302 -13.48159,1.11047 -20.38661,1.15212c-8.99984,0.05429 -17.99967,0.10858 -26.99951,0.16287c-16.33303,0.09852 -32.66608,0.19705 -48.99911,0.29557c-9.58557,0.05782 -20.28751,1.33374 -29.61228,-0.89603c0,0 -2.42897,-0.5917 -1.83727,-3.02067c0.5917,-2.42897 3.02067,-1.83727 3.02067,-1.83727c8.8135,2.19284 19.32059,0.80883 28.39873,0.75407c16.33303,-0.09852 32.66608,-0.19705 48.99911,-0.29557c8.99984,-0.05429 17.99967,-0.10858 26.99951,-0.16287c6.55188,-0.03952 12.98161,0.2934 19.40663,-1.04911l0.09698,-0.02001c0,0 2.44845,-0.50507 2.95352,1.94338z" fill="#000000" stroke-width="0.5"/><path d="M245.20844,119.51141c-0.00833,-1.38068 1.10419,-2.50671 2.48487,-2.51503c1.38068,-0.00833 2.50671,1.10419 2.51503,2.48487c0.00833,1.38068 -1.10419,2.50671 -2.48487,2.51503c-1.38068,0.00833 -2.50671,-1.10419 -2.51503,-2.48487z" fill="#000000" stroke-width="0.5"/><text transform="translate(103.14534,192.36966) rotate(-0.34561) scale(0.5,0.5)" font-size="40" xml:space="preserve" fill="#ff0000" fill-rule="nonzero" stroke="none" stroke-width="1" stroke-linecap="butt" stroke-linejoin="miter" stroke-miterlimit="10" stroke-dasharray="" stroke-dashoffset="0" font-family="Pixel" font-weight="normal" text-anchor="start" style="mix-blend-mode: normal"><tspan x="0" dy="0">play online</tspan></text></g></g></g></svg>