<svg version="1.1" xmlns="http://www.w3.org/2000/svg" xmlns:xlink="http://www.w3.org/1999/xlink" width="17.19778" height="16.75794" viewBox="0,0,17.19778,16.75794"><g transform="translate(-111.40162,-138.61016)"><g data-paper-data="{&quot;isPaintingLayer&quot;:true}" fill="#15b600" fill-rule="nonzero" stroke="none" stroke-width="0.5" stroke-linecap="butt" stroke-linejoin="miter" stroke-miterlimit="10" stroke-dasharray="" stroke-dashoffset="0" style="mix-blend-mode: normal"><path d="M120.76912,145.65314c-0.01056,-0.00891 -0.02113,-0.01782 -0.03168,-0.02674c-0.79791,-0.67407 -1.29653,-2.34694 -2.31441,-2.11252c-0.97301,0.22409 -0.62699,1.89638 -0.90772,2.85458c-0.43209,1.47484 -0.71699,3.0725 -1.56743,4.34502c0.11844,-0.15715 0.27166,-0.34777 0.36932,-0.42766c0.68021,-0.55645 1.47087,-0.9703 2.13949,-1.54063c0.65484,-0.55857 1.21147,-1.22294 1.81721,-1.83441zM123.80942,150.44633c-1.50779,1.4959 -3.93569,4.21158 -6.04331,4.62496c-1.80811,0.35464 -4.13836,0.62486 -5.49223,-0.62496c-1.91809,-1.7707 -0.196,-8.43708 0.64229,-10.03951c1.09976,-2.10225 1.93965,-5.09685 4.22714,-5.7264c2.66214,-0.73266 8.48986,4.47092 10.43995,6.0299c0.2453,0.1924 0.45373,0.42966 0.61294,0.69943c0.40571,0.63172 0.72424,1.64485 -0.17583,2.79696c-0.01546,0.02 -0.03123,0.03975 -0.04728,0.05926c-0.92501,1.13545 -1.98277,1.05137 -2.68971,0.79553c-0.19955,-0.06344 -0.38823,-0.15125 -0.56255,-0.25994z"/></g></g></svg>