<svg version="1.1" xmlns="http://www.w3.org/2000/svg" xmlns:xlink="http://www.w3.org/1999/xlink" width="215.7195" height="112.53754" viewBox="0,0,215.7195,112.53754"><g transform="translate(-208,-85.44616)"><g data-paper-data="{&quot;isPaintingLayer&quot;:true}" fill-rule="nonzero" stroke-linecap="butt" stroke-linejoin="miter" stroke-miterlimit="10" stroke-dasharray="" stroke-dashoffset="0" style="mix-blend-mode: normal"><path d="M262.5,197.9837c-2.5,0 -2.5,-2.5 -2.5,-2.5l0.73223,-0.23223c-4.71675,-4.71675 -8.64789,-9.69492 -13.81721,-13.83441c-2.67665,-2.14341 -4.16212,-4.10731 -8.01457,-3.46564c-0.90816,0.15126 -1.72346,0.65524 -2.60989,0.90399c-0.66152,0.18564 -1.56169,-0.11329 -2.0228,0.39606c-0.58747,0.64893 -0.19078,1.79596 -0.64114,2.54656c-0.58369,0.97282 -1.56531,1.64267 -2.35886,2.45344c-1.18513,1.21084 -2.78849,2.08244 -3.64114,3.54656c-1.33197,2.2872 -1.68488,5.51569 -3.94698,6.88986c-1.19371,0.72514 -2.78643,0.19721 -4.17964,0.29581c0,0 -2.5,0 -2.5,-2.5c0,-2.5 2.5,-2.5 2.5,-2.5c3.55044,0.57696 2.28182,-2.21999 3.87337,-4.81433c1.44071,-2.34845 4.60699,-3.67831 6,-6c0.63646,-1.06077 0.461,-2.60247 1.35886,-3.45344c0.34197,-0.32412 6.55229,-2.59654 7.36731,-2.69995c5.45167,-0.69175 8.04936,1.38844 11.98543,4.53436c5.31743,4.25 9.35075,9.33354 14.18279,14.16559l0.73223,3.76777c0,0 0,2.5 -2.5,2.5z" fill="#9966ff" stroke="none" stroke-width="0.5"/><path d="M231.5,160.9837c-2.5,0 -2.5,-2.5 -2.5,-2.5c0,-4.66667 0,-12.33333 0,-17c0,0 0,-2.5 2.5,-2.5c2.5,0 2.5,2.5 2.5,2.5c0,4.66667 0,9.33333 0,14v3c0,0 0,2.5 -2.5,2.5z" fill="#9966ff" stroke="none" stroke-width="0.5"/><path d="M252.5,163.9837c-2.5,0 -2.5,-2.5 -2.5,-2.5v-2c0,-1.86655 0.31305,-3.75424 0.03228,-5.59954c-0.46322,-3.04448 -2.89817,-5.65491 -3.90399,-8.60989c0,0 -0.79057,-2.37171 1.58114,-3.16228c2.37171,-0.79057 3.16228,1.58114 3.16228,1.58114c1.09735,3.37986 3.46376,5.81183 4.09601,9.39011c0.04177,0.23643 0.03228,5.94037 0.03228,6.40046v2c0,0 0,2.5 -2.5,2.5z" fill="#9966ff" stroke="none" stroke-width="0.5"/><text transform="translate(209.5,117) scale(0.5,0.5)" font-size="40" xml:space="preserve" fill="#ffffff" fill-rule="nonzero" stroke="#000000" stroke-width="4" stroke-linecap="butt" stroke-linejoin="miter" stroke-miterlimit="10" stroke-dasharray="" stroke-dashoffset="0" font-family="Marker" font-weight="normal" text-anchor="start" style="mix-blend-mode: normal"><tspan x="0" dy="0">no lives</tspan></text><text transform="translate(304.11048,129.69533) rotate(-16.53619) scale(0.25862,0.25862)" font-size="40" xml:space="preserve" fill="#ffffff" fill-rule="nonzero" stroke="none" stroke-width="1" stroke-linecap="butt" stroke-linejoin="miter" stroke-miterlimit="10" stroke-dasharray="" stroke-dashoffset="0" font-family="Marker" font-weight="normal" text-anchor="start" style="mix-blend-mode: normal"><tspan x="0" dy="0">that was supposed to</tspan><tspan x="0" dy="46.15px">be the mega mind meme</tspan></text></g></g></svg>