<svg version="1.1" xmlns="http://www.w3.org/2000/svg" xmlns:xlink="http://www.w3.org/1999/xlink" width="132.05344" height="104.03305" viewBox="0,0,132.05344,104.03305"><g transform="translate(-169.94656,-145.95065)"><g data-paper-data="{&quot;isPaintingLayer&quot;:true}" fill="#000000" fill-rule="nonzero" stroke="none" stroke-width="0.5" stroke-linecap="butt" stroke-linejoin="miter" stroke-miterlimit="10" stroke-dasharray="" stroke-dashoffset="0" style="mix-blend-mode: normal"><path d="M218.87171,197.27427c-0.79057,2.37171 -3.16228,1.58114 -3.16228,1.58114l-3.72691,-1.38494c-0.66667,-1 -1.0615,-2.24923 -2,-3c-0.82485,-0.65985 -2.185,-0.33911 -3.00558,-1.00427c-1.05484,-0.85506 -1.4614,-2.29971 -2.34367,-3.33189c-3.39091,-3.96704 -7.19101,-7.61376 -10.74998,-11.47116c-0.7246,0.73916 -1.45549,1.4674 -2.20098,2.17242c-5.27052,4.9844 -11.35947,9.31298 -16.41454,14.41591l-1,1c0,0 -1.76777,1.76777 -3.53553,0c-1.76777,-1.76777 0,-3.53553 0,-3.53553l1,-1c5.1516,-5.111 11.19298,-9.4798 16.51439,-14.51302c0.80105,-0.75767 1.5879,-1.52012 2.36791,-2.28284c-3.08535,-3.83554 -6.26986,-8.65154 -10.90511,-10.06466c0,0 -2.37171,-0.79057 -1.58114,-3.16228c0.79057,-2.37171 3.16228,-1.58114 3.16228,-1.58114c5.29957,1.87255 9.3487,6.39361 13.09335,11.11716c2.58609,-2.50166 5.22842,-4.92555 8.19808,-7.10571c5.2353,-3.84348 9.3732,-8.49806 14.33303,-12.5731c0.78375,-0.64393 1.94896,-0.80478 2.59821,-1.58413c0.50241,-0.60309 0.41004,-1.51539 0.61506,-2.27309c0,0 0.79057,-2.37171 3.16228,-1.58114c2.37171,0.79057 1.58114,3.16228 1.58114,3.16228c-0.46165,1.2423 -0.57033,2.68152 -1.38494,3.72691c-0.85486,1.09704 -2.33908,1.51869 -3.40179,2.41587c-2.32333,1.96143 -4.18767,4.41787 -6.44365,6.4564c-3.75097,3.38943 -8.1599,5.87458 -11.99553,9.12907c-1.4881,1.26263 -2.89353,2.64181 -4.27334,4.0531c1.31226,1.67372 2.61822,3.28812 3.96186,4.72945c0.47965,0.51452 6.84511,6.7957 7.17456,7.19016c0.62929,0.75346 0.74055,1.92167 1.51419,2.52597c0.82896,0.64751 2.17306,0.33861 2.99442,0.99573c0.93847,0.75081 1.33333,2 2,3l2.27309,0.61506c0,0 2.37171,0.79057 1.58114,3.16228z"/><path d="M291.26777,203.25147c-1.76777,1.76777 -3.53553,0 -3.53553,0l-2,-2c-2.28403,-2.34558 -5.13545,-3.37903 -7.87802,-5.12874c-4.37403,-2.79054 -8.97925,-5.85531 -13.03346,-9.31774c-0.22752,0.18889 -0.4551,0.37801 -0.68274,0.56735c-2.9437,2.44827 -6.18693,4.17042 -8.87024,6.87913l-1,1c0,0 -1.76777,1.76777 -3.53553,0c-1.76777,-1.76777 0,-3.53553 0,-3.53553l1,-1c2.80864,-2.7865 6.09338,-4.58534 9.12976,-7.12087c0.091,-0.07599 0.18197,-0.15202 0.27291,-0.22809c-5.37002,-5.50944 -9.7099,-12.19521 -16.75294,-15.64721c0,0 -2.23607,-1.11803 -1.11803,-3.3541c1.11803,-2.23607 3.3541,-1.11803 3.3541,-1.11803c7.72314,3.92574 12.39312,10.84197 18.35168,16.88812c2.6285,-2.22179 5.26033,-4.44186 7.94531,-6.58541c3.36676,-2.68784 7.31932,-5.25957 10.9341,-7.58967c1.27279,-0.82044 2.78913,-1.2856 3.92566,-2.2863c3.03275,-2.6703 3.86411,-7.23611 7.66482,-9.45465c1.17087,-0.68346 2.70693,-0.15735 4.06039,-0.23603c0,0 2.5,0 2.5,2.5c0,2.5 -2.5,2.5 -2.5,2.5c-4.29077,-0.52213 -5.4555,5.79731 -8.27479,8.30932c-2.57879,2.29772 -5.83859,3.69698 -8.6629,5.68518c-4.79883,3.37818 -9.33443,6.93496 -13.82536,10.60006c3.70636,3.0812 7.87415,5.81882 11.8071,8.32964c3.08291,1.96815 6.08436,3.22092 8.72372,5.80803l2,2c0,0 1.76777,1.76777 0,3.53553z"/><path d="M202.5,249.9837c-2.5,0 -2.5,-2.5 -2.5,-2.5l0.73223,-2.76777c2.63833,-2.55816 2.92445,-4.95176 4.81778,-8.30199c3.42445,-6.05953 7.14193,-11.7403 11.01663,-17.51522c3.23425,-3.25183 5.71134,-6.49046 10.35897,-7.84815c1.14386,-0.33415 2.38274,-0.0596 3.57438,-0.06688c8.6243,-0.0527 14.64064,4.4616 22.04464,8.22872c1.19289,0.60694 2.77415,0.55969 3.72312,1.50352c0.93494,0.92987 0.8705,2.49905 1.47802,3.66939c3.20465,6.17352 7.86726,11.67215 10.12592,18.30781c0,0 0.79057,2.37171 -1.58114,3.16228c-2.37171,0.79057 -3.16228,-1.58114 -3.16228,-1.58114c-1.11645,-3.4387 -3.26909,-5.50398 -4.87408,-8.69219c-0.95569,-1.89842 -1.65537,-3.94318 -2.83434,-5.71163c-0.72803,-1.09205 -1.59933,-2.10436 -2.16566,-3.28837c-0.34352,-0.71819 0.03813,-1.76485 -0.52198,-2.33061c-0.54651,-0.55203 -1.5735,-0.16684 -2.27688,-0.49648c-1.57037,-0.73598 -2.96355,-1.80308 -4.46856,-2.66487c-1.75398,-1.00435 -3.77713,-1.4572 -5.58517,-2.36062c-3.77933,-1.8884 -7.76194,-4.07232 -12.32724,-2.81267c-3.20705,0.88489 -5.41453,3.93886 -7.64103,6.15185c-3.67734,5.55526 -7.24178,10.98615 -10.53037,16.80529c-2.01462,3.56485 -2.63585,6.161 -5.32297,9.05011l0.41999,-0.44037c0,0 0,2.5 -2.5,2.5z"/></g></g></svg>