<svg version="1.1" xmlns="http://www.w3.org/2000/svg" xmlns:xlink="http://www.w3.org/1999/xlink" width="220.04653" height="96.83967" viewBox="0,0,220.04653,96.83967"><g transform="translate(-125.38654,-121.171)"><g data-paper-data="{&quot;isPaintingLayer&quot;:true}" fill-rule="nonzero" stroke-linejoin="miter" stroke-miterlimit="10" stroke-dasharray="" stroke-dashoffset="0" style="mix-blend-mode: normal"><g stroke-linecap="round"><path d="M309.43371,199.29023c1.1829,3.26322 1.11226,7.34833 -0.13602,10.67914c-1.06358,2.83476 -3.33298,6.00754 -6.31951,6.79623c-2.7113,0.71178 -5.64436,-1.83327 -8.30012,-3.11977c-2.1296,-1.02124 -6.23434,-1.22299 -6.65385,-3.71332c-0.50851,-3.18534 3.16224,-5.83543 4.21089,-8.95927c0.76972,-2.28767 -1.35291,-6.42072 0.85275,-7.21702c3.73252,-1.21391 7.6635,1.91423 11.22629,3.12778c1.78267,0.60737 4.47573,0.62927 5.11958,2.40622z" fill="#ff9400" stroke="none" stroke-width="1"/><path d="M297.2475,195.71128c1.5415,3.0372 1.01021,6.98862 -0.02818,10.23525c-0.82313,2.57587 -2.53968,6.21476 -5.33623,6.58098c-4.5634,0.59291 -9.47177,-1.97344 -13.5509,-4.41568c-1.00873,-0.59834 0.70899,-2.10526 0.94873,-3.26533c0.60005,-1.66735 1.21937,-3.34909 1.57364,-5.21165c0.57945,-3.03652 -0.66142,-6.9411 1.47735,-9.17598c1.64874,-1.71591 4.6925,-0.56505 6.72746,0.232c3.1094,1.01452 6.78796,2.25435 8.18813,5.02042z" fill="#b5b5b5" stroke="none" stroke-width="1"/><path d="M195.91498,158.63239c3.20338,2.26582 8.95036,5.18569 7.72895,8.9065c-1.6727,5.28776 -8.26713,9.11314 -13.84531,9.50959c-3.98193,0.28335 -6.25621,-5.15781 -9.44082,-7.7578c-1.81974,-1.70379 -3.5626,-3.49802 -5.58194,-5.1628c-1.35255,-1.11856 -2.86327,-1.88564 -4.11326,-3.30055c-0.35133,-0.39952 -1.64994,-1.34193 -0.03839,-1.58067c6.42969,-0.94476 13.02085,-1.04949 19.50403,-1.18545c1.86501,-0.03992 4.19072,-0.52977 5.78673,0.57117z" fill="#ffffcc" stroke="none" stroke-width="1"/><path d="M224.70143,168.45088c18.95258,6.72869 37.9691,13.51087 57.03694,20.36172c4.76962,1.72451 3.12967,0.57244 4.07487,1.71987c1.34997,1.533 2.01903,3.68355 2.11981,5.87953c0.13854,2.44812 -0.4323,4.99256 -1.64309,7.23621c-1.13367,2.1627 -2.8657,4.43483 -5.1628,5.58194c-1.40725,0.66682 0.22814,0.92761 -4.76121,-0.67516c-19.50401,-6.62768 -38.97905,-13.8207 -58.46723,-20.6433c-8.19598,-2.86924 -16.29189,-5.59067 -24.32601,-8.50338c-2.11177,-0.6386 -2.93807,-0.18549 -3.35013,-1.18391c-0.38905,-0.97589 1.01123,-1.87725 1.3535,-2.87976c0.3502,-1.02769 0.90115,-2.11182 0.71355,-3.18054c-0.17869,-1.01453 -1.29793,-1.63043 -1.72305,-2.5678c-0.44883,-0.98836 -1.53238,-2.3102 -0.86712,-3.14215c0.83772,-1.03764 2.88068,-0.57513 4.40285,-1.0559c0.7316,-0.15853 1.76542,-0.05079 2.35181,-0.84793c0.47532,-0.73371 -0.185,-1.76912 -0.14238,-2.60619c0.07078,-1.20121 -2.3204,-4.04474 0.0736,-3.48132c9.61498,2.21732 18.84628,6.61076 28.31609,9.98807z" fill="#ffff00" stroke="#000000" stroke-width="2"/><path d="M272.89746,195.98639l-82.1341,-28.05557" fill="none" stroke="#000000" stroke-width="2"/><path d="M170.94419,159.39706c0,0 0.83777,-0.15004 1.2607,-0.18878c1.54909,-0.14075 3.10394,-0.2655 4.65723,-0.35036c1.05196,-0.05718 2.10934,-0.03447 3.16135,-0.07679c2.26328,-0.09103 4.5333,-0.17812 6.79305,-0.32316c1.02738,-0.06639 2.0486,-0.256 3.07655,-0.31197c1.5773,-0.08608 4.74202,-0.11518 4.74202,-0.11518" fill="none" stroke="#000000" stroke-width="2"/><path d="M170.08825,159.97141c0,0 0.05372,0.3495 0.16959,0.47036c0.46473,0.48407 1.00116,0.89871 1.53427,1.3071c0.56824,0.43506 1.20121,0.78725 1.76945,1.22231c0.53311,0.40839 1.02636,0.86836 1.53427,1.3071c1.80484,1.55928 3.68481,3.04682 5.41235,4.69244c1.2431,1.18353 2.27442,2.58161 3.49251,3.7901c1.40153,1.39004 2.90321,2.68338 4.36764,4.00609c0.63552,0.5745 1.93904,1.69267 1.93904,1.69267" fill="none" stroke="#000000" stroke-width="2"/><path d="M170.70901,159.48185l-0.18047,0.38397" fill="none" stroke="#000000" stroke-width="2"/><path d="M286.51878,190.27809c0,0 6.21023,1.88437 9.32564,3.01578c0.69137,0.24291 1.14533,0.25782 1.36469,0.83674c0.72095,1.89054 1.29282,3.93368 1.0943,5.98352c-0.27921,2.84323 -1.2746,5.73739 -2.88459,8.21533c-1.07912,1.9602 -3.25985,3.10574 -4.94681,4.70681c-0.4211,0.40057 0.22202,0.41531 -0.15039,0.31997c-1.43728,-0.34816 -2.75826,-0.92214 -4.22526,-1.3999c-2.06488,-0.72673 -6.38028,-2.21744 -6.38028,-2.21744" fill="none" stroke="#000000" stroke-width="2"/><path d="M297.53675,194.28663c0,0 6.80812,1.93169 9.96899,3.28738c0.79652,0.27569 1.65823,0.4002 1.97542,1.13402c0.76214,1.61737 1.36395,3.38886 1.2088,5.21493c-0.25184,2.95423 -0.84634,5.99501 -2.20448,8.62749c-1.00913,1.93379 -2.79467,3.31273 -4.62109,4.4076c-0.57013,0.46397 -1.43405,0.11309 -2.13138,-0.01488c-1.506,-0.27607 -3.00488,-0.59724 -4.37215,-1.10914c-2.50038,-0.83961 -7.21357,-2.93802 -7.21357,-2.93802" fill="none" stroke="#000000" stroke-width="2.10526"/><path d="M292.64787,198.43265c0,0 0.00168,-0.17813 0,0c-0.00929,0.71132 0.07494,1.43143 -0.0272,2.13583c-0.10267,0.70884 -0.35751,1.39069 -0.58236,2.07023c-0.24104,0.72896 -0.5171,1.44929 -0.81754,2.15502c-0.32289,0.75847 -0.59231,1.55614 -1.05272,2.23982c-0.4152,0.61742 -1.00502,1.10433 -1.54228,1.61907c-0.647,0.6202 -2.01264,1.78865 -2.01264,1.78865" fill="none" stroke="#000000" stroke-width="2"/><path d="M179.93066,161.47212c0.16635,0.62354 0.11034,1.32618 -0.1241,1.92308c-0.26042,0.66048 -0.73335,1.20623 -1.22716,1.69998c-0.33077,0.32973 -0.80922,0.67444 -1.36021,0.64986c-0.28767,0.03356 -0.30365,-0.24663 -0.75866,-0.63003c-1.82455,-1.53729 -5.60236,-3.25584 -5.41235,-4.69244c0.2263,-1.33594 3.617,-1.33384 5.49396,-1.71505c0.69495,-0.13044 1.56773,-0.4281 2.13583,0.0272c0.7602,0.62841 1.00859,1.80384 1.25269,2.73738z" fill="#000000" stroke="none" stroke-width="1"/></g><text transform="translate(125.89536,144.6002) scale(1.01762,0.62241)" font-size="40" xml:space="preserve" fill="#ff0000" fill-rule="nonzero" stroke="none" stroke-width="1" stroke-linecap="butt" stroke-linejoin="miter" stroke-miterlimit="10" stroke-dasharray="" stroke-dashoffset="0" font-family="Handwriting" font-weight="normal" text-anchor="start" style="mix-blend-mode: normal"><tspan x="0" dy="0">create a level</tspan></text><text transform="translate(150.75141,256.73488) scale(0.5,0.5)" font-size="40" xml:space="preserve" fill="#ff0000" fill-rule="nonzero" stroke="none" stroke-width="1" stroke-linecap="butt" stroke-linejoin="miter" stroke-miterlimit="10" stroke-dasharray="" stroke-dashoffset="0" font-family="Handwriting" font-weight="normal" text-anchor="start" style="mix-blend-mode: normal"><tspan x="0" dy="0"> </tspan></text></g></g></svg>