<svg version="1.1" xmlns="http://www.w3.org/2000/svg" xmlns:xlink="http://www.w3.org/1999/xlink" width="18.49063" height="46.3" viewBox="0,0,18.49063,46.3"><g transform="translate(-226.70938,-156.9)"><g data-paper-data="{&quot;isPaintingLayer&quot;:true}" fill-rule="nonzero" stroke="none" stroke-width="1" stroke-linecap="butt" stroke-linejoin="miter" stroke-miterlimit="10" stroke-dasharray="" stroke-dashoffset="0" style="mix-blend-mode: normal"><g><path d="M227.1,200.4c0,0 -1,-29.7 0.2,-33.8c0,0 4.3,-7 11.1,-9.7c0,0 4.8,6.8 6.8,12.8c0,0 -9.2,29.4 -10.6,31.4c0,0 -3.1,1.7 -5.1,1.9c0.1,0.1 -2.4,-1.1 -2.4,-2.6z" fill="#8644b3"/><path d="M238.4,157.1l-5.4,16.6c-3.4,-1.9 -5.6,-7 -5.6,-7c0,0 4.3,-7 11,-9.6z" fill="#ea8be5"/><path d="M238.4,157.1l-5.4,16.6c-3.4,-1.9 -5.6,-7 -5.6,-7c0,0 4.3,-7 11,-9.6z" fill="#ea8be5"/><path d="M245,170.6c-6.3,1.9 -12.1,3.1 -12.1,3.1l5.5,-16.6c0,-0.1 0.1,-0.1 0.1,-0.1c0,0 4.8,6.8 6.7,12.8c0,0 0,0.2 -0.2,0.8z" fill="#ad59c2"/><path d="M233,173.8l-3.4,29.4c0,0 -2.4,-1.3 -2.4,-2.7c0,0 -1,-29.7 0.2,-33.8z" fill="#ad59c2"/><path d="M232.9,173.7c0,0 -0.1,1.6 -0.3,4c-0.1,1.2 -0.3,2.6 -0.4,4.1c-0.2,1.5 -0.3,3.1 -0.5,4.6c-0.2,1.6 -0.4,3.2 -0.6,4.6c-0.2,1.5 -0.4,2.9 -0.5,4c-0.4,2.3 -0.6,3.9 -0.6,3.9c0,0 0.1,-1.6 0.3,-4c0.1,-1.2 0.3,-2.6 0.4,-4.1c0.2,-1.5 0.3,-3.1 0.5,-4.6c0.2,-1.6 0.4,-3.2 0.6,-4.6c0.2,-1.5 0.4,-2.9 0.5,-4c0.4,-2.4 0.6,-3.9 0.6,-3.9z" fill="#ea8be5"/><path d="M229.9,199.8l-0.4,3.3c0,0 -2.4,-1.3 -2.4,-2.7c0,0 1.6,-0.3 2.8,-0.6z" fill="#a546bd"/><path d="M234.6,201.2c0,0 -3.2,1.7 -5.1,1.9l0.4,-3.3c0.6,-0.1 1.1,-0.2 1.3,-0.2c0.8,-0.1 3.4,1.6 3.4,1.6z" fill="#7c36ab"/><path d="M229.6,203.1c0.9,-0.2 1.8,-0.5 2.6,-0.8c0.8,-0.3 1.6,-0.7 2.3,-1.3l-0.1,0.1c0.6,-2 1.3,-4 2,-6c0.7,-2 1.3,-4 2,-5.9c1.4,-4 2.8,-7.9 4.3,-11.8c-1.2,4 -2.5,8 -3.9,12c-0.7,2 -1.4,4 -2,5.9c-0.7,2 -1.4,4 -2.1,5.9c-0.8,0.5 -1.6,0.9 -2.5,1.2c-0.9,0.4 -1.7,0.6 -2.6,0.7z" fill="#6b348f"/><path d="M227.3,166.7c0,0 4.6,-0.4 8,-0.4l-2.4,7.4c-3.3,-2 -5.6,-7 -5.6,-7z" fill="#e17de3"/><path d="M238.7,166.6c0.9,0.3 4.2,1.8 6.4,2.9c0,0.1 0.1,0.3 0.1,0.4c0,0 -0.1,0.2 -0.2,0.7c-6.3,1.9 -12.1,3.1 -12.1,3.1l2.4,-7.4c1.6,0 3,0 3.4,0.3z" fill="#9b4dae"/><path d="M245,170.5c0,0 -0.6,0.3 -1.4,0.6c-0.9,0.3 -2,0.7 -3.2,1.1c-1.2,0.3 -2.4,0.6 -3.3,0.8c-0.9,0.2 -1.5,0.2 -1.5,0.2c0,0 0.1,0 0.4,-0.1c0.3,-0.1 0.6,-0.2 1.1,-0.3c0.9,-0.3 2,-0.6 3.2,-1c1.2,-0.3 2.4,-0.7 3.3,-0.9c0.8,-0.3 1.4,-0.4 1.4,-0.4z" fill="#6b348f"/></g><path d="M242.4,157.1c0,0 -0.2,0.8 -0.5,2c-0.3,1.2 -0.8,2.8 -1.3,4.4c-0.5,1.6 -1.1,3.2 -1.6,4.4c-0.5,1.2 -0.8,2 -0.8,2c0,0 0.2,-0.8 0.5,-2c0.3,-1.3 0.8,-3 1.3,-4.5c0.5,-1.6 1.1,-3.2 1.6,-4.4c0.4,-1.2 0.8,-1.9 0.8,-1.9z" fill="#ffbcfc"/></g></g></svg>